<svg xmlns="http://www.w3.org/2000/svg" width="70" height="60" viewBox="0 0 146.59 201.32" version="1.1">
<defs>
<clipPath id="clip1">
  <path d="M 0 0 L 146.589844 0 L 146.589844 201.320313 L 0 201.320313 Z M 0 0 "/>
</clipPath>
<clipPath id="clip2">
  <path d="M 66 104 L 80 104 L 80 116 L 66 116 Z M 66 104 "/>
</clipPath>
<clipPath id="clip3">
  <path d="M 73.246094 104.238281 C 69.550781 104.238281 66.539063 106.777344 66.539063 109.898438 C 66.539063 113.035156 69.550781 115.574219 73.246094 115.574219 C 76.945313 115.574219 79.957031 113.035156 79.957031 109.898438 C 79.957031 106.777344 76.945313 104.238281 73.246094 104.238281 "/>
</clipPath>
<clipPath id="clip4">
  <path d="M 68 104 L 80 104 L 80 114 L 68 114 Z M 68 104 "/>
</clipPath>
<clipPath id="clip5">
  <path d="M 73.246094 104.238281 C 69.550781 104.238281 66.539063 106.777344 66.539063 109.898438 C 66.539063 113.035156 69.550781 115.574219 73.246094 115.574219 C 76.945313 115.574219 79.957031 113.035156 79.957031 109.898438 C 79.957031 106.777344 76.945313 104.238281 73.246094 104.238281 "/>
</clipPath>
<clipPath id="clip6">
  <path d="M 41 76 L 80 76 L 80 161 L 41 161 Z M 41 76 "/>
</clipPath>
<clipPath id="clip7">
  <path d="M 96.890625 152.789063 C 96.398438 155.046875 91.15625 164.058594 88.167969 166.5625 C 85.167969 169.066406 82.175781 169.066406 85.167969 165.066406 C 88.167969 161.050781 93.398438 145.015625 93.152344 145.273438 C 92.902344 145.53125 88.914063 154.296875 83.921875 162.054688 C 78.929688 169.828125 70.195313 168.820313 68.703125 166.5625 C 55.996094 147.425781 54.03125 101.660156 50.773438 82.039063 C 50.273438 79.03125 42.03125 80.871094 40.773438 80.371094 C 39.527344 79.867188 29.414063 80.53125 25.792969 76.761719 C 25.792969 76.761719 24.191406 74.644531 24.300781 75.640625 C 26.042969 91.703125 33.527344 136.25 56.730469 167.066406 C 56.730469 167.066406 59.972656 170.578125 66.460938 171.570313 C 72.949219 172.578125 81.210938 171.402344 84.917969 169.570313 C 92.53125 165.8125 96.890625 152.789063 96.890625 152.789063 "/>
</clipPath>
<clipPath id="clip8">
  <path d="M 39 77 L 78 77 L 78 163 L 39 163 Z M 39 77 "/>
</clipPath>
<clipPath id="clip9">
  <path d="M 96.890625 152.789063 C 96.398438 155.046875 91.15625 164.058594 88.167969 166.5625 C 85.167969 169.066406 82.175781 169.066406 85.167969 165.066406 C 88.167969 161.050781 93.398438 145.015625 93.152344 145.273438 C 92.902344 145.53125 88.914063 154.296875 83.921875 162.054688 C 78.929688 169.828125 70.195313 168.820313 68.703125 166.5625 C 55.996094 147.425781 54.03125 101.660156 50.773438 82.039063 C 50.273438 79.03125 42.03125 80.871094 40.773438 80.371094 C 39.527344 79.867188 29.414063 80.53125 25.792969 76.761719 C 25.792969 76.761719 24.191406 74.644531 24.300781 75.640625 C 26.042969 91.703125 33.527344 136.25 56.730469 167.066406 C 56.730469 167.066406 59.972656 170.578125 66.460938 171.570313 C 72.949219 172.578125 81.210938 171.402344 84.917969 169.570313 C 92.53125 165.8125 96.890625 152.789063 96.890625 152.789063 "/>
</clipPath>
<clipPath id="clip10">
  <path d="M 38 76 L 78 76 L 78 163 L 38 163 Z M 38 76 "/>
</clipPath>
<clipPath id="clip11">
  <path d="M 96.890625 152.789063 C 96.398438 155.046875 91.15625 164.058594 88.167969 166.5625 C 85.167969 169.066406 82.175781 169.066406 85.167969 165.066406 C 88.167969 161.050781 93.398438 145.015625 93.152344 145.273438 C 92.902344 145.53125 88.914063 154.296875 83.921875 162.054688 C 78.929688 169.828125 70.195313 168.820313 68.703125 166.5625 C 55.996094 147.425781 54.03125 101.660156 50.773438 82.039063 C 50.273438 79.03125 42.03125 80.871094 40.773438 80.371094 C 39.527344 79.867188 29.414063 80.53125 25.792969 76.761719 C 25.792969 76.761719 24.191406 74.644531 24.300781 75.640625 C 26.042969 91.703125 33.527344 136.25 56.730469 167.066406 C 56.730469 167.066406 59.972656 170.578125 66.460938 171.570313 C 72.949219 172.578125 81.210938 171.402344 84.917969 169.570313 C 92.53125 165.8125 96.890625 152.789063 96.890625 152.789063 "/>
</clipPath>
<clipPath id="clip12">
  <path d="M 37 75 L 78 75 L 78 164 L 37 164 Z M 37 75 "/>
</clipPath>
<clipPath id="clip13">
  <path d="M 96.890625 152.789063 C 96.398438 155.046875 91.15625 164.058594 88.167969 166.5625 C 85.167969 169.066406 82.175781 169.066406 85.167969 165.066406 C 88.167969 161.050781 93.398438 145.015625 93.152344 145.273438 C 92.902344 145.53125 88.914063 154.296875 83.921875 162.054688 C 78.929688 169.828125 70.195313 168.820313 68.703125 166.5625 C 55.996094 147.425781 54.03125 101.660156 50.773438 82.039063 C 50.273438 79.03125 42.03125 80.871094 40.773438 80.371094 C 39.527344 79.867188 29.414063 80.53125 25.792969 76.761719 C 25.792969 76.761719 24.191406 74.644531 24.300781 75.640625 C 26.042969 91.703125 33.527344 136.25 56.730469 167.066406 C 56.730469 167.066406 59.972656 170.578125 66.460938 171.570313 C 72.949219 172.578125 81.210938 171.402344 84.917969 169.570313 C 92.53125 165.8125 96.890625 152.789063 96.890625 152.789063 "/>
</clipPath>
<clipPath id="clip14">
  <path d="M 36 75 L 78 75 L 78 164 L 36 164 Z M 36 75 "/>
</clipPath>
<clipPath id="clip15">
  <path d="M 96.890625 152.789063 C 96.398438 155.046875 91.15625 164.058594 88.167969 166.5625 C 85.167969 169.066406 82.175781 169.066406 85.167969 165.066406 C 88.167969 161.050781 93.398438 145.015625 93.152344 145.273438 C 92.902344 145.53125 88.914063 154.296875 83.921875 162.054688 C 78.929688 169.828125 70.195313 168.820313 68.703125 166.5625 C 55.996094 147.425781 54.03125 101.660156 50.773438 82.039063 C 50.273438 79.03125 42.03125 80.871094 40.773438 80.371094 C 39.527344 79.867188 29.414063 80.53125 25.792969 76.761719 C 25.792969 76.761719 24.191406 74.644531 24.300781 75.640625 C 26.042969 91.703125 33.527344 136.25 56.730469 167.066406 C 56.730469 167.066406 59.972656 170.578125 66.460938 171.570313 C 72.949219 172.578125 81.210938 171.402344 84.917969 169.570313 C 92.53125 165.8125 96.890625 152.789063 96.890625 152.789063 "/>
</clipPath>
<clipPath id="clip16">
  <path d="M 35 75 L 78 75 L 78 165 L 35 165 Z M 35 75 "/>
</clipPath>
<clipPath id="clip17">
  <path d="M 96.890625 152.789063 C 96.398438 155.046875 91.15625 164.058594 88.167969 166.5625 C 85.167969 169.066406 82.175781 169.066406 85.167969 165.066406 C 88.167969 161.050781 93.398438 145.015625 93.152344 145.273438 C 92.902344 145.53125 88.914063 154.296875 83.921875 162.054688 C 78.929688 169.828125 70.195313 168.820313 68.703125 166.5625 C 55.996094 147.425781 54.03125 101.660156 50.773438 82.039063 C 50.273438 79.03125 42.03125 80.871094 40.773438 80.371094 C 39.527344 79.867188 29.414063 80.53125 25.792969 76.761719 C 25.792969 76.761719 24.191406 74.644531 24.300781 75.640625 C 26.042969 91.703125 33.527344 136.25 56.730469 167.066406 C 56.730469 167.066406 59.972656 170.578125 66.460938 171.570313 C 72.949219 172.578125 81.210938 171.402344 84.917969 169.570313 C 92.53125 165.8125 96.890625 152.789063 96.890625 152.789063 "/>
</clipPath>
<clipPath id="clip18">
  <path d="M 34 75 L 78 75 L 78 165 L 34 165 Z M 34 75 "/>
</clipPath>
<clipPath id="clip19">
  <path d="M 96.890625 152.789063 C 96.398438 155.046875 91.15625 164.058594 88.167969 166.5625 C 85.167969 169.066406 82.175781 169.066406 85.167969 165.066406 C 88.167969 161.050781 93.398438 145.015625 93.152344 145.273438 C 92.902344 145.53125 88.914063 154.296875 83.921875 162.054688 C 78.929688 169.828125 70.195313 168.820313 68.703125 166.5625 C 55.996094 147.425781 54.03125 101.660156 50.773438 82.039063 C 50.273438 79.03125 42.03125 80.871094 40.773438 80.371094 C 39.527344 79.867188 29.414063 80.53125 25.792969 76.761719 C 25.792969 76.761719 24.191406 74.644531 24.300781 75.640625 C 26.042969 91.703125 33.527344 136.25 56.730469 167.066406 C 56.730469 167.066406 59.972656 170.578125 66.460938 171.570313 C 72.949219 172.578125 81.210938 171.402344 84.917969 169.570313 C 92.53125 165.8125 96.890625 152.789063 96.890625 152.789063 "/>
</clipPath>
<clipPath id="clip20">
  <path d="M 34 75 L 78 75 L 78 166 L 34 166 Z M 34 75 "/>
</clipPath>
<clipPath id="clip21">
  <path d="M 96.890625 152.789063 C 96.398438 155.046875 91.15625 164.058594 88.167969 166.5625 C 85.167969 169.066406 82.175781 169.066406 85.167969 165.066406 C 88.167969 161.050781 93.398438 145.015625 93.152344 145.273438 C 92.902344 145.53125 88.914063 154.296875 83.921875 162.054688 C 78.929688 169.828125 70.195313 168.820313 68.703125 166.5625 C 55.996094 147.425781 54.03125 101.660156 50.773438 82.039063 C 50.273438 79.03125 42.03125 80.871094 40.773438 80.371094 C 39.527344 79.867188 29.414063 80.53125 25.792969 76.761719 C 25.792969 76.761719 24.191406 74.644531 24.300781 75.640625 C 26.042969 91.703125 33.527344 136.25 56.730469 167.066406 C 56.730469 167.066406 59.972656 170.578125 66.460938 171.570313 C 72.949219 172.578125 81.210938 171.402344 84.917969 169.570313 C 92.53125 165.8125 96.890625 152.789063 96.890625 152.789063 "/>
</clipPath>
<clipPath id="clip22">
  <path d="M 33 75 L 78 75 L 78 166 L 33 166 Z M 33 75 "/>
</clipPath>
<clipPath id="clip23">
  <path d="M 96.890625 152.789063 C 96.398438 155.046875 91.15625 164.058594 88.167969 166.5625 C 85.167969 169.066406 82.175781 169.066406 85.167969 165.066406 C 88.167969 161.050781 93.398438 145.015625 93.152344 145.273438 C 92.902344 145.53125 88.914063 154.296875 83.921875 162.054688 C 78.929688 169.828125 70.195313 168.820313 68.703125 166.5625 C 55.996094 147.425781 54.03125 101.660156 50.773438 82.039063 C 50.273438 79.03125 42.03125 80.871094 40.773438 80.371094 C 39.527344 79.867188 29.414063 80.53125 25.792969 76.761719 C 25.792969 76.761719 24.191406 74.644531 24.300781 75.640625 C 26.042969 91.703125 33.527344 136.25 56.730469 167.066406 C 56.730469 167.066406 59.972656 170.578125 66.460938 171.570313 C 72.949219 172.578125 81.210938 171.402344 84.917969 169.570313 C 92.53125 165.8125 96.890625 152.789063 96.890625 152.789063 "/>
</clipPath>
<clipPath id="clip24">
  <path d="M 32 75 L 78 75 L 78 167 L 32 167 Z M 32 75 "/>
</clipPath>
<clipPath id="clip25">
  <path d="M 96.890625 152.789063 C 96.398438 155.046875 91.15625 164.058594 88.167969 166.5625 C 85.167969 169.066406 82.175781 169.066406 85.167969 165.066406 C 88.167969 161.050781 93.398438 145.015625 93.152344 145.273438 C 92.902344 145.53125 88.914063 154.296875 83.921875 162.054688 C 78.929688 169.828125 70.195313 168.820313 68.703125 166.5625 C 55.996094 147.425781 54.03125 101.660156 50.773438 82.039063 C 50.273438 79.03125 42.03125 80.871094 40.773438 80.371094 C 39.527344 79.867188 29.414063 80.53125 25.792969 76.761719 C 25.792969 76.761719 24.191406 74.644531 24.300781 75.640625 C 26.042969 91.703125 33.527344 136.25 56.730469 167.066406 C 56.730469 167.066406 59.972656 170.578125 66.460938 171.570313 C 72.949219 172.578125 81.210938 171.402344 84.917969 169.570313 C 92.53125 165.8125 96.890625 152.789063 96.890625 152.789063 "/>
</clipPath>
<clipPath id="clip26">
  <path d="M 31 75 L 78 75 L 78 167 L 31 167 Z M 31 75 "/>
</clipPath>
<clipPath id="clip27">
  <path d="M 96.890625 152.789063 C 96.398438 155.046875 91.15625 164.058594 88.167969 166.5625 C 85.167969 169.066406 82.175781 169.066406 85.167969 165.066406 C 88.167969 161.050781 93.398438 145.015625 93.152344 145.273438 C 92.902344 145.53125 88.914063 154.296875 83.921875 162.054688 C 78.929688 169.828125 70.195313 168.820313 68.703125 166.5625 C 55.996094 147.425781 54.03125 101.660156 50.773438 82.039063 C 50.273438 79.03125 42.03125 80.871094 40.773438 80.371094 C 39.527344 79.867188 29.414063 80.53125 25.792969 76.761719 C 25.792969 76.761719 24.191406 74.644531 24.300781 75.640625 C 26.042969 91.703125 33.527344 136.25 56.730469 167.066406 C 56.730469 167.066406 59.972656 170.578125 66.460938 171.570313 C 72.949219 172.578125 81.210938 171.402344 84.917969 169.570313 C 92.53125 165.8125 96.890625 152.789063 96.890625 152.789063 "/>
</clipPath>
<clipPath id="clip28">
  <path d="M 31 75 L 78 75 L 78 168 L 31 168 Z M 31 75 "/>
</clipPath>
<clipPath id="clip29">
  <path d="M 96.890625 152.789063 C 96.398438 155.046875 91.15625 164.058594 88.167969 166.5625 C 85.167969 169.066406 82.175781 169.066406 85.167969 165.066406 C 88.167969 161.050781 93.398438 145.015625 93.152344 145.273438 C 92.902344 145.53125 88.914063 154.296875 83.921875 162.054688 C 78.929688 169.828125 70.195313 168.820313 68.703125 166.5625 C 55.996094 147.425781 54.03125 101.660156 50.773438 82.039063 C 50.273438 79.03125 42.03125 80.871094 40.773438 80.371094 C 39.527344 79.867188 29.414063 80.53125 25.792969 76.761719 C 25.792969 76.761719 24.191406 74.644531 24.300781 75.640625 C 26.042969 91.703125 33.527344 136.25 56.730469 167.066406 C 56.730469 167.066406 59.972656 170.578125 66.460938 171.570313 C 72.949219 172.578125 81.210938 171.402344 84.917969 169.570313 C 92.53125 165.8125 96.890625 152.789063 96.890625 152.789063 "/>
</clipPath>
<clipPath id="clip30">
  <path d="M 31 75 L 79 75 L 79 167 L 31 167 Z M 31 75 "/>
</clipPath>
<clipPath id="clip31">
  <path d="M 96.890625 152.789063 C 96.398438 155.046875 91.15625 164.058594 88.167969 166.5625 C 85.167969 169.066406 82.175781 169.066406 85.167969 165.066406 C 88.167969 161.050781 93.398438 145.015625 93.152344 145.273438 C 92.902344 145.53125 88.914063 154.296875 83.921875 162.054688 C 78.929688 169.828125 70.195313 168.820313 68.703125 166.5625 C 55.996094 147.425781 54.03125 101.660156 50.773438 82.039063 C 50.273438 79.03125 42.03125 80.871094 40.773438 80.371094 C 39.527344 79.867188 29.414063 80.53125 25.792969 76.761719 C 25.792969 76.761719 24.191406 74.644531 24.300781 75.640625 C 26.042969 91.703125 33.527344 136.25 56.730469 167.066406 C 56.730469 167.066406 59.972656 170.578125 66.460938 171.570313 C 72.949219 172.578125 81.210938 171.402344 84.917969 169.570313 C 92.53125 165.8125 96.890625 152.789063 96.890625 152.789063 "/>
</clipPath>
<clipPath id="clip32">
  <path d="M 27 75 L 64 75 L 64 171 L 27 171 Z M 27 75 "/>
</clipPath>
<clipPath id="clip33">
  <path d="M 96.890625 152.789063 C 96.398438 155.046875 91.15625 164.058594 88.167969 166.5625 C 85.167969 169.066406 82.175781 169.066406 85.167969 165.066406 C 88.167969 161.050781 93.398438 145.015625 93.152344 145.273438 C 92.902344 145.53125 88.914063 154.296875 83.921875 162.054688 C 78.929688 169.828125 70.195313 168.820313 68.703125 166.5625 C 55.996094 147.425781 54.03125 101.660156 50.773438 82.039063 C 50.273438 79.03125 42.03125 80.871094 40.773438 80.371094 C 39.527344 79.867188 29.414063 80.53125 25.792969 76.761719 C 25.792969 76.761719 24.191406 74.644531 24.300781 75.640625 C 26.042969 91.703125 33.527344 136.25 56.730469 167.066406 C 56.730469 167.066406 59.972656 170.578125 66.460938 171.570313 C 72.949219 172.578125 81.210938 171.402344 84.917969 169.570313 C 92.53125 165.8125 96.890625 152.789063 96.890625 152.789063 "/>
</clipPath>
<clipPath id="clip34">
  <path d="M 26 75 L 64 75 L 64 171 L 26 171 Z M 26 75 "/>
</clipPath>
<clipPath id="clip35">
  <path d="M 96.890625 152.789063 C 96.398438 155.046875 91.15625 164.058594 88.167969 166.5625 C 85.167969 169.066406 82.175781 169.066406 85.167969 165.066406 C 88.167969 161.050781 93.398438 145.015625 93.152344 145.273438 C 92.902344 145.53125 88.914063 154.296875 83.921875 162.054688 C 78.929688 169.828125 70.195313 168.820313 68.703125 166.5625 C 55.996094 147.425781 54.03125 101.660156 50.773438 82.039063 C 50.273438 79.03125 42.03125 80.871094 40.773438 80.371094 C 39.527344 79.867188 29.414063 80.53125 25.792969 76.761719 C 25.792969 76.761719 24.191406 74.644531 24.300781 75.640625 C 26.042969 91.703125 33.527344 136.25 56.730469 167.066406 C 56.730469 167.066406 59.972656 170.578125 66.460938 171.570313 C 72.949219 172.578125 81.210938 171.402344 84.917969 169.570313 C 92.53125 165.8125 96.890625 152.789063 96.890625 152.789063 "/>
</clipPath>
<clipPath id="clip36">
  <path d="M 25 75 L 63 75 L 63 172 L 25 172 Z M 25 75 "/>
</clipPath>
<clipPath id="clip37">
  <path d="M 96.890625 152.789063 C 96.398438 155.046875 91.15625 164.058594 88.167969 166.5625 C 85.167969 169.066406 82.175781 169.066406 85.167969 165.066406 C 88.167969 161.050781 93.398438 145.015625 93.152344 145.273438 C 92.902344 145.53125 88.914063 154.296875 83.921875 162.054688 C 78.929688 169.828125 70.195313 168.820313 68.703125 166.5625 C 55.996094 147.425781 54.03125 101.660156 50.773438 82.039063 C 50.273438 79.03125 42.03125 80.871094 40.773438 80.371094 C 39.527344 79.867188 29.414063 80.53125 25.792969 76.761719 C 25.792969 76.761719 24.191406 74.644531 24.300781 75.640625 C 26.042969 91.703125 33.527344 136.25 56.730469 167.066406 C 56.730469 167.066406 59.972656 170.578125 66.460938 171.570313 C 72.949219 172.578125 81.210938 171.402344 84.917969 169.570313 C 92.53125 165.8125 96.890625 152.789063 96.890625 152.789063 "/>
</clipPath>
<clipPath id="clip38">
  <path d="M 26 75 L 64 75 L 64 171 L 26 171 Z M 26 75 "/>
</clipPath>
<clipPath id="clip39">
  <path d="M 96.890625 152.789063 C 96.398438 155.046875 91.15625 164.058594 88.167969 166.5625 C 85.167969 169.066406 82.175781 169.066406 85.167969 165.066406 C 88.167969 161.050781 93.398438 145.015625 93.152344 145.273438 C 92.902344 145.53125 88.914063 154.296875 83.921875 162.054688 C 78.929688 169.828125 70.195313 168.820313 68.703125 166.5625 C 55.996094 147.425781 54.03125 101.660156 50.773438 82.039063 C 50.273438 79.03125 42.03125 80.871094 40.773438 80.371094 C 39.527344 79.867188 29.414063 80.53125 25.792969 76.761719 C 25.792969 76.761719 24.191406 74.644531 24.300781 75.640625 C 26.042969 91.703125 33.527344 136.25 56.730469 167.066406 C 56.730469 167.066406 59.972656 170.578125 66.460938 171.570313 C 72.949219 172.578125 81.210938 171.402344 84.917969 169.570313 C 92.53125 165.8125 96.890625 152.789063 96.890625 152.789063 "/>
</clipPath>
<clipPath id="clip40">
  <path d="M 25 75 L 63 75 L 63 171 L 25 171 Z M 25 75 "/>
</clipPath>
<clipPath id="clip41">
  <path d="M 96.890625 152.789063 C 96.398438 155.046875 91.15625 164.058594 88.167969 166.5625 C 85.167969 169.066406 82.175781 169.066406 85.167969 165.066406 C 88.167969 161.050781 93.398438 145.015625 93.152344 145.273438 C 92.902344 145.53125 88.914063 154.296875 83.921875 162.054688 C 78.929688 169.828125 70.195313 168.820313 68.703125 166.5625 C 55.996094 147.425781 54.03125 101.660156 50.773438 82.039063 C 50.273438 79.03125 42.03125 80.871094 40.773438 80.371094 C 39.527344 79.867188 29.414063 80.53125 25.792969 76.761719 C 25.792969 76.761719 24.191406 74.644531 24.300781 75.640625 C 26.042969 91.703125 33.527344 136.25 56.730469 167.066406 C 56.730469 167.066406 59.972656 170.578125 66.460938 171.570313 C 72.949219 172.578125 81.210938 171.402344 84.917969 169.570313 C 92.53125 165.8125 96.890625 152.789063 96.890625 152.789063 "/>
</clipPath>
<clipPath id="clip42">
  <path d="M 25 75 L 62 75 L 62 171 L 25 171 Z M 25 75 "/>
</clipPath>
<clipPath id="clip43">
  <path d="M 96.890625 152.789063 C 96.398438 155.046875 91.15625 164.058594 88.167969 166.5625 C 85.167969 169.066406 82.175781 169.066406 85.167969 165.066406 C 88.167969 161.050781 93.398438 145.015625 93.152344 145.273438 C 92.902344 145.53125 88.914063 154.296875 83.921875 162.054688 C 78.929688 169.828125 70.195313 168.820313 68.703125 166.5625 C 55.996094 147.425781 54.03125 101.660156 50.773438 82.039063 C 50.273438 79.03125 42.03125 80.871094 40.773438 80.371094 C 39.527344 79.867188 29.414063 80.53125 25.792969 76.761719 C 25.792969 76.761719 24.191406 74.644531 24.300781 75.640625 C 26.042969 91.703125 33.527344 136.25 56.730469 167.066406 C 56.730469 167.066406 59.972656 170.578125 66.460938 171.570313 C 72.949219 172.578125 81.210938 171.402344 84.917969 169.570313 C 92.53125 165.8125 96.890625 152.789063 96.890625 152.789063 "/>
</clipPath>
<clipPath id="clip44">
  <path d="M 0 1 L 146 1 L 146 201.320313 L 0 201.320313 Z M 0 1 "/>
</clipPath>
</defs>
<g id="surface1">
<path style=" stroke:none;fill-rule:nonzero;fill:rgb(100%,100%,100%);fill-opacity:1;" d="M 117.402344 132.699219 C 134.617188 103.140625 145.097656 59.058594 145.34375 33.007813 C 145.34375 33.007813 145.34375 24.742188 145.097656 21.734375 C 143.660156 4.472656 129.378906 0.195313 122.894531 1.449219 C 112.84375 3.386719 111.863281 11.3125 111.167969 16.226563 C 110.421875 21.488281 115.160156 37.769531 115.410156 40.523438 C 115.585938 42.496094 114.234375 43.691406 113.449219 44.21875 C 110.175781 43.59375 93.101563 43.132813 72.550781 43.148438 C 53.140625 43.164063 36.96875 43.609375 32.621094 44.183594 C 31.921875 43.535156 31.210938 42.523438 31.320313 41.074219 C 31.53125 38.3125 36.042969 21.96875 35.222656 16.71875 C 34.449219 11.816406 33.367188 3.90625 23.289063 2.105469 C 16.785156 0.945313 2.5625 5.414063 1.375 22.707031 C 1.167969 25.714844 1.28125 33.980469 1.28125 33.980469 C 1.894531 60.023438 12.988281 103.960938 30.613281 133.261719 C 30.613281 133.261719 40.839844 150.660156 47.160156 156.582031 L 45.191406 152 C 48.632813 158.921875 52.5 165.269531 56.824219 170.539063 C 58.441406 171.980469 60.71875 173.191406 63.375 174.105469 C 53.378906 175.375 45.773438 178.078125 43.203125 181.46875 C 39.875 183.34375 37.945313 185.511719 37.980469 187.816406 C 38.078125 194.632813 55.023438 200.011719 75.828125 199.824219 C 96.628906 199.632813 113.410156 193.949219 113.3125 187.136719 C 113.273438 184.863281 111.34375 182.761719 108.050781 180.960938 C 105.222656 177.484375 96.789063 174.75 85.914063 173.730469 C 88.304688 172.808594 90.355469 171.640625 91.839844 170.277344 C 95.863281 165.238281 99.453125 159.21875 102.65625 152.675781 L 101.1875 156.242188 C 107.425781 150.230469 117.402344 132.699219 117.402344 132.699219 Z M 36.070313 130.683594 C 18.441406 101.375 7.347656 57.4375 6.734375 31.398438 C 6.324219 13.871094 18.152344 9.445313 25.929688 12.339844 C 33.699219 15.238281 30.777344 23.742188 28.886719 27.578125 C 23.15625 39.175781 24.246094 43.679688 25.792969 47.410156 C 27.050781 50.4375 33.863281 53.355469 34.472656 59.367188 C 33.980469 59.617188 31.5625 60.773438 29.339844 60.441406 C 29.339844 60.441406 25.949219 63.363281 24.96875 65.316406 C 23.898438 67.46875 23.742188 69.226563 23.894531 70.558594 L 23.082031 70.566406 C 23.191406 78.152344 27.863281 107.941406 38.035156 135.285156 Z M 29.136719 70.519531 C 35.679688 65.554688 38.960938 59.351563 39.691406 56.425781 L 38.441406 56.300781 C 38.441406 56.300781 38.40625 56.46875 38.347656 56.714844 C 38.65625 55.117188 38.757813 53.1875 38.453125 51.488281 L 33.871094 45.042969 C 33.871094 45.042969 33.761719 44.988281 33.613281 44.910156 C 39.144531 45.425781 54.675781 45.789063 72.949219 45.773438 C 92.199219 45.753906 108.257813 45.320313 112.761719 44.753906 L 108.421875 51.042969 C 108.132813 52.808594 108.273438 54.816406 108.640625 56.445313 L 107.425781 57.054688 C 107.425781 57.054688 109.796875 62.316406 113.539063 63.441406 C 116.574219 64.355469 120.953125 67.480469 122.789063 69.835938 Z M 35.226563 60.210938 L 35.238281 60.214844 Z M 35.699219 60.253906 C 36.230469 60.253906 36.835938 60.113281 37.292969 59.542969 L 37.070313 59.808594 C 36.65625 60.160156 36.164063 60.261719 35.699219 60.253906 Z M 37.34375 59.480469 L 37.347656 59.472656 Z M 112.417969 59.558594 L 112.421875 59.484375 L 112.417969 59.683594 C 112.417969 59.683594 111.183594 60.078125 110.425781 59.597656 C 111.363281 59.984375 112.417969 59.558594 112.417969 59.558594 Z M 124.140625 69.828125 L 123.796875 69.832031 C 123.898438 68.070313 123.761719 65.152344 122.015625 63.316406 C 119.402344 60.5625 116.53125 58.058594 113.164063 56.300781 C 113.164063 56.300781 112.914063 56.792969 112.699219 57.503906 C 114.015625 52.367188 119.902344 49.59375 121.019531 46.785156 C 122.519531 43.03125 123.542969 38.503906 117.652344 26.996094 C 115.703125 23.191406 112.664063 14.730469 120.398438 11.722656 C 128.128906 8.714844 140.023438 12.972656 139.855469 30.503906 C 139.605469 56.554688 129.128906 100.636719 111.917969 130.191406 L 110.621094 133.335938 C 120.042969 106.253906 124.140625 77.289063 124.140625 69.828125 "/>
<g clip-path="url(#clip1)" clip-rule="nonzero">
<path style="fill:none;stroke-width:25;stroke-linecap:round;stroke-linejoin:round;stroke:rgb(100%,100%,100%);stroke-opacity:1;stroke-miterlimit:4;" d="M 1174.023438 686.207813 C 1346.171875 981.79375 1450.976563 1422.614063 1453.4375 1683.121875 C 1453.4375 1683.121875 1453.4375 1765.778125 1450.976563 1795.85625 C 1436.601563 1968.473438 1293.789063 2011.246875 1228.945313 1998.707813 C 1128.4375 1979.332813 1118.632813 1900.075 1111.679688 1850.934375 C 1104.21875 1798.317188 1151.601563 1635.504688 1154.101563 1607.965625 C 1155.859375 1588.239063 1142.34375 1576.285938 1134.492188 1571.0125 C 1101.757813 1577.2625 931.015625 1581.871875 725.507813 1581.715625 C 531.40625 1581.559375 369.6875 1577.10625 326.210938 1571.364063 C 319.21875 1577.848438 312.109375 1587.965625 313.203125 1602.457813 C 315.3125 1630.075 360.429688 1793.5125 352.226563 1846.0125 C 344.492188 1895.035938 333.671875 1974.1375 232.890625 1992.145313 C 167.851563 2003.746875 25.625 1959.059375 13.75 1786.129688 C 11.679688 1756.051563 12.8125 1673.395313 12.8125 1673.395313 C 18.945313 1412.965625 129.882813 973.590625 306.132813 680.582813 C 306.132813 680.582813 408.398438 506.598438 471.601563 447.379688 L 451.914063 493.2 C 486.328125 423.98125 525 360.504688 568.242188 307.809375 C 584.414063 293.395313 607.1875 281.285938 633.75 272.145313 C 533.789063 259.45 457.734375 232.41875 432.03125 198.5125 C 398.75 179.7625 379.453125 158.082813 379.804688 135.035938 C 380.78125 66.871875 550.234375 13.082813 758.28125 14.957813 C 966.289063 16.871875 1134.101563 73.707813 1133.125 141.832813 C 1132.734375 164.567188 1113.4375 185.582813 1080.507813 203.590625 C 1052.226563 238.35625 967.890625 265.7 859.140625 275.895313 C 883.046875 285.114063 903.554688 296.79375 918.398438 310.426563 C 958.632813 360.817188 994.53125 421.0125 1026.5625 486.442188 L 1011.875 450.778125 C 1074.257813 510.895313 1174.023438 686.207813 1174.023438 686.207813 Z M 360.703125 706.364063 C 184.414063 999.45 73.476563 1438.825 67.34375 1699.215625 C 63.242188 1874.489063 181.523438 1918.746875 259.296875 1889.801563 C 336.992188 1860.817188 307.773438 1775.778125 288.867188 1737.41875 C 231.5625 1621.442188 242.460938 1576.403125 257.929688 1539.098438 C 270.507813 1508.825 338.632813 1479.645313 344.726563 1419.528125 C 339.804688 1417.028125 315.625 1405.465625 293.398438 1408.785938 C 293.398438 1408.785938 259.492188 1379.567188 249.6875 1360.035938 C 238.984375 1338.5125 237.421875 1320.934375 238.945313 1307.614063 L 230.820313 1307.535938 C 231.914063 1231.676563 278.632813 933.785938 380.351563 660.348438 Z M 291.367188 1308.004688 C 356.796875 1357.653125 389.609375 1419.684375 396.914063 1448.942188 L 384.414063 1450.192188 C 384.414063 1450.192188 384.0625 1448.5125 383.476563 1446.051563 C 386.5625 1462.028125 387.578125 1481.325 384.53125 1498.317188 L 338.710938 1562.770313 C 338.710938 1562.770313 337.617188 1563.317188 336.132813 1564.098438 C 391.445313 1558.942188 546.757813 1555.309375 729.492188 1555.465625 C 921.992188 1555.660938 1082.578125 1559.996875 1127.617188 1565.660938 L 1084.21875 1502.770313 C 1081.328125 1485.114063 1082.734375 1465.035938 1086.40625 1448.746875 L 1074.257813 1442.653125 C 1074.257813 1442.653125 1097.96875 1390.035938 1135.390625 1378.785938 C 1165.742188 1369.645313 1209.53125 1338.395313 1227.890625 1314.840625 Z M 352.265625 1411.090625 L 352.382813 1411.051563 Z M 356.992188 1410.660938 C 362.304688 1410.660938 368.359375 1412.067188 372.929688 1417.770313 L 370.703125 1415.114063 C 366.5625 1411.598438 361.640625 1410.582813 356.992188 1410.660938 Z M 373.4375 1418.395313 L 373.476563 1418.473438 Z M 1124.179688 1417.614063 L 1124.21875 1418.35625 L 1124.179688 1416.364063 C 1124.179688 1416.364063 1111.835938 1412.41875 1104.257813 1417.223438 C 1113.632813 1413.35625 1124.179688 1417.614063 1124.179688 1417.614063 Z M 1241.40625 1314.91875 L 1237.96875 1314.879688 C 1238.984375 1332.496875 1237.617188 1361.676563 1220.15625 1380.035938 C 1194.023438 1407.575 1165.3125 1432.614063 1131.640625 1450.192188 C 1131.640625 1450.192188 1129.140625 1445.270313 1126.992188 1438.160938 C 1140.15625 1489.528125 1199.023438 1517.2625 1210.195313 1545.348438 C 1225.195313 1582.8875 1235.429688 1628.160938 1176.523438 1743.239063 C 1157.03125 1781.285938 1126.640625 1865.895313 1203.984375 1895.973438 C 1281.289063 1926.051563 1400.234375 1883.473438 1398.554688 1708.160938 C 1396.054688 1447.653125 1291.289063 1006.832813 1119.179688 711.285938 L 1106.210938 679.840625 C 1200.429688 950.660938 1241.40625 1240.309375 1241.40625 1314.91875 Z M 1241.40625 1314.91875 " transform="matrix(0.1,0,0,-0.1,0,201.32)"/>
</g>
<path style=" stroke:none;fill-rule:nonzero;fill:rgb(77.999878%,84.698486%,93.699646%);fill-opacity:1;" d="M 75.460938 175.128906 C 54.660156 175.320313 37.878906 181.003906 37.980469 187.816406 C 38.078125 194.632813 55.023438 200.011719 75.828125 199.824219 C 96.628906 199.632813 113.410156 193.949219 113.3125 187.132813 C 113.207031 180.316406 96.265625 174.941406 75.460938 175.128906 "/>
<path style=" stroke:none;fill-rule:nonzero;fill:rgb(100%,100%,100%);fill-opacity:1;" d="M 75.488281 175.945313 C 56.085938 176.117188 40.429688 181.171875 40.523438 187.253906 C 40.617188 193.324219 56.421875 198.109375 75.828125 197.941406 C 95.230469 197.777344 110.890625 192.714844 110.792969 186.640625 C 110.703125 180.558594 93.5625 175.792969 75.488281 175.945313 "/>
<path style=" stroke:none;fill-rule:nonzero;fill:rgb(83.099365%,87.799072%,95.298767%);fill-opacity:1;" d="M 75.507813 173.300781 C 57.042969 173.460938 42.144531 178.082031 42.230469 184.054688 C 42.324219 189.832031 57.363281 194.390625 75.832031 194.234375 C 94.296875 194.074219 109.195313 189.257813 109.105469 183.472656 C 109.019531 177.695313 93.972656 173.136719 75.507813 173.300781 "/>
<path style=" stroke:none;fill-rule:nonzero;fill:rgb(38.798523%,62.399292%,83.499146%);fill-opacity:1;" d="M 109.105469 183.472656 C 109.195313 189.257813 94.296875 194.074219 75.832031 194.234375 C 57.363281 194.390625 42.324219 189.832031 42.230469 184.054688 L 42.398438 184.707031 C 43.148438 188.867188 48.511719 191.300781 50.503906 191.804688 C 52.5 192.308594 55.125 193.527344 51.128906 193.238281 C 47.140625 192.953125 43.394531 189.367188 42.148438 187.933594 C 40.902344 186.5 40.652344 188.226563 40.652344 188.226563 L 40.652344 188.148438 C 42.203125 193.785156 57.390625 198.101563 75.828125 197.941406 C 95.230469 197.777344 110.890625 192.714844 110.792969 186.640625 C 110.792969 186.640625 110.628906 184.742188 109.507813 183.738281 L 109.105469 183.472656 "/>
<path style=" stroke:none;fill-rule:nonzero;fill:rgb(100%,100%,100%);fill-opacity:1;" d="M 62.355469 196.109375 C 65.132813 195.507813 72.832031 196.824219 78.195313 196.25 C 83.5625 195.671875 83.933594 194.671875 83.933594 194.671875 C 83.933594 194.671875 89.300781 194.03125 92.542969 193.453125 C 95.789063 192.882813 103.375 191.253906 107.636719 187.574219 C 108.140625 187.144531 109.257813 185.425781 109.257813 185.425781 C 109.257813 185.425781 109.757813 185.132813 109.757813 186.214844 C 109.757813 187.289063 107.867188 189.421875 102.398438 191.519531 C 99.402344 192.664063 88.304688 195.175781 85.808594 196.03125 C 83.3125 196.898438 78.550781 198.34375 65.472656 197.179688 C 62.230469 196.898438 61.355469 196.320313 62.355469 196.109375 "/>
<path style=" stroke:none;fill-rule:nonzero;fill:rgb(58.399963%,72.499084%,88.598633%);fill-opacity:1;" d="M 74.453125 158.550781 C 64.394531 158.707031 56.277344 163.382813 56.324219 168.988281 C 56.371094 174.601563 64.566406 179.027344 74.632813 178.871094 C 84.691406 178.714844 92.8125 174.042969 92.761719 168.433594 C 92.714844 162.816406 84.515625 158.394531 74.453125 158.550781 "/>
<path style=" stroke:none;fill-rule:nonzero;fill:rgb(100%,100%,100%);fill-opacity:1;" d="M 54.121094 181.980469 C 49.328125 182.738281 46.265625 182.699219 46.515625 181.914063 C 46.761719 181.121094 48.511719 179.546875 45.765625 180.335938 C 43.023438 181.121094 42.230469 184.054688 42.230469 184.054688 C 42.3125 189.292969 54.664063 193.519531 70.71875 194.152344 C 70.71875 194.152344 76.949219 194.097656 78.449219 193.308594 C 79.96875 192.507813 76.703125 193.023438 74.203125 191.300781 C 71.710938 189.585938 74.5625 182.6875 73.582031 179.617188 C 73.421875 179.105469 69.089844 181.839844 69.214844 183.921875 C 69.339844 185.996094 61.980469 191.449219 56.867188 190.65625 C 48.894531 189.429688 56.621094 183.488281 59.613281 180.980469 C 62.605469 178.46875 61.195313 178.144531 60.984375 178.542969 C 60.113281 180.191406 55.496094 181.765625 54.121094 181.980469 "/>
<path style=" stroke:none;fill-rule:nonzero;fill:rgb(100%,100%,100%);fill-opacity:1;" d="M 94.039063 179.617188 C 90.3125 178.390625 93.167969 178.613281 96.660156 179.980469 C 100.15625 181.339844 101.148438 179.691406 98.78125 177.542969 L 98.78125 177.324219 C 98.78125 177.324219 95.789063 176.03125 98.28125 176.609375 C 100.777344 177.179688 105.023438 178.902344 106.761719 180.191406 C 108.511719 181.480469 108.636719 184.425781 108.140625 184.566406 C 108.140625 184.566406 107.636719 186.710938 104.019531 188.507813 C 100.402344 190.300781 98.53125 190.945313 99.65625 190.230469 C 100.777344 189.511719 104.058594 186.246094 101.898438 184.207031 C 100.15625 182.554688 94.914063 179.902344 94.039063 179.617188 "/>
<path style=" stroke:none;fill-rule:nonzero;fill:rgb(100%,100%,100%);fill-opacity:1;" d="M 84.84375 178.660156 C 85.726563 182.394531 88.839844 186.457031 90.585938 188.058594 C 92.328125 189.660156 87.96875 184.855469 88.960938 183.570313 C 89.960938 182.292969 92.085938 180.152344 93.207031 180.578125 C 94.324219 181.007813 91.082031 178.226563 89.460938 177.269531 C 87.839844 176.304688 87.96875 177.160156 87.21875 177.589844 C 86.46875 178.015625 84.84375 178.660156 84.84375 178.660156 "/>
<path style=" stroke:none;fill-rule:nonzero;fill:rgb(100%,100%,100%);fill-opacity:1;" d="M 47.160156 156.582031 C 40.839844 150.660156 30.613281 133.261719 30.613281 133.261719 C 12.988281 103.960938 1.894531 60.023438 1.28125 33.980469 C 1.28125 33.980469 1.167969 25.714844 1.375 22.707031 C 2.5625 5.414063 16.785156 0.945313 23.289063 2.105469 C 33.367188 3.90625 34.449219 11.816406 35.222656 16.71875 C 36.042969 21.96875 31.53125 38.3125 31.320313 41.074219 C 31.105469 43.828125 33.871094 45.042969 33.871094 45.042969 L 38.453125 51.488281 C 38.992188 54.488281 38.300781 58.257813 37.320313 59.523438 C 36.335938 60.789063 34.578125 60.066406 34.578125 60.066406 C 34.488281 53.554688 27.101563 50.558594 25.792969 47.410156 C 24.246094 43.679688 23.15625 39.175781 28.886719 27.578125 C 30.777344 23.742188 33.699219 15.238281 25.929688 12.339844 C 18.152344 9.445313 6.324219 13.871094 6.734375 31.398438 C 7.347656 57.4375 18.441406 101.375 36.070313 130.683594 "/>
<path style=" stroke:none;fill-rule:nonzero;fill:rgb(100%,98.399353%,79.998779%);fill-opacity:1;" d="M 47.160156 156.582031 C 40.839844 150.660156 30.613281 133.261719 30.613281 133.261719 C 12.988281 103.960938 1.894531 60.023438 1.28125 33.980469 C 1.28125 33.980469 1.167969 25.714844 1.375 22.707031 C 1.902344 15 5.027344 9.839844 8.898438 6.589844 L 8.953125 6.460938 C 5.871094 10.191406 3.804688 14.625 3.410156 16.664063 C 0.824219 29.925781 3.84375 47.46875 3.84375 47.46875 C 3.289063 43.972656 3.148438 42.722656 3.078125 37.714844 C 2.808594 18.675781 8.859375 13.832031 10.941406 11.171875 C 13.027344 8.511719 20.988281 7.023438 20.988281 7.023438 C 17.851563 5.816406 9.675781 9.8125 9.675781 9.8125 C 12.113281 6.023438 23.0625 2.457031 28.980469 7.789063 C 33.914063 12.230469 34.039063 21.492188 34.039063 21.492188 L 35.035156 21.101563 L 35.140625 21.117188 C 34.378906 28.082031 31.488281 38.875 31.320313 41.074219 C 31.105469 43.828125 33.871094 45.042969 33.871094 45.042969 L 38.453125 51.488281 C 38.992188 54.488281 38.300781 58.257813 37.320313 59.523438 C 36.335938 60.789063 34.578125 60.066406 34.578125 60.066406 C 34.488281 53.554688 27.101563 50.558594 25.792969 47.410156 C 24.246094 43.679688 23.15625 39.175781 28.886719 27.578125 C 30.777344 23.742188 33.699219 15.238281 25.929688 12.339844 C 18.152344 9.445313 6.324219 13.871094 6.734375 31.398438 C 7.347656 57.4375 18.441406 101.375 36.070313 130.683594 "/>
<path style=" stroke:none;fill-rule:nonzero;fill:rgb(77.999878%,84.698486%,93.699646%);fill-opacity:1;" d="M 36.070313 130.683594 C 18.441406 101.375 7.347656 57.4375 6.734375 31.398438 C 6.324219 13.871094 18.152344 9.445313 25.929688 12.339844 C 33.699219 15.238281 30.777344 23.742188 28.886719 27.578125 C 23.15625 39.175781 24.246094 43.679688 25.792969 47.410156 C 27.101563 50.558594 34.488281 53.554688 34.578125 60.066406 C 34.578125 60.066406 36.335938 60.789063 37.320313 59.523438 C 38.300781 58.257813 38.992188 54.488281 38.453125 51.488281 L 33.871094 45.042969 C 33.871094 45.042969 31.105469 43.828125 31.320313 41.074219 C 31.53125 38.3125 36.042969 21.96875 35.222656 16.71875 C 34.449219 11.816406 33.367188 3.90625 23.289063 2.105469 C 23.289063 2.105469 21.351563 1.824219 19.109375 2.703125 C 17.132813 3.472656 18.113281 5.332031 18.984375 5.457031 C 21.679688 5.84375 19.855469 6.585938 19.855469 6.585938 C 17.113281 6.585938 13.867188 7.585938 11.25 9.714844 C 3.019531 16.40625 2.144531 39.894531 3.640625 55.925781 L 3.964844 58.195313 C 8.324219 82.558594 17.71875 111.824219 30.613281 133.261719 C 30.613281 133.261719 40.839844 150.660156 47.160156 156.582031 "/>
<path style=" stroke:none;fill-rule:nonzero;fill:rgb(38.798523%,62.399292%,83.499146%);fill-opacity:1;" d="M 25.929688 12.339844 C 18.152344 9.445313 6.324219 13.871094 6.734375 31.398438 C 6.324219 13.871094 18.152344 9.445313 25.929688 12.339844 C 33.699219 15.238281 30.777344 23.742188 28.886719 27.578125 C 23.15625 39.175781 24.246094 43.679688 25.792969 47.410156 C 27.101563 50.558594 34.488281 53.554688 34.578125 60.066406 C 34.578125 60.066406 36.335938 60.789063 37.320313 59.523438 C 38.058594 58.566406 38.640625 56.160156 38.640625 53.742188 L 37.734375 53.507813 C 29.4375 49.117188 27.089844 41.636719 30.460938 33.070313 C 33.832031 24.507813 35.457031 15.960938 31.902344 11.757813 C 28.355469 7.546875 22.742188 7.5 19.261719 8.429688 L 15.792969 9.980469 C 15.792969 9.980469 12.324219 11.90625 9.394531 16.457031 C 6.464844 21.007813 6.734375 31.398438 6.734375 31.398438 C 6.324219 13.871094 18.152344 9.445313 25.929688 12.339844 "/>
<path style=" stroke:none;fill-rule:nonzero;fill:rgb(100%,100%,100%);fill-opacity:1;" d="M 37.945313 53.292969 C 34.078125 51.542969 29.835938 48.539063 29.339844 43.652344 C 28.835938 38.769531 29.214844 38.644531 30.707031 38.144531 C 30.707031 38.144531 34.324219 23.503906 34.324219 21.488281 C 34.324219 18.730469 34.324219 15.097656 33.453125 12.34375 C 33.453125 12.34375 32.136719 7.460938 29.765625 5.710938 C 27.402344 3.953125 23.289063 2.105469 23.289063 2.105469 C 33.367188 3.90625 34.449219 11.816406 35.222656 16.71875 C 36.042969 21.96875 31.53125 38.3125 31.320313 41.074219 C 31.105469 43.828125 33.871094 45.042969 33.871094 45.042969 L 38.453125 51.488281 C 38.554688 52.070313 38.617188 52.683594 38.636719 53.292969 L 37.945313 53.292969 "/>
<path style=" stroke:none;fill-rule:nonzero;fill:rgb(100%,100%,100%);fill-opacity:1;" d="M 10.332031 65.542969 C 12.664063 80.539063 24.6875 110.804688 24.6875 110.804688 L 16.433594 91.507813 L 15.691406 91.894531 C 15.691406 91.894531 7.898438 69.960938 5.589844 47.945313 C 3.289063 25.9375 7.914063 17.914063 12.246094 15.164063 L 12.261719 15.042969 C 8.902344 18.136719 6.546875 23.402344 6.734375 31.398438 C 6.734375 31.398438 7.015625 42.792969 7.730469 49.421875 C 8.449219 56.050781 10.332031 65.542969 10.332031 65.542969 "/>
<path style=" stroke:none;fill-rule:nonzero;fill:rgb(38.798523%,62.399292%,83.499146%);fill-opacity:1;" d="M 47.070313 155.261719 C 38.613281 146.914063 20.222656 113.238281 15.085938 93.402344 L 15.707031 93.269531 C 17.546875 99.757813 24.152344 117.324219 31.167969 128.125 L 31.902344 127.488281 L 37.375 134.921875 C 37.375 134.921875 39.304688 138.542969 40.726563 142.152344 C 42.152344 145.765625 47.070313 155.261719 47.070313 155.261719 "/>
<path style=" stroke:none;fill-rule:nonzero;fill:rgb(100%,100%,100%);fill-opacity:1;" d="M 101.1875 156.242188 C 107.425781 150.230469 117.402344 132.699219 117.402344 132.699219 C 134.617188 103.140625 145.097656 59.058594 145.34375 33.007813 C 145.34375 33.007813 145.34375 24.742188 145.097656 21.734375 C 143.660156 4.472656 129.378906 0.195313 122.894531 1.449219 C 112.84375 3.386719 111.863281 11.3125 111.167969 16.226563 C 110.421875 21.488281 115.160156 37.769531 115.410156 40.523438 C 115.65625 43.277344 112.914063 44.53125 112.914063 44.53125 L 108.421875 51.042969 C 107.921875 54.046875 108.671875 57.808594 109.671875 59.058594 C 110.667969 60.3125 112.417969 59.558594 112.417969 59.558594 C 112.417969 53.042969 119.761719 49.949219 121.019531 46.785156 C 122.519531 43.03125 123.542969 38.503906 117.652344 26.996094 C 115.703125 23.191406 112.664063 14.730469 120.398438 11.722656 C 128.128906 8.714844 140.023438 12.972656 139.855469 30.503906 C 139.605469 56.554688 129.128906 100.636719 111.917969 130.191406 "/>
<path style=" stroke:none;fill-rule:nonzero;fill:rgb(77.999878%,84.698486%,93.699646%);fill-opacity:1;" d="M 101.1875 156.242188 C 107.425781 150.230469 117.402344 132.699219 117.402344 132.699219 C 134.617188 103.140625 145.097656 59.058594 145.34375 33.007813 C 145.34375 33.007813 145.34375 24.742188 145.097656 21.734375 C 144.453125 14.039063 141.261719 8.925781 137.34375 5.726563 L 137.289063 5.601563 C 140.425781 9.289063 142.546875 13.691406 142.976563 15.726563 C 145.746094 28.949219 142.976563 46.535156 142.976563 46.535156 C 143.472656 43.03125 143.601563 41.777344 143.601563 36.765625 C 143.601563 17.730469 137.488281 12.972656 135.367188 10.34375 C 133.246094 7.710938 125.261719 6.335938 125.261719 6.335938 C 128.382813 5.082031 136.613281 8.960938 136.613281 8.960938 C 134.121094 5.207031 123.121094 1.792969 117.277344 7.210938 C 112.417969 11.722656 112.417969 20.988281 112.417969 20.988281 L 111.417969 20.609375 L 111.3125 20.621094 C 112.164063 27.578125 115.210938 38.332031 115.410156 40.523438 C 115.65625 43.277344 112.914063 44.53125 112.914063 44.53125 L 108.421875 51.042969 C 107.921875 54.046875 108.671875 57.808594 109.671875 59.058594 C 110.667969 60.3125 112.417969 59.558594 112.417969 59.558594 C 112.417969 53.042969 119.761719 49.949219 121.019531 46.785156 C 122.519531 43.03125 123.542969 38.503906 117.652344 26.996094 C 115.703125 23.191406 112.664063 14.730469 120.398438 11.722656 C 128.128906 8.714844 140.023438 12.972656 139.855469 30.503906 C 139.605469 56.554688 129.128906 100.636719 111.917969 130.191406 "/>
<path style=" stroke:none;fill-rule:nonzero;fill:rgb(58.399963%,72.499084%,88.598633%);fill-opacity:1;" d="M 112.164063 20.988281 L 111.417969 20.609375 L 111.3125 20.621094 C 112.164063 27.578125 115.210938 38.332031 115.410156 40.523438 C 115.65625 43.277344 112.914063 44.53125 112.914063 44.53125 L 108.421875 51.042969 C 107.921875 54.046875 108.671875 57.808594 109.671875 59.058594 C 110.667969 60.3125 112.417969 59.558594 112.417969 59.558594 C 112.417969 53.042969 119.761719 49.949219 121.019531 46.785156 C 122.519531 43.03125 123.542969 38.011719 117.402344 26.996094 L 112.164063 20.988281 "/>
<path style=" stroke:none;fill-rule:nonzero;fill:rgb(100%,100%,100%);fill-opacity:1;" d="M 136.738281 64.691406 C 134.617188 79.722656 123.015625 110.152344 123.015625 110.152344 L 131 90.746094 L 131.75 91.117188 C 131.75 91.117188 139.234375 69.078125 141.226563 47.035156 C 143.226563 24.988281 138.484375 17.039063 134.121094 14.347656 L 134.101563 14.230469 C 137.503906 17.273438 139.933594 22.511719 139.855469 30.503906 C 139.855469 30.503906 139.730469 41.902344 139.109375 48.539063 C 138.484375 55.175781 136.738281 64.691406 136.738281 64.691406 "/>
<path style=" stroke:none;fill-rule:nonzero;fill:rgb(17.599487%,55.299377%,79.998779%);fill-opacity:1;" d="M 120.398438 11.722656 C 128.128906 8.714844 140.023438 12.972656 139.855469 30.503906 C 140.023438 12.972656 128.128906 8.714844 120.398438 11.722656 C 112.664063 14.730469 115.703125 23.191406 117.652344 26.996094 C 123.542969 38.503906 122.519531 43.03125 121.019531 46.785156 C 119.761719 49.949219 112.417969 53.042969 112.417969 59.558594 C 112.417969 59.558594 110.667969 60.3125 109.671875 59.058594 C 108.910156 58.105469 108.296875 55.714844 108.261719 53.304688 L 109.167969 53.042969 C 117.402344 48.539063 119.644531 41.023438 116.15625 32.507813 C 112.664063 23.988281 110.917969 15.472656 114.414063 11.21875 C 117.902344 6.964844 123.515625 6.832031 127.007813 7.710938 L 130.503906 9.214844 C 130.5 9.214844 133.996094 11.09375 136.988281 15.601563 C 139.980469 20.109375 139.855469 30.503906 139.855469 30.503906 C 140.023438 12.972656 128.128906 8.714844 120.398438 11.722656 "/>
<path style=" stroke:none;fill-rule:nonzero;fill:rgb(77.999878%,84.698486%,93.699646%);fill-opacity:1;" d="M 120.898438 38.265625 C 122.425781 41.910156 121.515625 46.140625 118.027344 49.289063 C 116.777344 50.421875 115.78125 50.167969 115.78125 50.167969 C 115.78125 50.167969 119.148438 46.785156 119.523438 43.777344 C 119.898438 40.773438 120.148438 38.394531 118.027344 32.132813 C 118.027344 32.132813 119.898438 35.890625 120.898438 38.265625 "/>
<path style=" stroke:none;fill-rule:nonzero;fill:rgb(100%,100%,100%);fill-opacity:1;" d="M 114.0625 44.425781 C 113.949219 43.699219 95.363281 43.132813 72.550781 43.148438 C 49.734375 43.171875 31.324219 43.769531 31.433594 44.496094 C 31.542969 45.222656 50.128906 45.792969 72.949219 45.773438 "/>
<path style=" stroke:none;fill-rule:nonzero;fill:rgb(27.099609%,57.598877%,81.599426%);fill-opacity:1;" d="M 73.25 101.355469 C 67.824219 101.355469 63.429688 105.070313 63.429688 109.652344 C 63.429688 114.238281 67.824219 117.957031 73.25 117.957031 C 78.667969 117.957031 83.0625 114.238281 83.0625 109.652344 C 83.0625 105.070313 78.667969 101.355469 73.25 101.355469 "/>
<path style=" stroke:none;fill-rule:nonzero;fill:rgb(100%,100%,100%);fill-opacity:1;" d="M 73.25 101.859375 C 67.824219 101.859375 63.429688 105.570313 63.429688 110.152344 C 63.429688 114.738281 67.824219 118.457031 73.25 118.457031 C 78.667969 118.457031 83.0625 114.738281 83.0625 110.152344 C 83.0625 105.570313 78.667969 101.859375 73.25 101.859375 "/>
<path style=" stroke:none;fill-rule:nonzero;fill:rgb(27.099609%,57.598877%,81.599426%);fill-opacity:1;" d="M 73.25 104.238281 C 69.546875 104.238281 66.539063 106.777344 66.539063 109.902344 C 66.539063 113.035156 69.546875 115.578125 73.25 115.578125 C 76.949219 115.578125 79.949219 113.035156 79.949219 109.902344 C 79.949219 106.777344 76.949219 104.238281 73.25 104.238281 "/>
<g clip-path="url(#clip2)" clip-rule="nonzero">
<g clip-path="url(#clip3)" clip-rule="nonzero">
<path style=" stroke:none;fill-rule:nonzero;fill:rgb(72.898865%,81.599426%,92.498779%);fill-opacity:1;" d="M 73.25 103.738281 C 69.546875 103.738281 66.539063 106.277344 66.539063 109.40625 C 66.539063 112.53125 69.546875 115.070313 73.25 115.070313 C 76.949219 115.070313 79.949219 112.53125 79.949219 109.40625 C 79.949219 106.277344 76.949219 103.738281 73.25 103.738281 "/>
</g>
</g>
<g clip-path="url(#clip4)" clip-rule="nonzero">
<g clip-path="url(#clip5)" clip-rule="nonzero">
<path style=" stroke:none;fill-rule:nonzero;fill:rgb(27.099609%,57.598877%,81.599426%);fill-opacity:1;" d="M 73.617188 104.640625 L 72.121094 106.769531 L 73.367188 108.40625 L 74.371094 108.277344 L 74.621094 106.148438 L 75.488281 107.652344 C 75.488281 107.652344 74.746094 108.90625 74.746094 108.777344 C 74.746094 108.65625 72.121094 108.777344 72.121094 108.777344 L 71.125 109.902344 C 71.125 109.902344 70.878906 107.273438 70.75 107.273438 C 70.625 107.273438 70.128906 107.273438 70.128906 107.273438 L 68.378906 109.53125 L 69.253906 109.78125 L 69.875 109.15625 L 70.625 110.410156 L 70.25 111.15625 L 68.882813 111.277344 L 68.5 112.539063 L 70.75 113.785156 L 72.121094 112.289063 L 74.117188 113.660156 L 74.621094 113.035156 L 73.996094 112.289063 L 75.863281 112.660156 L 77.484375 110.28125 L 77.613281 111.53125 L 76.867188 112.539063 L 77.109375 113.160156 L 78.238281 113.035156 C 78.238281 113.035156 80.105469 111.910156 79.984375 109.15625 C 79.859375 106.398438 77.613281 104.640625 74.371094 103.894531 L 73.617188 104.640625 "/>
<path style=" stroke:none;fill-rule:nonzero;fill:rgb(100%,100%,100%);fill-opacity:1;" d="M 73.9375 104.835938 L 72.4375 106.960938 L 73.683594 108.589844 L 74.683594 108.464844 L 74.925781 106.339844 L 75.800781 107.835938 C 75.800781 107.835938 75.058594 109.09375 75.058594 108.964844 C 75.058594 108.84375 72.4375 108.964844 72.4375 108.964844 L 71.4375 110.09375 C 71.4375 110.09375 71.1875 107.460938 71.0625 107.460938 C 70.941406 107.460938 70.4375 107.460938 70.4375 107.460938 L 68.691406 109.714844 L 69.566406 109.96875 L 70.1875 109.34375 L 70.941406 110.59375 L 70.566406 111.347656 L 69.191406 111.472656 L 68.816406 112.726563 L 71.0625 113.972656 L 72.4375 112.472656 L 74.433594 113.847656 L 74.925781 113.222656 L 74.304688 112.472656 L 76.179688 112.847656 L 77.796875 110.472656 L 77.925781 111.71875 L 77.171875 112.726563 L 77.429688 113.347656 L 78.550781 113.222656 C 78.550781 113.222656 80.417969 112.097656 80.292969 109.34375 C 80.171875 106.585938 77.925781 104.835938 74.683594 104.082031 L 73.9375 104.835938 "/>
</g>
</g>
<path style=" stroke:none;fill-rule:nonzero;fill:rgb(100%,100%,100%);fill-opacity:1;" d="M 95.066406 83.402344 C 94.523438 104.242188 103.472656 160.558594 76.371094 163.839844 C 73.324219 164.207031 90.671875 166.921875 97.21875 159.972656 C 103.765625 153.027344 116.523438 127.953125 121.511719 74.136719 "/>
<path style=" stroke:none;fill-rule:nonzero;fill:rgb(98.799133%,99.198914%,99.598694%);fill-opacity:1;" d="M 95.585938 83.238281 C 95.050781 103.738281 103.558594 159.425781 76.949219 163.679688 C 73.992188 164.09375 90.769531 166.789063 97.183594 159.957031 C 103.59375 153.125 116.496094 128.011719 121.445313 74.164063 "/>
<path style=" stroke:none;fill-rule:nonzero;fill:rgb(97.299194%,98.399353%,99.198914%);fill-opacity:1;" d="M 96.109375 83.074219 C 95.582031 103.238281 103.644531 158.285156 77.527344 163.527344 C 74.660156 163.984375 90.871094 166.660156 97.144531 159.9375 C 103.417969 153.21875 116.46875 128.070313 121.378906 74.195313 "/>
<path style=" stroke:none;fill-rule:nonzero;fill:rgb(96.099854%,97.299194%,98.799133%);fill-opacity:1;" d="M 96.628906 82.90625 C 96.113281 102.734375 103.730469 157.152344 78.105469 163.371094 C 75.320313 163.875 90.964844 166.53125 97.105469 159.925781 C 103.246094 153.316406 116.441406 128.132813 121.316406 74.21875 "/>
<path style=" stroke:none;fill-rule:nonzero;fill:rgb(94.898987%,96.499634%,98.799133%);fill-opacity:1;" d="M 97.148438 82.746094 C 96.648438 102.230469 103.8125 156.015625 78.679688 163.21875 C 75.984375 163.761719 91.066406 166.402344 97.070313 159.90625 C 103.066406 153.414063 116.414063 128.1875 121.25 74.25 "/>
<path style=" stroke:none;fill-rule:nonzero;fill:rgb(93.699646%,95.698547%,98.399353%);fill-opacity:1;" d="M 97.667969 82.585938 C 97.183594 101.722656 103.898438 154.878906 79.257813 163.0625 C 76.652344 163.648438 91.164063 166.273438 97.03125 159.894531 C 102.894531 153.507813 116.390625 128.25 121.1875 74.277344 "/>
<path style=" stroke:none;fill-rule:nonzero;fill:rgb(92.498779%,94.898987%,97.999573%);fill-opacity:1;" d="M 98.1875 82.417969 C 97.707031 101.222656 103.984375 153.746094 79.832031 162.910156 C 77.320313 163.53125 91.265625 166.140625 96.992188 159.875 C 102.722656 153.609375 116.359375 128.308594 121.117188 74.308594 "/>
<path style=" stroke:none;fill-rule:nonzero;fill:rgb(91.799927%,94.099426%,97.599792%);fill-opacity:1;" d="M 98.707031 82.257813 C 98.242188 100.71875 104.070313 152.609375 80.414063 162.753906 C 77.984375 163.421875 91.363281 166.011719 96.953125 159.859375 C 102.546875 153.703125 116.335938 128.367188 121.054688 74.335938 "/>
<path style=" stroke:none;fill-rule:nonzero;fill:rgb(90.59906%,93.299866%,97.299194%);fill-opacity:1;" d="M 99.230469 82.09375 C 98.773438 100.21875 104.160156 151.472656 80.988281 162.59375 C 78.648438 163.3125 91.460938 165.882813 96.917969 159.839844 C 102.371094 153.800781 116.304688 128.421875 120.988281 74.367188 "/>
<path style=" stroke:none;fill-rule:nonzero;fill:rgb(89.7995%,92.498779%,96.899414%);fill-opacity:1;" d="M 99.746094 81.929688 C 99.304688 99.710938 104.246094 150.335938 81.566406 162.4375 C 79.3125 163.199219 91.558594 165.753906 96.878906 159.824219 C 102.195313 153.898438 116.277344 128.488281 120.921875 74.394531 "/>
<path style=" stroke:none;fill-rule:nonzero;fill:rgb(88.598633%,91.799927%,96.499634%);fill-opacity:1;" d="M 100.265625 81.765625 C 99.835938 99.210938 104.335938 149.199219 82.140625 162.285156 C 79.976563 163.089844 91.660156 165.628906 96.84375 159.808594 C 102.027344 153.996094 116.25 128.542969 120.863281 74.417969 "/>
<path style=" stroke:none;fill-rule:nonzero;fill:rgb(87.799072%,90.99884%,96.499634%);fill-opacity:1;" d="M 100.785156 81.597656 C 100.367188 98.710938 104.414063 148.066406 82.71875 162.128906 C 80.648438 162.976563 91.761719 165.496094 96.808594 159.792969 C 101.847656 154.09375 116.226563 128.601563 120.792969 74.449219 "/>
<path style=" stroke:none;fill-rule:nonzero;fill:rgb(86.698914%,90.19928%,96.099854%);fill-opacity:1;" d="M 101.308594 81.433594 C 100.898438 98.203125 104.5 146.925781 83.296875 161.976563 C 81.308594 162.863281 91.859375 165.367188 96.769531 159.777344 C 101.671875 154.1875 116.199219 128.660156 120.726563 74.480469 "/>
<path style=" stroke:none;fill-rule:nonzero;fill:rgb(85.499573%,89.399719%,95.698547%);fill-opacity:1;" d="M 101.828125 81.269531 C 101.429688 97.699219 104.585938 145.792969 83.875 161.816406 C 81.972656 162.753906 91.957031 165.238281 96.726563 159.757813 C 101.496094 154.285156 116.171875 128.71875 120.660156 74.515625 "/>
<path style=" stroke:none;fill-rule:nonzero;fill:rgb(84.698486%,88.999939%,95.698547%);fill-opacity:1;" d="M 102.351563 81.105469 C 101.964844 97.203125 104.671875 144.65625 84.453125 161.660156 C 82.640625 162.640625 92.058594 165.109375 96.6875 159.746094 C 101.324219 154.378906 116.144531 128.78125 120.597656 74.539063 "/>
<path style=" stroke:none;fill-rule:nonzero;fill:rgb(83.499146%,88.198853%,95.298767%);fill-opacity:1;" d="M 102.867188 80.945313 C 102.492188 96.695313 104.757813 143.519531 85.027344 161.507813 C 83.308594 162.527344 92.15625 164.976563 96.652344 159.726563 C 101.148438 154.476563 116.117188 128.839844 120.53125 74.566406 "/>
<path style=" stroke:none;fill-rule:nonzero;fill:rgb(82.699585%,87.799072%,94.898987%);fill-opacity:1;" d="M 103.390625 80.78125 C 103.023438 96.195313 104.84375 142.382813 85.605469 161.351563 C 83.976563 162.417969 92.253906 164.851563 96.617188 159.710938 C 100.980469 154.570313 116.09375 128.898438 120.46875 74.59375 "/>
<path style=" stroke:none;fill-rule:nonzero;fill:rgb(81.599426%,87.098694%,94.898987%);fill-opacity:1;" d="M 103.910156 80.617188 C 103.558594 95.691406 104.933594 141.25 86.183594 161.195313 C 84.640625 162.308594 92.351563 164.722656 96.578125 159.695313 C 100.804688 154.667969 116.0625 128.957031 120.402344 74.621094 "/>
<path style=" stroke:none;fill-rule:nonzero;fill:rgb(80.799866%,86.299133%,94.499207%);fill-opacity:1;" d="M 104.425781 80.453125 C 104.085938 95.1875 105.015625 140.109375 86.757813 161.039063 C 85.304688 162.191406 92.445313 164.589844 96.539063 159.679688 C 100.625 154.765625 116.039063 129.019531 120.335938 74.652344 "/>
<path style=" stroke:none;fill-rule:nonzero;fill:rgb(79.998779%,85.899353%,94.099426%);fill-opacity:1;" d="M 104.945313 80.285156 C 104.617188 94.683594 105.101563 138.976563 87.335938 160.886719 C 85.96875 162.085938 92.550781 164.464844 96.503906 159.660156 C 100.449219 154.859375 116.011719 129.074219 120.273438 74.683594 "/>
<path style=" stroke:none;fill-rule:nonzero;fill:rgb(78.799438%,85.099792%,94.099426%);fill-opacity:1;" d="M 105.46875 80.125 C 105.15625 94.183594 105.1875 137.839844 87.914063 160.730469 C 86.632813 161.976563 92.652344 164.328125 96.460938 159.648438 C 100.28125 154.960938 115.984375 129.132813 120.203125 74.710938 "/>
<path style=" stroke:none;fill-rule:nonzero;fill:rgb(77.999878%,84.698486%,93.699646%);fill-opacity:1;" d="M 105.988281 79.960938 C 105.679688 93.679688 105.265625 136.707031 88.492188 160.574219 C 87.300781 161.859375 92.746094 164.199219 96.425781 159.625 C 100.101563 155.054688 115.953125 129.191406 120.136719 74.738281 "/>
<path style=" stroke:none;fill-rule:nonzero;fill:rgb(76.899719%,83.898926%,93.299866%);fill-opacity:1;" d="M 106.511719 79.800781 C 106.214844 93.179688 105.359375 135.566406 89.066406 160.421875 C 87.960938 161.75 92.847656 164.074219 96.386719 159.613281 C 99.925781 155.152344 115.929688 129.253906 120.074219 74.773438 "/>
<path style=" stroke:none;fill-rule:nonzero;fill:rgb(76.098633%,83.099365%,93.299866%);fill-opacity:1;" d="M 107.03125 79.632813 C 106.742188 92.671875 105.441406 134.433594 89.644531 160.265625 C 88.628906 161.636719 92.945313 163.941406 96.351563 159.597656 C 99.753906 155.246094 115.902344 129.3125 120.007813 74.800781 "/>
<path style=" stroke:none;fill-rule:nonzero;fill:rgb(74.899292%,82.699585%,92.89856%);fill-opacity:1;" d="M 107.546875 79.46875 C 107.273438 92.167969 105.53125 133.296875 90.222656 160.109375 C 89.292969 161.527344 93.042969 163.808594 96.3125 159.582031 C 99.578125 155.34375 115.875 129.371094 119.945313 74.832031 "/>
<path style=" stroke:none;fill-rule:nonzero;fill:rgb(74.099731%,81.999207%,92.498779%);fill-opacity:1;" d="M 108.074219 79.308594 C 107.808594 91.667969 105.613281 132.160156 90.796875 159.957031 C 89.960938 161.410156 93.144531 163.679688 96.277344 159.566406 C 99.402344 155.441406 115.847656 129.429688 119.875 74.855469 "/>
<path style=" stroke:none;fill-rule:nonzero;fill:rgb(72.898865%,81.599426%,92.498779%);fill-opacity:1;" d="M 108.585938 79.144531 C 108.335938 91.164063 105.699219 131.027344 91.371094 159.796875 C 90.625 161.300781 93.242188 163.554688 96.234375 159.546875 C 99.230469 155.539063 115.824219 129.488281 119.8125 74.882813 "/>
<path style=" stroke:none;fill-rule:nonzero;fill:rgb(70.999146%,79.998779%,91.799927%);fill-opacity:1;" d="M 93.84375 84.867188 C 93.589844 96.886719 90.953125 136.753906 76.628906 165.519531 C 75.878906 167.019531 78.089844 169.132813 81.085938 165.125 C 84.078125 161.117188 100.453125 135.304688 104.445313 80.703125 "/>
<path style=" stroke:none;fill-rule:nonzero;fill:rgb(73.298645%,81.599426%,92.498779%);fill-opacity:1;" d="M 94.003906 84.824219 C 93.753906 96.847656 91.117188 136.710938 76.789063 165.480469 C 76.042969 166.980469 78.078125 169.03125 81.074219 165.023438 C 84.066406 161.015625 100.351563 135.304688 104.347656 80.703125 "/>
<path style=" stroke:none;fill-rule:nonzero;fill:rgb(76.098633%,83.499146%,93.299866%);fill-opacity:1;" d="M 94.164063 84.78125 C 93.914063 96.804688 91.277344 136.671875 76.953125 165.4375 C 76.203125 166.941406 78.074219 168.929688 81.066406 164.921875 C 84.058594 160.914063 100.253906 135.304688 104.246094 80.703125 "/>
<path style=" stroke:none;fill-rule:nonzero;fill:rgb(78.799438%,85.099792%,94.099426%);fill-opacity:1;" d="M 94.324219 84.742188 C 94.074219 96.765625 91.441406 136.628906 77.109375 165.398438 C 76.363281 166.898438 78.066406 168.828125 81.054688 164.824219 C 84.050781 160.8125 100.15625 135.304688 104.144531 80.703125 "/>
<path style=" stroke:none;fill-rule:nonzero;fill:rgb(81.599426%,87.098694%,94.898987%);fill-opacity:1;" d="M 94.488281 84.703125 C 94.234375 96.722656 91.601563 136.585938 77.273438 165.359375 C 76.523438 166.863281 78.050781 168.726563 81.042969 164.722656 C 84.039063 160.710938 100.050781 135.304688 104.042969 80.703125 "/>
<path style=" stroke:none;fill-rule:nonzero;fill:rgb(84.298706%,88.999939%,95.698547%);fill-opacity:1;" d="M 94.648438 84.660156 C 94.398438 96.683594 91.761719 136.546875 77.433594 165.316406 C 76.6875 166.820313 78.042969 168.628906 81.03125 164.621094 C 84.027344 160.613281 99.949219 135.304688 103.941406 80.703125 "/>
<path style=" stroke:none;fill-rule:nonzero;fill:rgb(87.5%,90.59906%,96.099854%);fill-opacity:1;" d="M 94.808594 84.617188 C 94.558594 96.644531 91.925781 136.507813 77.597656 165.277344 C 76.847656 166.78125 78.035156 168.523438 81.023438 164.515625 C 84.019531 160.507813 99.847656 135.304688 103.839844 80.703125 "/>
<path style=" stroke:none;fill-rule:nonzero;fill:rgb(90.19928%,92.89856%,97.299194%);fill-opacity:1;" d="M 94.972656 84.582031 C 94.71875 96.605469 92.085938 136.46875 77.757813 165.238281 C 77.007813 166.742188 78.023438 168.421875 81.019531 164.417969 C 84.007813 160.410156 99.746094 135.304688 103.738281 80.703125 "/>
<path style=" stroke:none;fill-rule:nonzero;fill:rgb(92.89856%,94.898987%,97.999573%);fill-opacity:1;" d="M 95.132813 84.539063 C 94.882813 96.5625 92.246094 136.425781 77.914063 165.195313 C 77.167969 166.699219 78.015625 168.320313 81.007813 164.316406 C 84 160.304688 99.648438 135.304688 103.640625 80.703125 "/>
<path style=" stroke:none;fill-rule:nonzero;fill:rgb(96.499634%,97.599792%,99.198914%);fill-opacity:1;" d="M 95.292969 84.5 C 95.042969 96.519531 92.40625 136.386719 78.074219 165.160156 C 77.328125 166.65625 78.003906 168.21875 80.996094 164.210938 C 83.988281 160.207031 99.550781 135.304688 103.539063 80.703125 "/>
<g clip-path="url(#clip6)" clip-rule="nonzero">
<g clip-path="url(#clip7)" clip-rule="nonzero">
<path style="fill:none;stroke-width:12.608;stroke-linecap:round;stroke-linejoin:round;stroke:rgb(100%,100%,100%);stroke-opacity:1;stroke-miterlimit:4;" d="M 439.375 1239.60625 C 396.992188 1149.410938 449.335938 1034.215625 486.796875 979.098438 C 524.179688 923.98125 656.445313 974.1375 594.0625 706.090625 C 531.679688 438.082813 656.445313 398.04375 786.171875 413.04375 " transform="matrix(0.1,0,0,-0.1,0,201.32)"/>
</g>
</g>
<g clip-path="url(#clip8)" clip-rule="nonzero">
<g clip-path="url(#clip9)" clip-rule="nonzero">
<path style="fill:none;stroke-width:12.608;stroke-linecap:round;stroke-linejoin:round;stroke:rgb(93.299866%,95.298767%,97.999573%);stroke-opacity:1;stroke-miterlimit:4;" d="M 419.0625 1234.371875 C 376.640625 1144.215625 430.117188 1021.754688 466.054688 965.934375 C 501.5625 911.832813 624.960938 948.434375 575.625 685.23125 C 527.851563 419.098438 647.421875 382.73125 773.125 401.79375 " transform="matrix(0.1,0,0,-0.1,0,201.32)"/>
</g>
</g>
<g clip-path="url(#clip10)" clip-rule="nonzero">
<g clip-path="url(#clip11)" clip-rule="nonzero">
<path style="fill:none;stroke-width:12.608;stroke-linecap:round;stroke-linejoin:round;stroke:rgb(88.198853%,91.398621%,96.499634%);stroke-opacity:1;stroke-miterlimit:4;" d="M 410.976563 1238.590625 C 368.59375 1148.434375 423.085938 1018.785938 457.65625 962.301563 C 491.210938 909.098438 605.78125 932.223438 569.492188 673.864063 C 536.289063 409.567188 650.703125 376.989063 772.34375 400.075 " transform="matrix(0.1,0,0,-0.1,0,201.32)"/>
<path style="fill:none;stroke-width:12.608;stroke-linecap:round;stroke-linejoin:round;stroke:rgb(83.099365%,87.799072%,95.298767%);stroke-opacity:1;stroke-miterlimit:4;" d="M 402.929688 1242.848438 C 360.507813 1152.653125 416.09375 1015.817188 449.179688 958.629688 C 480.820313 906.442188 586.5625 916.090625 563.359375 662.496875 C 544.726563 400.075 653.90625 371.129688 771.601563 398.35625 " transform="matrix(0.1,0,0,-0.1,0,201.32)"/>
</g>
</g>
<g clip-path="url(#clip12)" clip-rule="nonzero">
<g clip-path="url(#clip13)" clip-rule="nonzero">
<path style="fill:none;stroke-width:12.608;stroke-linecap:round;stroke-linejoin:round;stroke:rgb(77.999878%,84.698486%,93.699646%);stroke-opacity:1;stroke-miterlimit:4;" d="M 394.882813 1247.067188 C 352.460938 1156.871875 409.0625 1012.809375 440.742188 954.996875 C 470.46875 903.746875 567.382813 899.879688 557.226563 651.090625 C 553.242188 390.582813 657.1875 365.426563 770.820313 396.598438 " transform="matrix(0.1,0,0,-0.1,0,201.32)"/>
</g>
</g>
<g clip-path="url(#clip14)" clip-rule="nonzero">
<g clip-path="url(#clip15)" clip-rule="nonzero">
<path style="fill:none;stroke-width:12.608;stroke-linecap:round;stroke-linejoin:round;stroke:rgb(72.898865%,81.599426%,92.498779%);stroke-opacity:1;stroke-miterlimit:4;" d="M 386.796875 1251.285938 C 344.414063 1161.129688 402.03125 1009.840625 432.265625 951.325 C 460.117188 901.051563 548.203125 883.66875 551.09375 639.7625 C 561.640625 381.090625 660.507813 359.60625 770.039063 394.879688 " transform="matrix(0.1,0,0,-0.1,0,201.32)"/>
</g>
</g>
<g clip-path="url(#clip16)" clip-rule="nonzero">
<g clip-path="url(#clip17)" clip-rule="nonzero">
<path style="fill:none;stroke-width:12.608;stroke-linecap:round;stroke-linejoin:round;stroke:rgb(68.199158%,78.399658%,90.99884%);stroke-opacity:1;stroke-miterlimit:4;" d="M 378.75 1255.54375 C 336.328125 1165.3875 395.039063 1006.832813 423.828125 947.692188 C 449.765625 898.317188 529.023438 867.496875 544.921875 628.395313 C 570.117188 371.559375 663.710938 353.825 769.296875 393.121875 " transform="matrix(0.1,0,0,-0.1,0,201.32)"/>
</g>
</g>
<g clip-path="url(#clip18)" clip-rule="nonzero">
<g clip-path="url(#clip19)" clip-rule="nonzero">
<path style="fill:none;stroke-width:12.608;stroke-linecap:round;stroke-linejoin:round;stroke:rgb(63.09967%,75.299072%,89.7995%);stroke-opacity:1;stroke-miterlimit:4;" d="M 370.703125 1259.801563 C 328.28125 1169.645313 388.046875 1003.942188 415.390625 943.98125 C 439.375 895.621875 509.84375 851.325 538.828125 616.989063 C 578.554688 362.10625 666.992188 348.04375 768.515625 391.403125 " transform="matrix(0.1,0,0,-0.1,0,201.32)"/>
</g>
</g>
<g clip-path="url(#clip20)" clip-rule="nonzero">
<g clip-path="url(#clip21)" clip-rule="nonzero">
<path style="fill:none;stroke-width:12.608;stroke-linecap:round;stroke-linejoin:round;stroke:rgb(58.399963%,72.499084%,88.598633%);stroke-opacity:1;stroke-miterlimit:4;" d="M 362.617188 1264.020313 C 320.234375 1173.864063 381.015625 1000.934375 406.953125 940.348438 C 428.984375 892.926563 490.625 835.153125 532.65625 605.660938 C 586.992188 352.535938 670.234375 342.2625 767.734375 389.645313 " transform="matrix(0.1,0,0,-0.1,0,201.32)"/>
</g>
</g>
<g clip-path="url(#clip22)" clip-rule="nonzero">
<g clip-path="url(#clip23)" clip-rule="nonzero">
<path style="fill:none;stroke-width:12.608;stroke-linecap:round;stroke-linejoin:round;stroke:rgb(53.29895%,69.799805%,87.098694%);stroke-opacity:1;stroke-miterlimit:4;" d="M 354.570313 1268.278125 C 312.1875 1178.082813 374.023438 997.926563 398.515625 936.676563 C 418.671875 890.23125 471.40625 818.942188 526.5625 594.332813 C 595.429688 343.082813 673.515625 336.48125 766.953125 387.926563 " transform="matrix(0.1,0,0,-0.1,0,201.32)"/>
</g>
</g>
<g clip-path="url(#clip24)" clip-rule="nonzero">
<g clip-path="url(#clip25)" clip-rule="nonzero">
<path style="fill:none;stroke-width:12.608;stroke-linecap:round;stroke-linejoin:round;stroke:rgb(48.599243%,67.098999%,85.899353%);stroke-opacity:1;stroke-miterlimit:4;" d="M 346.484375 1272.496875 C 304.101563 1182.301563 366.992188 994.957813 390.078125 933.04375 C 408.320313 887.535938 452.265625 802.770313 520.351563 582.926563 C 603.945313 333.590625 676.796875 330.739063 766.171875 386.246875 " transform="matrix(0.1,0,0,-0.1,0,201.32)"/>
</g>
</g>
<g clip-path="url(#clip26)" clip-rule="nonzero">
<g clip-path="url(#clip27)" clip-rule="nonzero">
<path style="fill:none;stroke-width:12.608;stroke-linecap:round;stroke-linejoin:round;stroke:rgb(43.899536%,64.698792%,84.698486%);stroke-opacity:1;stroke-miterlimit:4;" d="M 338.476563 1276.715625 C 296.054688 1186.559375 360 991.95 381.640625 929.332813 C 397.96875 884.801563 433.046875 786.598438 514.257813 571.559375 C 612.34375 324.059375 680.039063 324.957813 765.429688 384.410938 " transform="matrix(0.1,0,0,-0.1,0,201.32)"/>
</g>
</g>
<g clip-path="url(#clip28)" clip-rule="nonzero">
<g clip-path="url(#clip29)" clip-rule="nonzero">
<path style="fill:none;stroke-width:12.608;stroke-linecap:round;stroke-linejoin:round;stroke:rgb(38.798523%,62.399292%,83.499146%);stroke-opacity:1;stroke-miterlimit:4;" d="M 330.390625 1280.973438 C 287.96875 1190.817188 353.007813 988.98125 373.203125 925.660938 C 387.578125 882.145313 413.90625 770.3875 508.125 560.192188 C 620.820313 314.60625 683.320313 319.1375 764.6875 382.73125 " transform="matrix(0.1,0,0,-0.1,0,201.32)"/>
</g>
</g>
<g clip-path="url(#clip30)" clip-rule="nonzero">
<g clip-path="url(#clip31)" clip-rule="nonzero">
<path style="fill:none;stroke-width:12.608;stroke-linecap:round;stroke-linejoin:round;stroke:rgb(33.299255%,59.999084%,82.398987%);stroke-opacity:1;stroke-miterlimit:4;" d="M 334.570313 1294.723438 C 292.226563 1204.528125 358.28125 995.465625 377.03125 931.520313 C 389.492188 888.942188 406.953125 763.707813 514.257813 558.317188 C 641.523438 314.567188 698.828125 322.848438 776.171875 390.465625 " transform="matrix(0.1,0,0,-0.1,0,201.32)"/>
</g>
</g>
<g clip-path="url(#clip32)" clip-rule="nonzero">
<g clip-path="url(#clip33)" clip-rule="nonzero">
<path style="fill:none;stroke-width:4.202;stroke-linecap:round;stroke-linejoin:round;stroke:rgb(33.299255%,59.999084%,82.398987%);stroke-opacity:1;stroke-miterlimit:4;" d="M 275.195313 1286.285938 C 260.234375 1171.090625 316.328125 967.067188 335.078125 903.04375 C 347.539063 860.504688 377.460938 735.23125 484.765625 529.840625 C 546.5625 411.559375 594.804688 343.160938 636.914063 311.910938 " transform="matrix(0.1,0,0,-0.1,0,201.32)"/>
</g>
</g>
<g clip-path="url(#clip34)" clip-rule="nonzero">
<g clip-path="url(#clip35)" clip-rule="nonzero">
<path style="fill:none;stroke-width:4.202;stroke-linecap:round;stroke-linejoin:round;stroke:rgb(41.19873%,63.09967%,84.298706%);stroke-opacity:1;stroke-miterlimit:4;" d="M 272.96875 1286.285938 C 258.007813 1171.090625 314.140625 967.067188 332.851563 903.04375 C 345.351563 860.504688 375.273438 735.23125 482.539063 529.840625 C 544.335938 411.559375 592.578125 343.160938 634.6875 311.910938 " transform="matrix(0.1,0,0,-0.1,0,201.32)"/>
</g>
</g>
<g clip-path="url(#clip36)" clip-rule="nonzero">
<g clip-path="url(#clip37)" clip-rule="nonzero">
<path style="fill:none;stroke-width:4.202;stroke-linecap:round;stroke-linejoin:round;stroke:rgb(48.199463%,66.699219%,85.899353%);stroke-opacity:1;stroke-miterlimit:4;" d="M 258.476563 1276.79375 C 243.515625 1161.6375 299.609375 957.575 318.359375 893.551563 C 330.859375 851.0125 360.742188 725.778125 468.085938 520.3875 C 529.84375 402.067188 578.085938 333.707813 620.195313 302.379688 " transform="matrix(0.1,0,0,-0.1,0,201.32)"/>
</g>
</g>
<g clip-path="url(#clip38)" clip-rule="nonzero">
<g clip-path="url(#clip39)" clip-rule="nonzero">
<path style="fill:none;stroke-width:4.202;stroke-linecap:round;stroke-linejoin:round;stroke:rgb(54.899597%,70.599365%,87.799072%);stroke-opacity:1;stroke-miterlimit:4;" d="M 268.554688 1286.285938 C 253.59375 1171.090625 309.6875 967.067188 328.4375 903.04375 C 340.898438 860.504688 370.820313 735.23125 478.125 529.840625 C 539.882813 411.559375 588.085938 343.160938 630.273438 311.910938 " transform="matrix(0.1,0,0,-0.1,0,201.32)"/>
<path style="fill:none;stroke-width:4.202;stroke-linecap:round;stroke-linejoin:round;stroke:rgb(61.999512%,74.499512%,89.399719%);stroke-opacity:1;stroke-miterlimit:4;" d="M 266.328125 1286.285938 C 251.367188 1171.090625 307.460938 967.067188 326.210938 903.04375 C 338.671875 860.504688 368.632813 735.23125 475.859375 529.840625 C 537.695313 411.559375 585.9375 343.160938 628.046875 311.910938 " transform="matrix(0.1,0,0,-0.1,0,201.32)"/>
</g>
</g>
<g clip-path="url(#clip40)" clip-rule="nonzero">
<g clip-path="url(#clip41)" clip-rule="nonzero">
<path style="fill:none;stroke-width:4.202;stroke-linecap:round;stroke-linejoin:round;stroke:rgb(68.998718%,78.799438%,91.398621%);stroke-opacity:1;stroke-miterlimit:4;" d="M 264.101563 1286.285938 C 249.101563 1171.090625 305.234375 967.067188 323.984375 903.04375 C 336.445313 860.504688 366.40625 735.23125 473.671875 529.840625 C 535.507813 411.559375 583.710938 343.160938 625.78125 311.910938 " transform="matrix(0.1,0,0,-0.1,0,201.32)"/>
<path style="fill:none;stroke-width:4.202;stroke-linecap:round;stroke-linejoin:round;stroke:rgb(76.499939%,83.499146%,93.299866%);stroke-opacity:1;stroke-miterlimit:4;" d="M 261.914063 1286.285938 C 246.914063 1171.090625 303.007813 967.067188 321.757813 903.04375 C 334.257813 860.504688 364.179688 735.23125 471.484375 529.840625 C 533.242188 411.559375 581.484375 343.160938 623.59375 311.910938 " transform="matrix(0.1,0,0,-0.1,0,201.32)"/>
<path style="fill:none;stroke-width:4.202;stroke-linecap:round;stroke-linejoin:round;stroke:rgb(83.499146%,88.198853%,95.298767%);stroke-opacity:1;stroke-miterlimit:4;" d="M 259.6875 1286.285938 C 244.6875 1171.090625 300.820313 967.067188 319.570313 903.04375 C 332.03125 860.504688 361.953125 735.23125 469.257813 529.840625 C 531.015625 411.559375 579.296875 343.160938 621.367188 311.910938 " transform="matrix(0.1,0,0,-0.1,0,201.32)"/>
<path style="fill:none;stroke-width:4.202;stroke-linecap:round;stroke-linejoin:round;stroke:rgb(90.99884%,93.699646%,97.599792%);stroke-opacity:1;stroke-miterlimit:4;" d="M 257.5 1286.285938 C 242.5 1171.090625 298.59375 967.067188 317.34375 903.04375 C 329.804688 860.504688 359.726563 735.23125 467.070313 529.840625 C 528.828125 411.559375 577.03125 343.160938 619.179688 311.910938 " transform="matrix(0.1,0,0,-0.1,0,201.32)"/>
</g>
</g>
<g clip-path="url(#clip42)" clip-rule="nonzero">
<g clip-path="url(#clip43)" clip-rule="nonzero">
<path style="fill:none;stroke-width:4.202;stroke-linecap:round;stroke-linejoin:round;stroke:rgb(100%,100%,100%);stroke-opacity:1;stroke-miterlimit:4;" d="M 255.234375 1286.285938 C 240.273438 1171.090625 296.40625 967.067188 315.117188 903.04375 C 327.617188 860.504688 357.539063 735.23125 464.804688 529.840625 C 526.601563 411.559375 574.804688 343.160938 616.953125 311.910938 " transform="matrix(0.1,0,0,-0.1,0,201.32)"/>
</g>
</g>
<path style=" stroke:none;fill-rule:nonzero;fill:rgb(100%,98.399353%,79.998779%);fill-opacity:1;" d="M 34.316406 19.605469 C 34.324219 20.265625 34.324219 20.898438 34.324219 21.488281 C 34.324219 23.503906 30.707031 38.144531 30.707031 38.144531 C 29.214844 38.644531 28.835938 38.769531 29.339844 43.652344 C 29.835938 48.539063 34.078125 51.542969 37.945313 53.292969 L 38.636719 53.292969 L 38.695313 54.171875 C 38.695313 54.171875 31.457031 52.421875 29.339844 45.660156 C 27.214844 38.898438 29.214844 34.136719 30.585938 31 C 31.957031 27.871094 33.328125 22.363281 33.328125 19.859375 L 34.316406 19.605469 "/>
<path style=" stroke:none;fill-rule:nonzero;fill:rgb(100%,100%,100%);fill-opacity:1;" d="M 23.226563 5.457031 C 29.765625 6.207031 32.15625 8.632813 33.453125 13.847656 C 33.953125 15.855469 33.953125 18.355469 33.953125 18.355469 C 33.953125 18.355469 33.578125 11.722656 29.835938 9.714844 L 29.214844 10.464844 C 29.214844 10.464844 31.957031 12.722656 31.832031 15.472656 C 31.832031 15.472656 29.339844 9.84375 23.84375 9.589844 C 18.359375 9.339844 17.738281 10.089844 17.738281 10.089844 C 17.738281 10.089844 20.980469 8.210938 26.09375 9.085938 L 27.09375 8.589844 C 27.09375 8.589844 24.71875 7.085938 23.097656 6.964844 C 23.097656 6.964844 23.097656 5.441406 23.226563 5.457031 "/>
<path style=" stroke:none;fill-rule:nonzero;fill:rgb(100%,100%,100%);fill-opacity:1;" d="M 34.578125 59.3125 C 34.578125 59.3125 31.832031 60.8125 29.339844 60.441406 C 29.339844 60.441406 25.949219 63.363281 24.96875 65.316406 C 22.480469 70.328125 24.84375 73.339844 24.84375 73.339844 C 34.324219 68.199219 38.816406 59.9375 39.691406 56.425781 L 38.441406 56.300781 C 38.441406 56.300781 37.820313 59.183594 37.070313 59.808594 C 36.324219 60.441406 35.324219 60.3125 34.703125 60.058594 L 34.578125 59.3125 "/>
<path style=" stroke:none;fill-rule:nonzero;fill:rgb(100%,100%,100%);fill-opacity:1;" d="M 108.671875 56.425781 L 107.425781 57.054688 C 107.425781 57.054688 109.796875 62.316406 113.539063 63.441406 C 117.277344 64.566406 123.144531 69.078125 123.640625 71.332031 C 123.640625 71.332031 124.644531 66.070313 122.015625 63.316406 C 119.402344 60.5625 116.53125 58.058594 113.164063 56.300781 C 113.164063 56.300781 112.289063 57.929688 112.417969 59.683594 C 112.417969 59.683594 110.667969 60.3125 110.046875 59.3125 C 109.421875 58.308594 108.671875 56.425781 108.671875 56.425781 "/>
<path style=" stroke:none;fill-rule:nonzero;fill:rgb(38.798523%,62.399292%,83.499146%);fill-opacity:1;" d="M 105.183594 149.730469 C 110.542969 142.96875 127.632813 112.035156 132.375 92.621094 L 131.75 92.496094 C 130.003906 99.007813 123.640625 116.671875 116.777344 127.5625 L 116.03125 126.9375 L 110.667969 134.453125 C 110.667969 134.453125 109.671875 138.710938 108.296875 142.339844 C 106.925781 145.976563 105.183594 149.730469 105.183594 149.730469 "/>
<path style=" stroke:none;fill-rule:nonzero;fill:rgb(58.399963%,72.499084%,88.598633%);fill-opacity:1;" d="M 62 62.476563 C 66.078125 62.886719 70.433594 63.046875 74.945313 62.925781 C 81.332031 62.753906 87.402344 62.007813 92.820313 60.828125 L 91.042969 61.542969 C 85.890625 62.652344 81.125 63.523438 75.144531 63.691406 C 68.8125 63.863281 62.613281 63.636719 57.222656 62.734375 L 62 62.476563 "/>
<path style=" stroke:none;fill-rule:nonzero;fill:rgb(100%,100%,100%);fill-opacity:1;" d="M 70.625 58.320313 C 66.511719 57.945313 56.789063 57.605469 51.042969 56.277344 L 51.167969 57.179688 C 51.167969 57.179688 53.664063 58.058594 56.03125 58.558594 L 56.230469 60.101563 C 60.292969 60.75 67.949219 61.242188 69.265625 61.304688 C 70.570313 61.363281 74.746094 58.699219 70.625 58.320313 "/>
<path style=" stroke:none;fill-rule:nonzero;fill:rgb(52.49939%,68.998718%,87.098694%);fill-opacity:1;" d="M 109.617188 48.601563 C 106.757813 51.601563 111.28125 55.84375 114.613281 59.1875 C 117.945313 62.535156 120.71875 62.535156 121.273438 64.765625 C 121.832031 66.992188 121.804688 61.25 121.273438 69.21875 C 120.71875 77.578125 25.605469 80.09375 25.234375 71.449219 C 24.96875 65.316406 31.894531 59.746094 34.578125 59.3125 C 38.328125 58.699219 38.535156 63.0625 39.117188 59.746094 C 39.691406 56.425781 43.339844 52.160156 38.453125 51.488281 C 33.5625 50.828125 25.789063 44.695313 34.117188 48.039063 C 42.441406 51.386719 109.617188 48.601563 109.617188 48.601563 "/>
<path style=" stroke:none;fill-rule:nonzero;fill:rgb(0%,47.499084%,76.098633%);fill-opacity:1;" d="M 61.644531 74.355469 C 45.179688 72.898438 37.320313 71.484375 37.070313 69.472656 C 36.820313 67.453125 39.816406 66.949219 39.316406 65.949219 C 38.816406 64.941406 42.058594 62.828125 43.558594 62.527344 C 45.058594 62.222656 44.804688 62.324219 44.804688 62.324219 L 44.929688 61.96875 L 44.058594 61.921875 C 44.058594 61.921875 44.179688 62.222656 43.304688 62.375 C 42.4375 62.527344 40.191406 62.726563 39.441406 63.78125 C 38.695313 64.839844 37.445313 66.097656 35.074219 66.949219 C 32.707031 67.804688 24.597656 69.496094 33.082031 71.308594 C 41.5625 73.121094 43.121094 72.921875 56.65625 74.203125 C 58.511719 74.386719 61.644531 74.355469 61.644531 74.355469 "/>
<path style=" stroke:none;fill-rule:nonzero;fill:rgb(87.799072%,90.99884%,96.499634%);fill-opacity:1;" d="M 84.597656 63.378906 C 76.363281 63.683594 62.269531 63.832031 50.292969 62.425781 C 50.292969 62.425781 49.042969 63.175781 56.78125 63.683594 C 64.511719 64.1875 71.25 64.285156 71.25 64.285156 C 71.25 64.285156 67.511719 65.242188 61.769531 65.039063 C 56.03125 64.839844 50.542969 63.632813 49.042969 64.839844 C 47.546875 66.050781 43.058594 68.664063 46.550781 69.574219 C 50.042969 70.480469 64.511719 72.992188 68.753906 72.488281 C 72.996094 71.988281 73.996094 70.980469 72.996094 69.070313 C 71.996094 67.15625 72.75 64.386719 72.75 64.386719 C 72.75 64.386719 82.101563 64.386719 84.597656 63.980469 C 87.089844 63.585938 84.597656 63.378906 84.597656 63.378906 "/>
<path style="fill:none;stroke-width:12.608;stroke-linecap:round;stroke-linejoin:round;stroke:rgb(100%,100%,100%);stroke-opacity:1;stroke-miterlimit:4;" d="M 317.695313 1546.207813 C 318.789063 1538.160938 504.609375 1544.176563 732.8125 1544.410938 C 1024.53125 1544.60625 1141.640625 1563.98125 1143.945313 1547.028125 " transform="matrix(0.1,0,0,-0.1,0,201.32)"/>
<path style=" stroke:none;fill-rule:nonzero;fill:rgb(0%,50.19989%,77.598572%);fill-opacity:1;" d="M 88.960938 74.105469 C 102.058594 73.351563 107.800781 72.289063 113.539063 71.078125 C 119.277344 69.875 117.652344 68.058594 113.414063 66.648438 C 109.167969 65.242188 103.683594 62.222656 105.429688 61.316406 C 105.429688 61.316406 95.449219 63.03125 94.949219 63.03125 C 94.449219 63.03125 99.019531 64.949219 102.1875 65.445313 C 105.429688 65.949219 107.675781 67.453125 106.675781 68.460938 C 105.679688 69.472656 103.433594 70.882813 93.953125 73.398438 L 88.960938 74.105469 "/>
<path style=" stroke:none;fill-rule:nonzero;fill:rgb(100%,100%,100%);fill-opacity:1;" d="M 88.960938 74.105469 C 102.058594 73.351563 107.800781 72.289063 113.539063 71.078125 C 119.277344 69.875 117.652344 68.058594 113.414063 66.648438 C 109.167969 65.242188 103.683594 62.222656 105.429688 61.316406 C 105.429688 61.316406 102.1875 62.324219 101.6875 62.324219 C 101.1875 62.324219 99.941406 62.929688 101.9375 64.039063 C 103.933594 65.144531 111.167969 67.257813 110.171875 68.265625 C 109.167969 69.273438 107.425781 71.585938 93.953125 73.398438 L 88.960938 74.105469 "/>
<path style=" stroke:none;fill-rule:nonzero;fill:rgb(0%,50.19989%,77.598572%);fill-opacity:1;" d="M 108.261719 53.304688 C 105.136719 54.355469 49.988281 55.648438 48.546875 55.285156 C 40.117188 53.164063 38.671875 52.476563 38.695313 54.171875 C 38.714844 55.875 38.558594 59.1875 46.328125 57.515625 C 54.105469 55.84375 69.195313 58.980469 71.414063 61.207031 C 73.636719 63.441406 89.628906 61.414063 95.183594 60.304688 C 100.734375 59.1875 100.179688 59.1875 104.066406 59.1875 C 95.738281 59.1875 121.273438 64.765625 108.671875 56.425781 C 112.808594 59.164063 111.28125 59.1875 113.503906 61.414063 C 115.722656 63.648438 116.277344 65.871094 117.390625 63.085938 C 118.5 60.304688 111.839844 54.171875 111.839844 54.171875 L 108.261719 53.304688 "/>
<path style="fill:none;stroke-width:12.608;stroke-linecap:round;stroke-linejoin:round;stroke:rgb(100%,100%,100%);stroke-opacity:1;stroke-miterlimit:4;" d="M 317.695313 1546.207813 C 318.789063 1538.160938 504.609375 1544.176563 732.8125 1544.410938 C 1024.53125 1544.60625 1141.640625 1563.98125 1143.945313 1547.028125 " transform="matrix(0.1,0,0,-0.1,0,201.32)"/>
<g clip-path="url(#clip44)" clip-rule="nonzero">
<path style="fill:none;stroke-width:3;stroke-linecap:round;stroke-linejoin:round;stroke:rgb(13.699341%,12.199402%,12.5%);stroke-opacity:1;stroke-miterlimit:4;" d="M 1171.601563 686.207813 C 1343.75 981.79375 1448.554688 1422.614063 1451.054688 1683.121875 C 1451.054688 1683.121875 1451.054688 1765.778125 1448.554688 1795.85625 C 1434.21875 1968.473438 1291.40625 2011.246875 1226.5625 1998.707813 C 1126.015625 1979.332813 1116.289063 1900.075 1109.257813 1850.934375 C 1101.796875 1798.317188 1149.179688 1635.504688 1151.71875 1607.965625 C 1153.4375 1588.239063 1139.921875 1576.285938 1132.070313 1571.0125 C 1099.375 1577.2625 928.632813 1581.871875 723.085938 1581.715625 C 529.023438 1581.559375 367.304688 1577.10625 323.828125 1571.364063 C 316.796875 1577.848438 309.6875 1587.965625 310.78125 1602.457813 C 312.890625 1630.075 358.007813 1793.5125 349.84375 1846.0125 C 342.109375 1895.035938 331.289063 1974.1375 230.546875 1992.145313 C 165.429688 2003.746875 23.242188 1959.059375 11.328125 1786.129688 C 9.257813 1756.051563 10.390625 1673.395313 10.390625 1673.395313 C 16.5625 1412.965625 127.5 973.590625 303.710938 680.582813 C 303.710938 680.582813 406.015625 506.598438 469.179688 447.379688 L 449.609375 493.121875 C 483.984375 423.903125 522.617188 360.426563 565.820313 307.809375 C 581.992188 293.395313 604.804688 281.285938 631.328125 272.145313 C 531.40625 259.410938 455.351563 232.41875 429.648438 198.5125 C 396.367188 179.7625 377.03125 158.082813 377.382813 135.035938 C 377.421875 132.965625 378.046875 130.934375 378.398438 128.98125 C 378.007813 126.520313 377.34375 124.098438 377.382813 121.598438 C 378.398438 53.434375 547.851563 -0.315625 755.859375 1.520313 C 963.867188 3.473438 1131.71875 60.23125 1130.703125 128.434375 C 1130.625 130.465625 1130 132.457813 1129.6875 134.489063 C 1130.117188 136.95 1130.742188 139.371875 1130.703125 141.871875 C 1130.351563 164.567188 1111.015625 185.582813 1078.085938 203.590625 C 1049.804688 238.395313 965.507813 265.7 856.679688 275.934375 C 880.625 285.114063 901.171875 296.79375 916.054688 310.426563 C 957.382813 362.301563 994.101563 424.60625 1026.601563 492.340625 L 1009.492188 450.778125 C 1071.875 510.895313 1171.601563 686.207813 1171.601563 686.207813 Z M 358.28125 706.364063 C 182.03125 999.45 71.09375 1438.825 64.921875 1699.215625 C 60.820313 1874.489063 179.140625 1918.746875 256.875 1889.801563 C 334.609375 1860.817188 305.390625 1775.778125 286.445313 1737.41875 C 229.179688 1621.442188 240.078125 1576.403125 255.546875 1539.098438 C 267.382813 1510.582813 328.554688 1483.04375 340.742188 1429.7625 L 335.976563 1429.684375 C 335.976563 1429.684375 230.546875 1387.848438 228.4375 1307.535938 C 229.53125 1231.676563 276.25 933.825 377.96875 660.426563 Z M 1238.984375 1314.91875 C 1243.671875 1401.79375 1143.710938 1443.66875 1143.710938 1443.66875 L 1126.132813 1443.317188 C 1141.757813 1491.442188 1196.992188 1518.239063 1207.773438 1545.348438 C 1222.773438 1582.8875 1233.046875 1628.160938 1174.140625 1743.239063 C 1154.648438 1781.285938 1124.21875 1865.895313 1201.5625 1895.973438 C 1278.945313 1926.051563 1397.8125 1883.473438 1396.132813 1708.160938 C 1393.671875 1447.653125 1288.867188 1006.832813 1116.757813 711.285938 L 1094.6875 657.692188 C 1193.085938 934.7625 1234.84375 1238.395313 1238.984375 1314.91875 Z M 1238.984375 1314.91875 " transform="matrix(0.1,0,0,-0.1,0,201.32)"/>
</g>
</g>
</svg>
