<svg xmlns="http://www.w3.org/2000/svg" width="70" height="60" viewBox="0 0 300.31 429.4" version="1.1">
<defs>
<clipPath id="clip1">
  <path d="M 185 393 L 216 393 L 216 429.398438 L 185 429.398438 Z M 185 393 "/>
</clipPath>
<clipPath id="clip2">
  <path d="M 242 322 L 300.308594 322 L 300.308594 378 L 242 378 Z M 242 322 "/>
</clipPath>
</defs>
<g id="surface1">
<path style=" stroke:none;fill-rule:nonzero;fill:rgb(0%,0%,0%);fill-opacity:1;" d="M 73.265625 276.425781 L 70.316406 273.472656 C 90.441406 253.078125 118.355469 240.195313 149.214844 240.195313 C 180.078125 240.195313 207.992188 252.808594 228.121094 273.472656 L 225.164063 276.425781 C 205.84375 256.835938 179.007813 244.488281 149.484375 244.488281 C 119.425781 244.488281 92.589844 256.566406 73.265625 276.425781 M 103.59375 310.242188 L 100.371094 307.289063 C 112.179688 293.601563 129.894531 285.015625 149.214844 285.015625 C 168.808594 285.015625 186.253906 293.601563 198.0625 307.289063 L 194.839844 310.242188 C 183.839844 297.628906 167.464844 289.574219 149.214844 289.574219 C 130.96875 289.574219 114.597656 297.628906 103.59375 310.242188 M 209.871094 271.328125 C 211.210938 272.398438 210.941406 273.203125 210.675781 274.277344 L 202.621094 301.921875 L 198.328125 297.894531 L 199.9375 292.527344 L 194.574219 288.503906 L 199.132813 285.550781 L 201.28125 287.160156 L 203.964844 277.769531 L 186.519531 289.039063 L 181.421875 286.089844 L 205.574219 270.523438 C 206.378906 269.984375 207.453125 269.71875 208.527344 270.523438 Z M 98.761719 291.1875 C 96.882813 290.917969 95.542969 290.113281 93.664063 287.964844 L 84 276.15625 L 79.707031 279.648438 L 90.175781 292.527344 C 92.320313 295.210938 94.734375 296.554688 97.6875 296.824219 C 100.910156 297.089844 103.859375 296.285156 106.8125 293.871094 C 109.765625 291.453125 111.375 288.769531 111.644531 285.550781 C 111.914063 282.597656 111.105469 279.914063 108.960938 277.230469 L 98.492188 264.347656 L 94.199219 267.839844 L 103.859375 279.648438 C 105.738281 282.0625 106.277344 283.402344 106.007813 285.28125 C 105.738281 286.894531 104.933594 288.503906 103.324219 289.84375 C 101.980469 290.648438 100.105469 291.453125 98.761719 291.1875 M 139.824219 256.296875 L 138.75 251.199219 L 121.84375 254.6875 C 120.769531 254.957031 119.964844 255.761719 120.230469 257.101563 L 123.722656 274.546875 C 124.796875 280.453125 129.355469 281.792969 133.921875 280.71875 L 144.117188 278.574219 L 143.046875 273.472656 L 133.113281 275.621094 C 130.429688 276.15625 129.355469 275.621094 128.820313 272.667969 L 128.285156 269.984375 L 140.628906 267.570313 L 139.554688 262.46875 L 127.210938 264.886719 L 125.867188 258.714844 Z M 166.125 269.449219 L 178.46875 272.667969 L 179.8125 267.839844 L 167.464844 264.617188 L 168.003906 261.933594 C 168.808594 258.980469 169.882813 258.714844 172.566406 259.25 L 182.496094 261.933594 L 183.839844 256.835938 L 173.640625 254.152344 C 168.808594 252.808594 164.515625 254.152344 162.902344 259.785156 L 158.339844 276.964844 C 158.074219 278.304688 158.609375 279.109375 159.683594 279.378906 L 162.902344 280.183594 "/>
<path style=" stroke:none;fill-rule:nonzero;fill:rgb(0%,0%,0%);fill-opacity:1;" d="M 163.710938 416.25 L 174.445313 416.25 L 174.445313 418.664063 C 172.566406 420.542969 169.882813 422.152344 166.394531 422.152344 C 160.21875 422.152344 155.925781 418.664063 155.925781 411.152344 C 155.925781 403.90625 160.757813 400.148438 165.589844 400.148438 C 169.882813 400.148438 172.835938 402.292969 173.90625 406.050781 L 181.421875 403.90625 C 179.542969 397.464844 174.445313 392.902344 165.589844 392.902344 C 155.925781 392.902344 147.875 399.878906 147.875 410.882813 C 147.875 422.152344 155.925781 428.863281 165.855469 428.863281 C 173.371094 428.863281 178.199219 425.910156 181.960938 421.082031 L 181.960938 409.273438 L 163.710938 409.273438 "/>
<path style=" stroke:none;fill-rule:nonzero;fill:rgb(0%,0%,0%);fill-opacity:1;" d="M 62.53125 393.707031 L 54.480469 393.707031 L 54.480469 428.863281 L 79.171875 428.863281 L 79.171875 421.617188 L 62.53125 421.617188 "/>
<path style=" stroke:none;fill-rule:nonzero;fill:rgb(0%,0%,0%);fill-opacity:1;" d="M 90.710938 414.640625 L 105.738281 414.640625 L 105.738281 407.660156 L 90.710938 407.660156 L 90.710938 400.953125 L 107.082031 400.953125 L 107.082031 393.707031 L 82.925781 393.707031 L 82.925781 428.863281 L 107.351563 428.863281 L 107.351563 421.617188 L 90.710938 421.617188 "/>
<path style=" stroke:none;fill-rule:nonzero;fill:rgb(0%,0%,0%);fill-opacity:1;" d="M 227.851563 421.617188 L 227.851563 414.640625 L 242.613281 414.640625 L 242.613281 407.660156 L 227.851563 407.660156 L 227.851563 400.953125 L 243.953125 400.953125 L 243.953125 393.707031 L 219.800781 393.707031 L 219.800781 428.863281 L 244.222656 428.863281 L 244.222656 421.617188 "/>
<g clip-path="url(#clip1)" clip-rule="nonzero">
<path style=" stroke:none;fill-rule:nonzero;fill:rgb(0%,0%,0%);fill-opacity:1;" d="M 207.1875 414.640625 C 207.1875 419.203125 204.769531 422.15625 200.476563 422.15625 C 196.183594 422.15625 193.765625 419.203125 193.765625 414.640625 L 193.765625 393.972656 L 185.714844 393.972656 L 185.714844 415.175781 C 185.714844 424.835938 192.425781 429.398438 200.476563 429.398438 C 208.527344 429.398438 215.238281 424.835938 215.238281 415.175781 L 215.238281 393.972656 L 207.1875 393.972656 "/>
</g>
<path style=" stroke:none;fill-rule:nonzero;fill:rgb(0%,0%,0%);fill-opacity:1;" d="M 125.332031 414.90625 L 129.355469 404.171875 L 133.382813 414.90625 Z M 125.332031 393.707031 L 111.105469 428.59375 L 120.230469 428.59375 L 122.648438 421.886719 L 136.335938 421.886719 L 138.75 428.59375 L 147.875 428.59375 L 133.652344 393.707031 "/>
<path style=" stroke:none;fill-rule:nonzero;fill:rgb(0%,0%,0%);fill-opacity:1;" d="M 79.4375 355.058594 C 79.4375 362.304688 75.683594 366.867188 68.703125 366.867188 C 61.726563 366.867188 57.96875 362.304688 57.96875 355.058594 L 57.96875 322.585938 L 45.355469 322.585938 L 45.355469 355.863281 C 45.355469 371.164063 55.824219 378.140625 68.4375 378.140625 C 81.050781 378.140625 91.515625 370.894531 91.515625 355.863281 L 91.515625 322.585938 L 78.902344 322.585938 L 78.902344 355.058594 "/>
<path style=" stroke:none;fill-rule:nonzero;fill:rgb(0%,0%,0%);fill-opacity:1;" d="M 227.582031 347.546875 L 219.261719 347.546875 L 219.261719 333.859375 L 227.582031 333.859375 C 233.21875 333.859375 235.363281 336.808594 235.363281 340.835938 C 235.363281 344.59375 233.21875 347.546875 227.582031 347.546875 M 247.980469 340.835938 C 247.980469 329.027344 239.121094 322.855469 228.386719 322.855469 L 206.917969 322.855469 L 206.917969 377.335938 L 219.53125 377.335938 L 219.53125 358.816406 L 228.386719 358.816406 C 239.121094 358.816406 247.980469 352.644531 247.980469 340.835938 "/>
<path style=" stroke:none;fill-rule:nonzero;fill:rgb(0%,0%,0%);fill-opacity:1;" d="M 12.613281 355.328125 L 35.964844 355.328125 L 35.964844 344.054688 L 12.613281 344.054688 L 12.613281 333.859375 L 37.839844 333.859375 L 37.839844 322.585938 L 0 322.585938 L 0 377.335938 L 38.378906 377.335938 L 38.378906 366.0625 L 12.613281 366.0625 "/>
<g clip-path="url(#clip2)" clip-rule="nonzero">
<path style=" stroke:none;fill-rule:nonzero;fill:rgb(0%,0%,0%);fill-opacity:1;" d="M 264.617188 355.597656 L 271.058594 338.957031 L 277.5 355.597656 Z M 277.769531 322.585938 L 264.617188 322.585938 L 242.34375 377.066406 L 256.566406 377.066406 L 260.59375 366.597656 L 282.0625 366.597656 L 286.089844 377.066406 L 300.3125 377.066406 "/>
</g>
<path style=" stroke:none;fill-rule:nonzero;fill:rgb(0%,0%,0%);fill-opacity:1;" d="M 121.304688 346.472656 L 111.914063 346.472656 L 111.914063 333.859375 L 121.304688 333.859375 C 126.40625 333.859375 128.285156 336.542969 128.285156 340.03125 C 128.550781 343.789063 126.675781 346.472656 121.304688 346.472656 M 140.898438 340.03125 C 140.898438 329.296875 132.308594 322.585938 121.039063 322.585938 L 99.296875 322.585938 L 99.296875 377.066406 L 111.914063 377.066406 L 111.914063 357.476563 L 118.621094 357.476563 L 129.625 377.066406 L 143.582031 377.066406 L 131.503906 355.058594 C 137.140625 352.109375 140.898438 347.277344 140.898438 340.03125 "/>
<path style=" stroke:none;fill-rule:nonzero;fill:rgb(0%,0%,0%);fill-opacity:1;" d="M 173.371094 367.136719 C 165.589844 367.136719 159.414063 361.5 159.414063 349.960938 C 159.414063 338.152344 165.589844 332.785156 173.371094 332.785156 C 181.152344 332.785156 187.328125 338.421875 187.328125 349.960938 C 187.328125 361.5 181.152344 367.136719 173.371094 367.136719 M 173.371094 321.511719 C 157.269531 321.511719 147.070313 332.246094 147.070313 349.960938 C 147.070313 367.671875 157.535156 378.410156 173.371094 378.410156 C 189.472656 378.410156 199.671875 367.671875 199.671875 349.960938 C 199.671875 332.246094 189.203125 321.511719 173.371094 321.511719 "/>
<path style=" stroke:none;fill-rule:nonzero;fill:rgb(0%,0%,0%);fill-opacity:1;" d="M 157.269531 214.429688 C 164.515625 213.894531 171.492188 212.550781 178.199219 210.675781 C 178.46875 210.675781 178.46875 210.40625 178.46875 210.40625 L 178.46875 210.136719 C 169.882813 200.742188 156.464844 181.6875 147.339844 164.511719 C 151.902344 183.03125 155.925781 203.429688 156.730469 214.164063 C 157 214.429688 157 214.429688 157.269531 214.429688 "/>
<path style=" stroke:none;fill-rule:nonzero;fill:rgb(0%,0%,0%);fill-opacity:1;" d="M 195.914063 21.199219 C 195.914063 20.933594 195.914063 20.664063 195.644531 20.664063 L 163.441406 2.144531 L 163.171875 2.144531 C 162.902344 2.144531 162.902344 2.414063 162.636719 2.414063 C 161.023438 9.390625 145.996094 78.097656 170.148438 159.949219 C 161.5625 106.542969 182.496094 47.503906 195.914063 21.199219 "/>
<path style=" stroke:none;fill-rule:nonzero;fill:rgb(42.747498%,43.138123%,44.309998%);fill-opacity:1;" d="M 185.984375 208.257813 C 140.628906 135.261719 147.875 31.9375 152.972656 0.535156 C 152.972656 0.269531 152.703125 0 152.4375 0 C 146.53125 2.414063 106.546875 18.519531 102.25 20.128906 C 101.984375 20.128906 101.984375 20.394531 101.984375 20.664063 C 110.035156 57.699219 130.699219 145.460938 185.984375 208.257813 "/>
<path style=" stroke:none;fill-rule:nonzero;fill:rgb(42.747498%,43.138123%,44.309998%);fill-opacity:1;" d="M 123.988281 210.941406 C 123.988281 211.210938 123.988281 211.480469 124.257813 211.480469 C 132.039063 213.628906 140.359375 214.699219 148.679688 214.96875 C 148.949219 214.96875 149.214844 214.699219 149.214844 214.429688 C 148.144531 196.71875 144.117188 160.21875 129.089844 127.746094 C 133.921875 160.488281 128.550781 194.839844 123.988281 210.941406 "/>
<path style=" stroke:none;fill-rule:nonzero;fill:rgb(94.53125%,53.318787%,0%);fill-opacity:1;" d="M 112.179688 207.453125 C 112.449219 207.453125 112.449219 207.453125 112.449219 207.1875 C 112.71875 206.648438 112.984375 205.308594 112.984375 204.769531 C 112.984375 204.503906 112.71875 204.503906 112.71875 204.234375 C 80.242188 190.277344 58.507813 152.4375 58.507813 114.597656 C 58.507813 85.074219 71.121094 52.871094 92.859375 36.230469 L 92.859375 35.960938 C 92.859375 35.425781 92.320313 34.351563 92.320313 33.546875 C 92.320313 33.277344 92.050781 33.277344 91.785156 33.277344 L 91.515625 33.277344 C 66.019531 51.527344 49.648438 81.046875 49.648438 114.863281 C 49.917969 156.460938 75.683594 192.425781 112.179688 207.453125 "/>
<path style=" stroke:none;fill-rule:nonzero;fill:rgb(94.53125%,53.318787%,0%);fill-opacity:1;" d="M 205.039063 30.863281 C 205.039063 30.863281 204.769531 30.863281 205.039063 30.863281 C 204.769531 30.863281 204.503906 30.863281 204.503906 31.128906 L 203.429688 33.277344 L 203.429688 33.546875 C 203.429688 33.8125 203.429688 33.8125 203.695313 33.8125 C 227.851563 50.1875 241.539063 83.195313 241.539063 114.597656 C 241.539063 149.753906 224.628906 184.640625 195.644531 200.207031 L 195.378906 200.476563 L 195.378906 200.746094 L 196.71875 202.890625 L 196.988281 203.160156 L 197.257813 203.160156 C 228.925781 186.253906 250.394531 152.972656 250.394531 114.863281 C 250.125 79.707031 232.144531 48.84375 205.039063 30.863281 "/>
<path style=" stroke:none;fill-rule:nonzero;fill:rgb(100%,100%,100%);fill-opacity:1;" d="M 224.898438 205.574219 L 227.3125 205.574219 L 227.3125 212.285156 L 228.386719 212.285156 L 228.386719 205.574219 L 230.800781 205.574219 L 230.800781 204.5 L 224.898438 204.5 "/>
<path style=" stroke:none;fill-rule:nonzero;fill:rgb(100%,100%,100%);fill-opacity:1;" d="M 238.585938 204.503906 L 235.902344 211.210938 L 233.488281 204.503906 L 232.144531 204.503906 L 232.144531 212.285156 L 233.21875 212.285156 L 233.21875 206.648438 L 235.367188 212.285156 L 236.707031 212.285156 L 238.855469 206.648438 L 238.855469 212.285156 L 239.929688 212.285156 L 239.929688 204.503906 "/>
</g>
</svg>
