<svg
   xmlns:dc="http://purl.org/dc/elements/1.1/"
   xmlns:cc="http://creativecommons.org/ns#"
   xmlns:rdf="http://www.w3.org/1999/02/22-rdf-syntax-ns#"
   xmlns:svg="http://www.w3.org/2000/svg"
   xmlns="http://www.w3.org/2000/svg"
   xmlns:sodipodi="http://sodipodi.sourceforge.net/DTD/sodipodi-0.dtd"
   xmlns:inkscape="http://www.inkscape.org/namespaces/inkscape"
   width="70"
   height="60"
   viewBox="0 0 500.00001 144.24019"
   id="svg18413"
   version="1.1"
   inkscape:version="0.91 r13725"
   sodipodi:docname="EFL League One.svg">
  <defs
     id="defs18415" />
  <sodipodi:namedview
     id="base"
     pagecolor="#ffffff"
     bordercolor="#666666"
     borderopacity="1.0"
     inkscape:pageopacity="0.0"
     inkscape:pageshadow="2"
     inkscape:zoom="2.2599999"
     inkscape:cx="250.00001"
     inkscape:cy="72.120094"
     inkscape:document-units="px"
     inkscape:current-layer="layer1"
     showgrid="false"
     fit-margin-top="0"
     fit-margin-left="0"
     fit-margin-right="0"
     fit-margin-bottom="0"
     inkscape:window-width="1600"
     inkscape:window-height="838"
     inkscape:window-x="-8"
     inkscape:window-y="-8"
     inkscape:window-maximized="1" />
  <metadata
     id="metadata18418">
    <rdf:RDF>
      <cc:Work
         rdf:about="">
        <dc:format>image/svg+xml</dc:format>
        <dc:type
           rdf:resource="http://purl.org/dc/dcmitype/StillImage" />
        <dc:title></dc:title>
      </cc:Work>
    </rdf:RDF>
  </metadata>
  <g
     inkscape:label="Calque 1"
     inkscape:groupmode="layer"
     id="layer1"
     transform="translate(250.15911,-305.07023)">
    <g
       transform="matrix(0.6746344,0,0,0.67463439,-852.09129,261.68964)"
       style="clip-rule:evenodd;fill-rule:evenodd;image-rendering:optimizeQuality;shape-rendering:geometricPrecision;text-rendering:geometricPrecision"
       id="g14701">
      <path
         d="m 999.13706,278.10734 c -28.55067,0 -55.39844,-11.11976 -75.58433,-31.30563 -20.19838,-20.1984 -31.31809,-47.04611 -31.31809,-75.59685 0,-28.55074 11.11971,-55.39846 31.31809,-75.58434 20.18589,-20.19839 47.03366,-31.31815 75.58433,-31.31815 l 527.33714,0 c 28.5509,0 55.3985,11.11976 75.5844,31.31815 20.1984,20.18588 31.3182,47.0336 31.3182,75.58434 0,28.55074 -11.1198,55.39845 -31.3182,75.59685 -20.1859,20.18587 -47.0335,31.30563 -75.5844,31.30563 l -527.33714,0"
         style="fill:#ffffff;fill-opacity:1;fill-rule:nonzero;stroke:none"
         id="path1768-8"
         inkscape:connector-curvature="0" />
      <path
         d="m 1526.4718,268.69937 -527.33723,0 c -53.84572,0 -97.4857,-43.65258 -97.4857,-97.49826 0,-53.84571 43.63998,-97.48577 97.4857,-97.48577 l 527.33723,0 c 53.8456,0 97.4983,43.64006 97.4983,97.48577 0,53.84568 -43.6527,97.49826 -97.4983,97.49826 m 72.2659,-169.7642 c -19.3093,-19.2968 -44.9674,-29.92819 -72.2659,-29.92819 l -527.33723,0 c -27.29846,0 -52.95659,10.63139 -72.26592,29.92819 -19.29676,19.30932 -29.92814,44.96742 -29.92814,72.26594 0,27.29851 10.63138,52.96912 29.92814,72.26592 19.30933,19.30932 44.96746,29.94071 72.26592,29.94071 l 527.33723,0 c 27.2985,0 52.9566,-10.63139 72.2659,-29.94071 19.3093,-19.2968 29.9282,-44.96741 29.9282,-72.26592 0,-27.29852 -10.6189,-52.95662 -29.9282,-72.26594"
         style="fill:#8e8f8f;fill-opacity:1;fill-rule:nonzero;stroke:none"
         id="path1772"
         inkscape:connector-curvature="0" />
      <path
         d="m 1415.0037,87.27946 c -1.0143,0 -1.8283,0.81399 -1.8283,1.82824 l 0,164.14172 c 0,1.0143 0.814,1.82825 1.8283,1.82825 1.0143,0 1.8282,-0.81399 1.8282,-1.82825 l 0,-164.14172 c 0,-1.0143 -0.8139,-1.82824 -1.8282,-1.82824"
         style="fill:#8e8f8f;fill-opacity:1;fill-rule:nonzero;stroke:none"
         id="path1776"
         inkscape:connector-curvature="0" />
      <g
         id="g14321"
         transform="matrix(12.522254,0,0,-12.522254,549.92502,426.17548)">
        <path
           inkscape:connector-curvature="0"
           id="path1780"
           style="fill:#8e8f8f;fill-opacity:1;fill-rule:nonzero;stroke:none"
           d="m 40.617,14.2423 -0.068,-0.337 c -0.021,-0.081 -0.06,-0.102 -0.128,-0.102 l -1.152,0 c -0.329,0 -0.516,0.17 -0.516,0.541 l 0,2.688 c 0,0.077 0.034,0.094 0.132,0.094 l 0.405,0 c 0.098,0 0.132,-0.017 0.132,-0.094 l 0,-2.688 1.11,0 c 0.068,0 0.106,-0.021 0.085,-0.102" />
        <path
           inkscape:connector-curvature="0"
           id="path1784"
           style="fill:#8e8f8f;fill-opacity:1;fill-rule:nonzero;stroke:none"
           d="m 42.8226,14.2679 -0.047,-0.393 c -0.004,-0.051 -0.025,-0.072 -0.081,-0.072 l -1.263,0 c -0.328,0 -0.516,0.171 -0.516,0.542 l 0,2.688 c 0,0.059 0.025,0.093 0.094,0.093 l 1.728,0 c 0.051,0 0.081,-0.025 0.072,-0.076 l -0.042,-0.393 c -0.005,-0.051 -0.03,-0.072 -0.082,-0.072 l -1.1,0 0,-0.837 1.015,0 c 0.06,0 0.077,-0.025 0.073,-0.072 l -0.047,-0.393 c -0.005,-0.047 -0.03,-0.068 -0.086,-0.068 l -0.955,0 0,-0.87 1.165,0 c 0.055,0 0.076,-0.022 0.072,-0.077" />
        <path
           inkscape:connector-curvature="0"
           id="path1788"
           style="fill:#8e8f8f;fill-opacity:1;fill-rule:nonzero;stroke:none"
           d="m 44.815,14.9804 c -0.094,0.495 -0.247,1.097 -0.38,1.604 l -0.03,0 c -0.127,-0.507 -0.281,-1.109 -0.371,-1.604 l 0.781,0 z m -1.724,-1.097 c 0.295,1.131 0.585,2.24 0.866,3.119 0.026,0.086 0.082,0.124 0.184,0.124 l 0.554,0 c 0.12,0 0.163,-0.038 0.188,-0.124 0.277,-0.879 0.576,-1.988 0.871,-3.123 0.012,-0.055 -0.009,-0.077 -0.073,-0.077 l -0.499,0 c -0.068,0 -0.111,0.03 -0.12,0.073 l -0.128,0.58 -1.011,0 c -0.047,-0.196 -0.085,-0.388 -0.128,-0.589 -0.008,-0.038 -0.047,-0.064 -0.102,-0.064 l -0.529,0 c -0.068,0 -0.085,0.03 -0.073,0.081" />
        <path
           inkscape:connector-curvature="0"
           id="path1792"
           style="fill:#8e8f8f;fill-opacity:1;fill-rule:nonzero;stroke:none"
           d="m 47.6307,15.1084 c -0.286,0 -0.431,0.162 -0.431,0.435 l 0,0.03 c 0,0.055 0.021,0.081 0.072,0.081 l 0.982,0 c 0.055,0 0.081,-0.026 0.081,-0.077 l 0,-1.442 c 0,-0.115 -0.03,-0.175 -0.115,-0.213 -0.23,-0.102 -0.627,-0.167 -0.986,-0.167 -0.861,0 -1.25,0.346 -1.25,1.118 l 0,1.14 c 0,0.823 0.457,1.16 1.327,1.16 0.299,0 0.597,-0.038 0.802,-0.094 0.064,-0.017 0.081,-0.043 0.081,-0.115 l 0,-0.376 c 0,-0.059 -0.038,-0.072 -0.102,-0.055 -0.188,0.055 -0.47,0.085 -0.73,0.085 -0.418,0 -0.712,-0.136 -0.712,-0.661 l 0,-1.003 c 0,-0.256 0.038,-0.392 0.132,-0.499 0.077,-0.089 0.23,-0.145 0.465,-0.145 0.166,0 0.367,0.026 0.465,0.051 l 0,0.747 -0.081,0 z" />
        <path
           inkscape:connector-curvature="0"
           id="path1796"
           style="fill:#8e8f8f;fill-opacity:1;fill-rule:nonzero;stroke:none"
           d="m 49.1708,14.0204 c -0.201,0.184 -0.299,0.474 -0.299,0.87 l 0,2.163 c 0,0.043 0.022,0.073 0.077,0.073 l 0.516,0 c 0.052,0 0.077,-0.026 0.077,-0.073 l 0,-2.103 c 0,-0.205 0.022,-0.375 0.111,-0.486 0.077,-0.099 0.209,-0.154 0.393,-0.154 0.188,0 0.32,0.055 0.397,0.154 0.089,0.111 0.106,0.281 0.106,0.486 l 0,2.103 c 0,0.047 0.03,0.073 0.081,0.073 l 0.512,0 c 0.056,0 0.077,-0.03 0.077,-0.073 l 0,-2.163 c 0,-0.409 -0.107,-0.704 -0.324,-0.887 -0.196,-0.167 -0.478,-0.247 -0.849,-0.247 -0.393,0 -0.683,0.085 -0.875,0.264" />
        <path
           inkscape:connector-curvature="0"
           id="path1800"
           style="fill:#8e8f8f;fill-opacity:1;fill-rule:nonzero;stroke:none"
           d="m 53.7017,14.2679 -0.047,-0.393 c -0.004,-0.051 -0.025,-0.072 -0.081,-0.072 l -1.263,0 c -0.328,0 -0.516,0.171 -0.516,0.542 l 0,2.688 c 0,0.059 0.025,0.093 0.094,0.093 l 1.727,0 c 0.052,0 0.082,-0.025 0.073,-0.076 l -0.042,-0.393 c -0.005,-0.051 -0.031,-0.072 -0.082,-0.072 l -1.1,0 0,-0.837 1.015,0 c 0.06,0 0.077,-0.025 0.073,-0.072 l -0.047,-0.393 c -0.005,-0.047 -0.03,-0.068 -0.086,-0.068 l -0.955,0 0,-0.87 1.165,0 c 0.055,0 0.076,-0.022 0.072,-0.077" />
        <path
           inkscape:connector-curvature="0"
           id="path1804"
           style="fill:#8e8f8f;fill-opacity:1;fill-rule:nonzero;stroke:none"
           d="m 56.7093,14.4386 c 0.103,0.102 0.158,0.282 0.158,0.495 l 0,1.062 c 0,0.244 -0.06,0.393 -0.162,0.495 -0.085,0.085 -0.226,0.128 -0.393,0.128 -0.166,0 -0.311,-0.043 -0.397,-0.128 -0.102,-0.102 -0.157,-0.251 -0.157,-0.495 l 0,-1.062 c 0,-0.213 0.055,-0.393 0.157,-0.495 0.086,-0.085 0.231,-0.128 0.397,-0.128 0.167,0 0.311,0.043 0.397,0.128 m -1.297,-0.401 c -0.209,0.183 -0.324,0.461 -0.324,0.828 l 0,1.199 c 0,0.418 0.158,0.721 0.431,0.904 0.204,0.136 0.473,0.205 0.793,0.205 0.333,0 0.615,-0.077 0.824,-0.226 0.251,-0.184 0.4,-0.478 0.4,-0.883 l 0,-1.199 c 0,-0.406 -0.14,-0.7 -0.396,-0.884 -0.205,-0.149 -0.486,-0.226 -0.828,-0.226 -0.38,0 -0.687,0.094 -0.9,0.282" />
        <path
           inkscape:connector-curvature="0"
           id="path1808"
           style="fill:#8e8f8f;fill-opacity:1;fill-rule:nonzero;stroke:none"
           d="m 60.3955,17.0539 0,-3.179 c 0,-0.047 -0.034,-0.072 -0.081,-0.072 l -0.333,0 c -0.094,0 -0.136,0.038 -0.166,0.09 l -1.186,2.052 -0.026,0 0,-2.07 c 0,-0.051 -0.026,-0.072 -0.081,-0.072 l -0.03,0 c -0.303,0 -0.478,0.171 -0.478,0.542 l 0,2.709 c 0,0.047 0.017,0.072 0.069,0.072 l 0.375,0 c 0.077,0 0.119,-0.029 0.145,-0.089 l 1.178,-2.027 0.025,0 0,2.044 c 0,0.051 0.021,0.072 0.068,0.072 l 0.444,0 c 0.055,0 0.077,-0.021 0.077,-0.072" />
        <path
           inkscape:connector-curvature="0"
           id="path1812"
           style="fill:#8e8f8f;fill-opacity:1;fill-rule:nonzero;stroke:none"
           d="m 62.8913,14.2679 -0.047,-0.393 c -0.004,-0.051 -0.026,-0.072 -0.081,-0.072 l -1.263,0 c -0.329,0 -0.516,0.171 -0.516,0.542 l 0,2.688 c 0,0.059 0.025,0.093 0.094,0.093 l 1.727,0 c 0.052,0 0.082,-0.025 0.073,-0.076 l -0.043,-0.393 c -0.004,-0.051 -0.03,-0.072 -0.081,-0.072 l -1.101,0 0,-0.837 1.016,0 c 0.06,0 0.077,-0.025 0.073,-0.072 l -0.047,-0.393 c -0.005,-0.047 -0.03,-0.068 -0.086,-0.068 l -0.956,0 0,-0.87 1.165,0 c 0.056,0 0.077,-0.022 0.073,-0.077" />
      </g>
      <g
         id="g14315"
         transform="matrix(12.522254,0,0,-12.522254,549.92502,426.17548)">
        <path
           inkscape:connector-curvature="0"
           id="path1816"
           style="fill:#26358c;fill-opacity:1;fill-rule:nonzero;stroke:none"
           d="m 78.8578,13.826 0,0.761 -1.022,0 0,2.539 -0.82,0 0,-2.791 c 0,-0.281 0.228,-0.509 0.509,-0.509 l 1.333,0 z m -6.901,0.509 c 0,-0.281 0.228,-0.509 0.51,-0.509 l 1.476,0 0,0.761 -1.165,0 0,0.513 1.071,0 0,0.768 -1.071,0 0,0.493 1.17,0 0,0.765 -1.991,0 0,-2.791 z m 3.057,-0.509 c -0.281,0 -0.509,0.228 -0.509,0.509 l 0,2.791 2.001,0 0,-0.765 -1.18,0 0,-0.493 1.071,0 0,-0.768 -1.071,0 0,-1.274 -0.312,0 z" />
        <path
           inkscape:connector-curvature="0"
           id="path1820"
           style="fill:#26358c;fill-opacity:1;fill-rule:nonzero;stroke:none"
           d="m 78.1619,21.0247 c -0.207,0 -0.375,-0.168 -0.375,-0.375 0,-0.207 0.168,-0.375 0.375,-0.375 0.207,0 0.375,0.168 0.375,0.375 0,0.207 -0.168,0.375 -0.375,0.375 m 0.184,-0.954 c -0.198,0 -0.359,-0.16 -0.359,-0.358 0,-0.198 0.161,-0.358 0.359,-0.358 0.198,0 0.358,0.16 0.358,0.358 0,0.198 -0.16,0.358 -0.358,0.358 m -0.743,-0.497 c -0.237,0 -0.429,-0.192 -0.429,-0.429 0,-0.237 0.192,-0.429 0.429,-0.429 0.237,0 0.429,0.192 0.429,0.429 0,0.237 -0.192,0.429 -0.429,0.429 m -0.95,-0.421 c -0.254,0 -0.461,-0.206 -0.461,-0.461 0,-0.254 0.207,-0.461 0.461,-0.461 0.255,0 0.461,0.207 0.461,0.461 0,0.255 -0.206,0.461 -0.461,0.461 m -1.102,-0.149 c -0.273,0 -0.496,-0.222 -0.496,-0.495 0,-0.274 0.223,-0.496 0.496,-0.496 0.274,0 0.495,0.222 0.495,0.496 0,0.273 -0.221,0.495 -0.495,0.495 m -0.622,1.154 c -0.316,0 -0.572,-0.256 -0.572,-0.571 0,-0.316 0.256,-0.572 0.572,-0.572 0.316,0 0.571,0.256 0.571,0.572 0,0.315 -0.255,0.571 -0.571,0.571 m 2.389,0.437 c -0.25,0 -0.453,-0.203 -0.453,-0.454 0,-0.25 0.203,-0.453 0.453,-0.453 0.25,0 0.453,0.203 0.453,0.453 0,0.251 -0.203,0.454 -0.453,0.454 m 2.018,3.4 c -0.069,0 -0.125,-0.056 -0.125,-0.125 0,-0.069 0.056,-0.125 0.125,-0.125 0.07,0 0.126,0.056 0.126,0.125 0,0.069 -0.056,0.125 -0.126,0.125 m 0.044,-0.409 c -0.104,0 -0.187,-0.085 -0.187,-0.188 0,-0.103 0.083,-0.187 0.187,-0.187 0.103,0 0.187,0.084 0.187,0.187 0,0.103 -0.084,0.188 -0.187,0.188 m -0.278,-0.468 c -0.133,0 -0.241,-0.108 -0.241,-0.241 0,-0.133 0.108,-0.241 0.241,-0.241 0.133,0 0.241,0.108 0.241,0.241 0,0.133 -0.108,0.241 -0.241,0.241 m 0.45,-0.059 c -0.076,0 -0.138,-0.062 -0.138,-0.138 0,-0.076 0.062,-0.138 0.138,-0.138 0.076,0 0.138,0.062 0.138,0.138 0,0.076 -0.062,0.138 -0.138,0.138 m 0.01,-0.931 c -0.083,0 -0.15,-0.067 -0.15,-0.149 0,-0.083 0.067,-0.15 0.15,-0.15 0.082,0 0.149,0.067 0.149,0.15 0,0.082 -0.067,0.149 -0.149,0.149 m -0.124,0.502 c -0.11,0 -0.2,-0.09 -0.2,-0.201 0,-0.11 0.09,-0.199 0.2,-0.199 0.111,0 0.2,0.089 0.2,0.199 0,0.111 -0.089,0.201 -0.2,0.201 m -0.316,-0.61 c -0.12,0 -0.218,-0.098 -0.218,-0.219 0,-0.12 0.098,-0.218 0.218,-0.218 0.121,0 0.219,0.098 0.219,0.218 0,0.121 -0.098,0.219 -0.219,0.219 m 0.268,-0.465 c -0.112,0 -0.202,-0.09 -0.202,-0.203 0,-0.112 0.09,-0.203 0.202,-0.203 0.112,0 0.203,0.091 0.203,0.203 0,0.113 -0.091,0.203 -0.203,0.203 m -0.19,-0.5 c -0.123,0 -0.223,-0.1 -0.223,-0.224 0,-0.124 0.1,-0.224 0.223,-0.224 0.124,0 0.224,0.1 0.224,0.224 0,0.124 -0.1,0.224 -0.224,0.224 m -0.335,-0.479 c -0.156,0 -0.283,-0.126 -0.283,-0.283 0,-0.157 0.127,-0.283 0.283,-0.283 0.156,0 0.283,0.126 0.283,0.283 0,0.157 -0.127,0.283 -0.283,0.283 m -0.116,0.906 c -0.159,0 -0.288,-0.129 -0.288,-0.288 0,-0.159 0.129,-0.288 0.288,-0.288 0.159,0 0.288,0.129 0.288,0.288 0,0.159 -0.129,0.288 -0.288,0.288 m -0.004,1.115 c -0.166,0 -0.301,-0.135 -0.301,-0.301 0,-0.166 0.135,-0.3 0.301,-0.3 0.166,0 0.301,0.134 0.301,0.3 0,0.166 -0.135,0.301 -0.301,0.301 m -0.54,-0.505 c -0.21,0 -0.381,-0.17 -0.381,-0.38 0,-0.21 0.171,-0.38 0.381,-0.38 0.209,0 0.38,0.17 0.38,0.38 0,0.21 -0.171,0.38 -0.38,0.38 m -0.818,-0.41 c -0.254,0 -0.46,-0.206 -0.46,-0.46 0,-0.255 0.206,-0.461 0.46,-0.461 0.254,0 0.461,0.206 0.461,0.461 0,0.254 -0.207,0.46 -0.461,0.46 m -1.174,-1.378 c -0.3,0 -0.543,-0.243 -0.543,-0.543 0,-0.299 0.243,-0.543 0.543,-0.543 0.3,0 0.543,0.244 0.543,0.543 0,0.3 -0.243,0.543 -0.543,0.543 m 0.049,1.26 c -0.307,0 -0.556,-0.249 -0.556,-0.555 0,-0.307 0.249,-0.556 0.556,-0.556 0.306,0 0.555,0.249 0.555,0.556 0,0.306 -0.249,0.555 -0.555,0.555 m -0.728,-0.602 c 0,-0.343 -0.279,-0.622 -0.622,-0.622 -0.344,0 -0.622,0.279 -0.622,0.622 0,0.344 0.278,0.622 0.622,0.622 0.343,0 0.622,-0.278 0.622,-0.622" />
        <path
           inkscape:connector-curvature="0"
           id="path1824"
           style="fill:#26358c;fill-opacity:1;fill-rule:nonzero;stroke:none"
           d="m 75.4364,26.0797 c -0.207,0 -0.375,-0.168 -0.375,-0.375 0,-0.207 0.168,-0.375 0.375,-0.375 0.207,0 0.375,0.168 0.375,0.375 0,0.207 -0.168,0.375 -0.375,0.375 m 0.72,0.611 c -0.199,0 -0.359,-0.16 -0.359,-0.358 0,-0.198 0.16,-0.359 0.359,-0.359 0.197,0 0.358,0.161 0.358,0.359 0,0.198 -0.161,0.358 -0.358,0.358 m 0.863,-0.289 c -0.237,0 -0.429,-0.192 -0.429,-0.428 0,-0.238 0.192,-0.43 0.429,-0.43 0.237,0 0.429,0.192 0.429,0.43 0,0.236 -0.192,0.428 -0.429,0.428 m 0.867,-0.564 c -0.255,0 -0.461,-0.206 -0.461,-0.461 0,-0.254 0.206,-0.461 0.461,-0.461 0.254,0 0.461,0.207 0.461,0.461 0,0.255 -0.207,0.461 -0.461,0.461 m 0.71,-0.828 c -0.274,0 -0.495,-0.222 -0.495,-0.496 0,-0.273 0.221,-0.495 0.495,-0.495 0.274,0 0.495,0.222 0.495,0.495 0,0.274 -0.221,0.496 -0.495,0.496 m -0.622,-1.002 c -0.316,0 -0.572,-0.256 -0.572,-0.571 0,-0.316 0.256,-0.572 0.572,-0.572 0.315,0 0.571,0.256 0.571,0.572 0,0.315 -0.256,0.571 -0.571,0.571 m -1.676,1.674 c -0.25,0 -0.453,-0.203 -0.453,-0.454 0,-0.25 0.203,-0.453 0.453,-0.453 0.251,0 0.454,0.203 0.454,0.453 0,0.251 -0.203,0.454 -0.454,0.454 m -4.238,-0.445 c -0.069,0 -0.125,-0.056 -0.125,-0.125 0,-0.069 0.056,-0.125 0.125,-0.125 0.069,0 0.125,0.056 0.125,0.125 0,0.069 -0.056,0.125 -0.125,0.125 m 0.387,0.336 c -0.103,0 -0.187,-0.084 -0.187,-0.187 0,-0.104 0.084,-0.188 0.187,-0.188 0.104,0 0.187,0.084 0.187,0.188 0,0.103 -0.083,0.187 -0.187,0.187 m 0.59,0.073 c -0.133,0 -0.24,-0.107 -0.24,-0.24 0,-0.133 0.107,-0.241 0.24,-0.241 0.133,0 0.241,0.108 0.241,0.241 0,0.133 -0.108,0.24 -0.241,0.24 m -0.263,0.266 c -0.076,0 -0.138,-0.062 -0.138,-0.138 0,-0.077 0.062,-0.138 0.138,-0.138 0.077,0 0.138,0.061 0.138,0.138 0,0.076 -0.061,0.138 -0.138,0.138 m 0.814,0.485 c -0.082,0 -0.149,-0.066 -0.149,-0.149 0,-0.082 0.067,-0.149 0.149,-0.149 0.083,0 0.15,0.067 0.15,0.149 0,0.083 -0.067,0.149 -0.15,0.149 m -0.331,-0.277 c -0.111,0 -0.2,-0.089 -0.2,-0.199 0,-0.111 0.089,-0.2 0.2,-0.2 0.11,0 0.2,0.089 0.2,0.2 0,0.11 -0.09,0.199 -0.2,0.199 m 0.701,0.059 c -0.12,0 -0.218,-0.098 -0.218,-0.218 0,-0.121 0.098,-0.218 0.218,-0.218 0.121,0 0.219,0.097 0.219,0.218 0,0.12 -0.098,0.218 -0.219,0.218 m 0.256,0.442 c -0.113,0 -0.204,-0.092 -0.204,-0.203 0,-0.113 0.091,-0.203 0.204,-0.203 0.112,0 0.202,0.09 0.202,0.203 0,0.111 -0.09,0.203 -0.202,0.203 m 0.546,0.116 c -0.123,0 -0.224,-0.1 -0.224,-0.223 0,-0.124 0.101,-0.224 0.224,-0.224 0.124,0 0.224,0.1 0.224,0.224 0,0.123 -0.1,0.223 -0.224,0.223 m 0.634,0.042 c -0.157,0 -0.284,-0.127 -0.284,-0.284 0,-0.156 0.127,-0.283 0.284,-0.283 0.156,0 0.283,0.127 0.283,0.283 0,0.157 -0.127,0.284 -0.283,0.284 m -0.723,-0.55 c -0.159,0 -0.288,-0.129 -0.288,-0.287 0,-0.16 0.129,-0.289 0.288,-0.289 0.159,0 0.288,0.129 0.288,0.289 0,0.159 -0.129,0.287 -0.288,0.287 m -0.952,-0.542 c -0.166,0 -0.301,-0.135 -0.301,-0.3 0,-0.166 0.135,-0.301 0.301,-0.301 0.166,0 0.3,0.135 0.3,0.301 0,0.165 -0.134,0.3 -0.3,0.3 m 0.776,-0.096 c -0.211,0 -0.38,-0.17 -0.381,-0.38 0,-0.21 0.17,-0.38 0.381,-0.38 0.209,0 0.38,0.17 0.38,0.38 0,0.21 -0.171,0.38 -0.38,0.38 m 0.833,-0.383 c -0.254,0 -0.46,-0.206 -0.46,-0.46 0,-0.254 0.206,-0.461 0.46,-0.461 0.254,0 0.461,0.207 0.461,0.461 0,0.254 -0.207,0.46 -0.461,0.46 m 1.852,-0.204 c -0.3,0 -0.543,-0.242 -0.543,-0.542 0,-0.3 0.243,-0.543 0.543,-0.543 0.299,0 0.543,0.243 0.543,0.543 0,0.3 -0.244,0.542 -0.543,0.542 m -1.105,-0.568 c -0.306,0 -0.555,-0.249 -0.555,-0.556 0,-0.307 0.249,-0.556 0.555,-0.556 0.307,0 0.556,0.249 0.556,0.556 0,0.307 -0.249,0.556 -0.556,0.556 m 0.716,-1.08 c -0.344,0 -0.623,-0.278 -0.623,-0.622 0,-0.343 0.279,-0.622 0.623,-0.622 0.343,0 0.622,0.279 0.622,0.622 0,0.344 -0.279,0.622 -0.622,0.622" />
        <path
           inkscape:connector-curvature="0"
           id="path1828"
           style="fill:#8e8f8f;fill-opacity:1;fill-rule:nonzero;stroke:none"
           d="m 72.4213,21.1919 c -0.207,0 -0.375,-0.168 -0.375,-0.375 0,-0.207 0.168,-0.375 0.375,-0.375 0.207,0 0.375,0.168 0.375,0.375 0,0.207 -0.168,0.375 -0.375,0.375 m -0.903,0.293 c -0.199,0 -0.359,-0.161 -0.359,-0.359 0,-0.198 0.16,-0.359 0.359,-0.359 0.197,0 0.358,0.161 0.358,0.359 0,0.198 -0.161,0.359 -0.358,0.359 m -0.121,0.997 c -0.237,0 -0.429,-0.192 -0.429,-0.428 0,-0.237 0.192,-0.43 0.429,-0.43 0.237,0 0.429,0.192 0.429,0.43 0,0.236 -0.192,0.428 -0.429,0.428 m 0.083,1.081 c -0.255,0 -0.461,-0.206 -0.461,-0.46 0,-0.255 0.206,-0.462 0.461,-0.462 0.254,0 0.461,0.207 0.461,0.462 0,0.254 -0.207,0.46 -0.461,0.46 m 0.392,1.081 c -0.274,0 -0.495,-0.222 -0.495,-0.495 0,-0.274 0.221,-0.495 0.495,-0.495 0.274,0 0.495,0.221 0.495,0.495 0,0.273 -0.221,0.495 -0.495,0.495 m 1.244,0.076 c -0.315,0 -0.571,-0.256 -0.571,-0.571 0,-0.316 0.256,-0.572 0.571,-0.572 0.316,0 0.572,0.256 0.572,0.572 0,0.315 -0.256,0.571 -0.572,0.571 m -0.713,-2.464 c -0.251,0 -0.453,-0.204 -0.453,-0.454 0,-0.25 0.202,-0.453 0.453,-0.453 0.25,0 0.453,0.203 0.453,0.453 0,0.25 -0.203,0.454 -0.453,0.454 m 2.22,-3.941 c -0.07,0 -0.126,-0.056 -0.126,-0.125 0,-0.069 0.057,-0.126 0.126,-0.126 0.069,0 0.125,0.057 0.125,0.126 0,0.069 -0.056,0.125 -0.125,0.125 m -0.431,0.26 c -0.103,0 -0.187,-0.083 -0.187,-0.187 0,-0.103 0.084,-0.187 0.187,-0.187 0.103,0 0.188,0.084 0.188,0.187 0,0.104 -0.085,0.187 -0.188,0.187 m -0.312,0.555 c -0.133,0 -0.241,-0.108 -0.241,-0.241 0,-0.133 0.108,-0.24 0.241,-0.24 0.133,0 0.24,0.107 0.24,0.24 0,0.133 -0.107,0.241 -0.24,0.241 m -0.187,-0.515 c -0.077,0 -0.138,-0.061 -0.138,-0.138 0,-0.076 0.061,-0.137 0.138,-0.137 0.076,0 0.138,0.061 0.138,0.137 0,0.077 -0.062,0.138 -0.138,0.138 m -0.818,0.48 c -0.083,0 -0.15,-0.067 -0.15,-0.15 0,-0.082 0.067,-0.149 0.15,-0.149 0.082,0 0.149,0.067 0.149,0.149 0,0.083 -0.067,0.15 -0.149,0.15 m 0.449,-0.073 c -0.111,0 -0.2,-0.09 -0.2,-0.2 0,-0.111 0.089,-0.2 0.2,-0.2 0.111,0 0.2,0.089 0.2,0.2 0,0.11 -0.089,0.2 -0.2,0.2 m -0.386,0.606 c -0.12,0 -0.218,-0.098 -0.218,-0.218 0,-0.121 0.098,-0.219 0.218,-0.219 0.121,0 0.218,0.098 0.218,0.219 0,0.12 -0.097,0.218 -0.218,0.218 m -0.523,-0.023 c -0.112,0 -0.203,-0.091 -0.203,-0.203 0,-0.112 0.091,-0.203 0.203,-0.203 0.112,0 0.203,0.091 0.203,0.203 0,0.112 -0.091,0.203 -0.203,0.203 m -0.356,0.446 c -0.124,0 -0.224,-0.1 -0.224,-0.224 0,-0.123 0.1,-0.224 0.224,-0.224 0.123,0 0.223,0.101 0.223,0.224 0,0.124 -0.1,0.224 -0.223,0.224 m -0.299,0.619 c -0.156,0 -0.283,-0.127 -0.283,-0.283 0,-0.157 0.127,-0.284 0.283,-0.284 0.157,0 0.284,0.127 0.284,0.284 0,0.156 -0.127,0.283 -0.284,0.283 m 0.839,-0.345 c -0.16,0 -0.288,-0.129 -0.288,-0.289 0,-0.159 0.128,-0.287 0.288,-0.287 0.159,0 0.288,0.128 0.288,0.287 0,0.16 -0.129,0.289 -0.288,0.289 m 0.956,-0.536 c -0.166,0 -0.3,-0.134 -0.3,-0.3 0,-0.166 0.134,-0.301 0.3,-0.301 0.166,0 0.301,0.135 0.301,0.301 0,0.166 -0.135,0.3 -0.301,0.3 m -0.235,0.84 c -0.21,0 -0.38,-0.17 -0.38,-0.38 0,-0.21 0.17,-0.38 0.38,-0.38 0.21,0 0.38,0.17 0.38,0.38 0,0.21 -0.17,0.38 -0.38,0.38 m -0.016,1.033 c -0.255,0 -0.461,-0.206 -0.461,-0.46 0,-0.255 0.206,-0.461 0.461,-0.461 0.254,0 0.46,0.206 0.46,0.461 0,0.254 -0.206,0.46 -0.46,0.46 m -0.678,1.83 c -0.3,0 -0.543,-0.243 -0.543,-0.543 0,-0.3 0.243,-0.543 0.543,-0.543 0.3,0 0.543,0.243 0.543,0.543 0,0.3 -0.244,0.543 -0.543,0.543 m 1.056,-0.654 c -0.307,0 -0.556,-0.248 -0.556,-0.555 0,-0.306 0.249,-0.555 0.556,-0.555 0.307,0 0.556,0.249 0.556,0.555 0,0.307 -0.249,0.555 -0.556,0.555 m 0.634,1.26 c -0.343,0 -0.622,-0.279 -0.622,-0.623 0,-0.343 0.279,-0.622 0.622,-0.622 0.344,0 0.623,0.279 0.623,0.622 0,0.344 -0.279,0.623 -0.623,0.623" />
      </g>
      <g
         transform="translate(0,226.53341)"
         id="g14573">
        <path
           style="fill:#aa1a27;fill-opacity:1;fill-rule:evenodd;stroke:none"
           d="m 1163.1754,-33.763748 216.8115,0 c 4.812,0 8.7209,-3.909241 8.7209,-9.021293 l 0,-80.289719 c 0,-5.11206 -3.9089,-9.0213 -8.7209,-9.0213 l -216.8115,0 0,98.332312 z"
           id="path14575"
           inkscape:connector-curvature="0" />
        <path
           style="fill:#0e2d6d;fill-opacity:1;fill-rule:nonzero;stroke:none"
           d="m 1163.1754,-132.09606 -169.90147,0 c -5.1122,0 -9.02114,3.90924 -9.02114,9.0213 l 0,80.289719 c 0,5.112052 3.90894,9.021293 9.02114,9.021293 l 169.90147,0 0,-98.332312 z"
           id="path14577"
           inkscape:connector-curvature="0" />
        <path
           style="fill:#93acd3;fill-opacity:1;fill-rule:evenodd;stroke:none"
           d="m 1163.1754,-129.99115 -171.70517,0 c 0,0 3.6074,20.14764 27.36447,37.288266 0,0 12.0282,9.021293 19.8458,9.021293 l 124.4949,0 0,-46.309559 z"
           id="path14579"
           inkscape:connector-curvature="0" />
        <path
           style="fill:#eb9098;fill-opacity:1;fill-rule:evenodd;stroke:none"
           d="m 1163.1754,-129.99115 218.6152,0 c 0,0 -3.9089,20.14764 -27.3647,37.288266 0,0 -12.0279,9.021293 -20.1471,9.021293 l -171.1034,0 0,-46.309559 z"
           id="path14581"
           inkscape:connector-curvature="0" />
        <path
           style="fill:#ffffff;fill-opacity:1;fill-rule:nonzero;stroke:none"
           d="m 1102.432,-40.680138 c 1.2006,0.300149 3.6087,1.203338 6.6157,1.203338 5.1122,0.300171 7.8178,-1.804338 9.9229,-6.314973 l 27.3647,-61.345027 c -1.2007,-0.60168 -3.6087,-1.20333 -5.714,-1.20333 -3.6087,0 -8.1178,0.60165 -11.4263,7.81848 l -8.721,21.049888 -17.4416,-28.266978 c -1.2006,-0.60168 -3.9089,-0.90183 -5.7124,-0.90183 -6.3157,0 -9.6229,2.40574 -13.2314,6.01428 l -17.1403,18.644133 13.5316,21.35017 c 2.7067,3.909263 6.0139,6.014298 11.4264,6.014298 3.3085,0 6.3154,-0.901829 7.5187,-1.503641 l -15.9381,-24.658015 11.7279,-12.32914 18.9451,30.070765 -11.7279,24.357714 z m -36.0855,-23.45549 c 0,4.510658 -1.5034,7.21711 -10.5244,7.21711 -1.2006,0 -2.1052,0 -3.0069,0 l 0,-60.142082 c 0,-4.51065 1.5035,-9.02129 10.2228,-9.02129 1.2007,0 2.4068,0 3.3085,0.30015 l 0,61.645564 z m -18.0433,-8.720727 c 0,8.42003 -5.4122,14.434196 -16.5386,15.637117 -8.1192,0.901829 -19.8471,-0.300148 -25.2593,-0.901828 -0.3002,-0.901829 -0.6004,-2.104904 -0.6004,-3.006996 0,-7.21724 4.2105,-9.021446 7.8192,-9.021446 3.9087,0 9.9226,0.901828 14.7333,0.901828 4.8122,0 6.3157,-1.804206 6.3157,-3.608543 0,-1.804206 -2.1052,-3.006732 -6.0142,-3.608127 l -10.5244,-2.104903 c -8.7209,-1.804338 -13.5329,-7.818636 -13.5329,-14.434328 0,-7.818509 5.4138,-14.434199 16.5399,-15.636989 8.1192,-0.90183 18.3436,0.30015 23.756,0.90183 0.3,0.90183 0.6002,1.80434 0.6002,2.70645 0,7.517788 -3.9102,9.021428 -7.5174,9.021428 -3.0085,0 -7.519,-0.60168 -12.6299,-0.60168 -5.1122,0 -7.2172,1.503509 -7.2172,3.007017 0,2.105035 2.105,2.70643 5.1122,3.307847 l 10.2229,1.804337 c 10.5259,2.405733 14.7349,8.119201 14.7349,15.636569 z"
           id="path14583"
           inkscape:connector-curvature="0" />
        <path
           style="fill:#ffffff;fill-opacity:1;fill-rule:nonzero;stroke:none"
           d="m 1212.4922,-49.400734 -18.0436,0 c -2.105,0 -3.6085,0 -5.112,-0.60168 -1.2006,-0.300148 -2.1039,-0.901828 -2.7056,-1.50364 -0.6002,-0.60168 -1.2007,-1.503509 -1.5035,-2.405601 0,-0.901828 -0.3,-2.105035 -0.3,-3.007149 l 0,-50.519366 c 0,-1.20336 0.3,-2.10491 0.3,-3.30785 0.3002,-0.90183 0.9004,-1.50351 1.5035,-2.4056 0.6004,-0.60168 1.5035,-1.20336 2.7056,-1.50364 1.5035,-0.30017 3.007,-0.60168 5.112,-0.60168 l 17.4419,0 c 5.1122,0 9.6226,0.30015 12.9298,1.50364 3.3085,0.90183 6.6157,1.80421 8.4207,3.30785 2.1053,1.50351 3.909,3.60854 4.8107,5.41275 0.9004,2.10503 1.5035,4.20993 1.5035,6.615689 0,3.307846 -0.9004,6.014276 -3.007,8.419898 -2.1052,2.405733 -4.8107,4.51079 -8.4194,5.412882 l -1.5035,0.601679 1.8037,0.601659 c 5.1122,1.503662 8.721,3.608565 10.826,6.014297 2.1052,2.706035 3.3072,5.713052 3.3072,8.720179 0,6.314995 -2.7055,10.825653 -7.5175,14.133499 -5.1122,3.608544 -12.6296,5.112184 -22.5525,5.112184 m -11.4279,-11.727876 0.6004,0 9.021,0 c 4.8122,0 7.8191,-0.60168 10.2244,-1.804206 2.4054,-1.20336 3.3085,-3.307846 3.3085,-6.615693 0,-0.901828 0,-1.804206 -0.6002,-2.706451 -0.3003,-0.901829 -0.9005,-1.804206 -1.8051,-2.706298 -0.9004,-0.60168 -2.1052,-1.201978 -3.9089,-1.503224 -1.8037,-0.30017 -3.9087,-0.901828 -6.6157,-0.901828 l -9.6226,0 -0.6003,0 0,0.601658 0,15.035174 0,0.60168 z m 0,-26.462222 0.6004,0 9.021,0 c 2.4054,0 4.2104,-0.300148 5.7139,-0.60168 1.5035,-0.300148 2.7068,-0.901828 3.6087,-1.804337 0.9004,-0.60168 1.5035,-1.503509 1.8037,-2.405601 0.3,-0.901829 0.6002,-1.804338 0.6002,-2.706452 0,-2.706429 -0.9004,-4.510635 -2.7067,-5.713578 -2.1039,-1.20336 -5.1122,-1.80421 -9.3214,-1.80421 l -8.7207,0 -0.6004,0 0,0.60168 0,14.133481 0,0.300149 z"
           id="path14585"
           inkscape:connector-curvature="0" />
        <path
           style="fill:#ffffff;fill-opacity:1;fill-rule:nonzero;stroke:none"
           d="m 1266.9197,-63.233514 0,-12.028178 23.1558,0 c 5.4109,0 8.4179,-2.104904 8.4179,-9.321991 0,-1.50364 -0.3003,-3.307846 -0.6003,-4.20996 l -30.9719,0 0,-12.930667 23.7571,0 c 5.4111,0 8.7197,-1.80434 8.7197,-9.02145 0,-1.50348 -0.3003,-3.30784 -0.6005,-4.20993 l -35.7839,0 c -10.2244,0 -12.0279,5.11218 -12.0279,10.52493 l 0,54.428632 0,0.300148 41.1977,0 c 5.4109,0 8.4178,-1.804337 8.4178,-9.021425 0,-1.804206 -0.3,-3.307846 -0.6002,-4.510657 l -33.0771,0 z"
           id="path14587"
           inkscape:connector-curvature="0" />
        <path
           style="fill:#ffffff;fill-opacity:1;fill-rule:nonzero;stroke:none"
           d="m 1344.503,-101.72431 12.9298,0 c 4.2105,0 8.4208,-1.80434 8.4208,-10.22424 0,-0.90182 0,-2.10505 -0.3,-3.30784 l -49.9173,0 c -4.2102,0 -8.7209,1.80434 -8.7209,10.52493 0,0.90183 0.3002,2.10504 0.6004,3.00715 l 21.049,0 0,52.323576 c 1.2007,0 2.7068,0.300149 3.9088,0.300149 9.9244,0 12.0294,-3.007149 12.0294,-7.818482 l 0,-44.805793 z"
           id="path14589"
           inkscape:connector-curvature="0" />
      </g>
    </g>
  </g>
</svg>
