<svg xmlns="http://www.w3.org/2000/svg" width="70" height="60" viewBox="0 0 545.24 782.51" version="1.1">
<defs>
<clipPath id="clip1">
  <path d="M 0 0 L 545.238281 0 L 545.238281 782.511719 L 0 782.511719 Z M 0 0 "/>
</clipPath>
</defs>
<g id="surface1">
<path style=" stroke:none;fill-rule:nonzero;fill:rgb(69.799805%,70.199585%,68.998718%);fill-opacity:1;" d="M 507.917969 738.53125 L 507.03125 736.851563 "/>
<path style=" stroke:none;fill-rule:nonzero;fill:rgb(99.598694%,99.598694%,99.598694%);fill-opacity:1;" d="M 20.21875 693.234375 C 20.21875 698.921875 20.320313 704.609375 20.171875 710.289063 C 20.109375 712.597656 20.84375 714.386719 22.425781 715.90625 C 23.652344 717.078125 24.839844 718.355469 26.246094 719.265625 C 30.269531 721.859375 34.277344 724.53125 38.511719 726.742188 C 49.074219 732.257813 60.257813 736.3125 71.550781 740.027344 C 108.035156 752.019531 145.53125 759.300781 183.585938 763.949219 C 186.242188 764.273438 188.917969 764.46875 191.859375 764.75 C 192.261719 758.605469 193.339844 752.761719 193.425781 746.78125 C 188.988281 746.257813 184.921875 745.824219 180.863281 745.292969 C 162.929688 742.949219 145.070313 740.136719 127.359375 736.460938 C 100.421875 730.871094 74.011719 723.515625 48.425781 713.273438 C 37.445313 708.878906 27.761719 702.902344 20.21875 693.234375 M 351.550781 765.425781 C 353.113281 765.335938 354.402344 765.324219 355.675781 765.175781 C 360.839844 764.578125 366.023438 764.121094 371.144531 763.273438 C 386.019531 760.820313 400.925781 758.496094 415.710938 755.574219 C 439.039063 750.96875 461.949219 744.714844 484.265625 736.433594 C 493.914063 732.851563 503.453125 728.96875 512.171875 723.421875 C 515.351563 721.398438 518.222656 718.871094 521.121094 716.4375 C 522.714844 715.101563 523.351563 713.289063 523.292969 711.09375 C 523.160156 705.996094 523.261719 700.894531 523.238281 695.792969 C 523.238281 695.179688 523.070313 694.566406 522.960938 693.828125 C 522.574219 694.101563 522.375 694.183594 522.269531 694.332031 C 516.386719 702.515625 508.511719 708.183594 499.382813 712.179688 C 495.179688 714.019531 490.882813 715.652344 486.585938 717.261719 C 446.425781 732.324219 404.6875 740.601563 362.296875 746.054688 C 358.253906 746.574219 354.207031 747.050781 349.824219 747.589844 C 350.402344 753.582031 350.96875 759.394531 351.550781 765.425781 "/>
<path style=" stroke:none;fill-rule:nonzero;fill:rgb(89.7995%,15.699768%,20.399475%);fill-opacity:1;" d="M 351.550781 765.425781 C 350.96875 759.394531 350.402344 753.582031 349.820313 747.589844 C 354.207031 747.050781 358.253906 746.574219 362.296875 746.054688 C 404.6875 740.601563 446.425781 732.324219 486.585938 717.261719 C 490.882813 715.652344 495.179688 714.019531 499.382813 712.179688 C 508.511719 708.183594 516.386719 702.515625 522.269531 694.332031 C 522.375 694.183594 522.574219 694.101563 522.960938 693.828125 C 523.070313 694.566406 523.238281 695.179688 523.238281 695.792969 C 523.261719 700.894531 523.160156 705.996094 523.292969 711.09375 C 523.351563 713.289063 522.714844 715.101563 521.121094 716.4375 C 518.222656 718.871094 515.351563 721.398438 512.171875 723.421875 C 503.453125 728.96875 493.914063 732.851563 484.265625 736.433594 C 461.945313 744.714844 439.039063 750.96875 415.710938 755.574219 C 400.925781 758.496094 386.019531 760.820313 371.144531 763.273438 C 366.023438 764.121094 360.839844 764.578125 355.675781 765.175781 C 354.402344 765.324219 353.113281 765.335938 351.550781 765.425781 "/>
<path style=" stroke:none;fill-rule:nonzero;fill:rgb(6.298828%,56.898499%,29.798889%);fill-opacity:1;" d="M 20.21875 693.234375 C 27.761719 702.902344 37.445313 708.878906 48.425781 713.273438 C 74.011719 723.515625 100.421875 730.871094 127.359375 736.460938 C 145.070313 740.136719 162.929688 742.949219 180.863281 745.292969 C 184.921875 745.824219 188.988281 746.257813 193.425781 746.78125 C 193.339844 752.761719 192.261719 758.605469 191.859375 764.75 C 188.917969 764.46875 186.242188 764.273438 183.585938 763.949219 C 145.53125 759.300781 108.035156 752.019531 71.550781 740.027344 C 60.257813 736.3125 49.074219 732.257813 38.511719 726.742188 C 34.277344 724.53125 30.269531 721.859375 26.246094 719.265625 C 24.839844 718.355469 23.652344 717.078125 22.425781 715.90625 C 20.84375 714.386719 20.109375 712.597656 20.171875 710.289063 C 20.320313 704.609375 20.21875 698.921875 20.21875 693.234375 "/>
<path style=" stroke:none;fill-rule:nonzero;fill:rgb(100%,100%,100%);fill-opacity:1;" d="M 307.40625 439.144531 L 321.769531 439.144531 C 321.769531 437.40625 321.871094 435.820313 321.753906 434.25 C 321.507813 431.09375 318.972656 428.269531 315.84375 427.992188 C 313.09375 427.75 310.304688 427.941406 307.40625 427.941406 Z M 386.40625 399.285156 C 386.957031 399.4375 387.171875 399.574219 387.320313 399.527344 C 396.246094 396.667969 404.65625 392.824219 411.800781 386.605469 C 414.757813 384.027344 417.339844 381.117188 419.023438 377.507813 C 419.472656 376.550781 419.707031 375.574219 418.84375 374.742188 C 417.941406 373.871094 416.882813 373.304688 415.585938 373.761719 C 415.027344 373.957031 414.507813 374.285156 414 374.59375 C 407.769531 378.394531 401.539063 382.195313 395.328125 386.019531 C 394.570313 386.488281 393.695313 386.984375 393.253906 387.703125 C 390.921875 391.496094 388.707031 395.363281 386.40625 399.285156 M 307.585938 444.070313 C 306.988281 448.425781 307.167969 496.859375 307.804688 499.128906 C 310.039063 499.128906 312.328125 499.144531 314.617188 499.125 C 316.964844 499.109375 319.3125 499.058594 321.664063 499.023438 C 321.726563 498.246094 321.789063 497.851563 321.789063 497.457031 C 321.792969 482.15625 321.792969 466.855469 321.789063 451.554688 C 321.789063 451.054688 321.804688 450.550781 321.738281 450.058594 C 321.34375 447.046875 318.835938 444.339844 315.855469 444.117188 C 313.097656 443.910156 310.316406 444.070313 307.585938 444.070313 M 289.378906 499 C 289.378906 494.675781 289.375 490.679688 289.378906 486.683594 C 289.378906 480.984375 289.296875 475.28125 289.40625 469.582031 C 289.535156 462.921875 293.003906 459.355469 299.496094 458.957031 C 300.296875 458.90625 301.097656 458.914063 301.894531 458.910156 C 303.152344 458.902344 304.410156 458.90625 305.695313 458.90625 L 305.695313 444.15625 C 300.339844 443.898438 295.328125 444.578125 290.476563 446.335938 C 283.65625 448.804688 279.0625 453.492188 276.605469 460.304688 C 275.371094 463.730469 274.855469 467.269531 274.855469 470.894531 C 274.859375 479.496094 274.851563 488.097656 274.867188 496.699219 C 274.871094 497.453125 275.007813 498.210938 275.089844 499 Z M 272.71875 481.925781 C 269.246094 481.925781 266.070313 481.992188 262.898438 481.90625 C 260.425781 481.839844 258.402344 482.53125 256.902344 484.59375 C 254.328125 488.121094 247.554688 488.765625 243.617188 486.894531 C 239.695313 485.023438 237.304688 480.132813 238.070313 475.144531 L 273.496094 475.144531 C 273.894531 469.054688 273.429688 463.347656 271.433594 457.820313 C 268.59375 449.949219 263.097656 444.988281 254.859375 443.40625 C 251.847656 442.824219 248.699219 442.644531 245.628906 442.746094 C 235.296875 443.089844 227.5625 448.996094 224.527344 458.859375 C 221.960938 467.203125 221.964844 475.671875 224.695313 483.945313 C 227.511719 492.480469 233.363281 498.007813 242.414063 499.488281 C 245.535156 499.996094 248.804688 500.015625 251.96875 499.761719 C 257.054688 499.351563 261.660156 497.472656 265.566406 494.074219 C 269.222656 490.898438 271.484375 486.914063 272.71875 481.925781 M 373.980469 475.257813 C 374.339844 469.40625 374.054688 464.066406 372.359375 458.851563 C 369.589844 450.308594 363.898438 444.957031 355.027344 443.300781 C 352.300781 442.789063 349.460938 442.65625 346.679688 442.71875 C 335.730469 442.960938 327.679688 449.238281 324.800781 459.835938 C 322.710938 467.519531 322.703125 475.316406 324.941406 482.945313 C 327.65625 492.179688 333.757813 498.050781 343.429688 499.601563 C 346.355469 500.074219 349.429688 500.027344 352.398438 499.785156 C 357.597656 499.355469 362.300781 497.457031 366.261719 493.964844 C 369.871094 490.785156 372.09375 486.8125 373.273438 481.925781 C 369.828125 481.925781 366.730469 482 363.636719 481.902344 C 361.054688 481.824219 359.097656 482.660156 357.34375 484.65625 C 352.496094 490.164063 342.761719 488.710938 339.617188 482.125 C 338.617188 480.035156 338.230469 477.8125 338.214844 475.257813 Z M 164.628906 477.164063 C 164.539063 477.5625 164.421875 477.839844 164.429688 478.113281 C 164.445313 478.8125 164.472656 479.515625 164.578125 480.207031 C 166.019531 489.699219 171.230469 496.214844 180.390625 499.0625 C 189.285156 501.832031 198.355469 501.695313 207.285156 499.015625 C 214.128906 496.964844 218.953125 492.640625 221.1875 485.691406 C 222.4375 481.804688 222.617188 477.804688 222 473.824219 C 221.1875 468.601563 218.480469 464.445313 213.84375 461.863281 C 211.425781 460.515625 208.753906 459.527344 206.089844 458.742188 C 200.539063 457.105469 194.890625 455.808594 189.339844 454.175781 C 187.066406 453.507813 184.78125 452.589844 182.78125 451.34375 C 179.125 449.066406 178.546875 444.75 181.457031 441.554688 C 182.609375 440.289063 184.269531 439.15625 185.898438 438.734375 C 188.273438 438.117188 190.832031 437.976563 193.300781 438.03125 C 198.394531 438.148438 202.660156 439.867188 205.070313 444.824219 C 206.039063 446.816406 207.765625 448.160156 210.015625 448.277344 C 213.1875 448.4375 216.371094 448.316406 219.667969 448.316406 C 219.667969 447.425781 219.765625 446.625 219.652344 445.859375 C 218.261719 436.652344 213.492188 430.160156 204.398438 427.332031 C 198.0625 425.363281 191.542969 425.433594 185.085938 426.402344 C 181.972656 426.871094 178.835938 427.855469 175.96875 429.167969 C 170.445313 431.703125 167.152344 436.257813 165.839844 442.160156 C 165.074219 445.613281 165.039063 449.144531 165.820313 452.589844 C 167.132813 458.371094 170.171875 462.886719 175.949219 465.050781 C 178.46875 465.996094 181.054688 466.773438 183.644531 467.496094 C 188.066406 468.734375 192.582031 469.667969 196.929688 471.121094 C 199.824219 472.089844 202.695313 473.445313 205.214844 475.160156 C 208.636719 477.492188 208.925781 482.148438 205.953125 485.054688 C 204.65625 486.320313 202.847656 487.28125 201.101563 487.816406 C 197.417969 488.941406 193.59375 488.796875 189.816406 488.121094 C 184.0625 487.09375 180.121094 484.074219 178.992188 478.050781 C 178.941406 477.765625 178.796875 477.5 178.671875 477.164063 Z M 311.9375 93.546875 C 312.410156 107.03125 317.039063 117.222656 325.785156 125.53125 C 329.6875 129.238281 334.203125 131.921875 339.464844 133.285156 C 350.339844 136.109375 360.128906 130.902344 363.792969 120.292969 C 365.085938 116.554688 365.519531 112.691406 365.292969 108.769531 C 364.730469 99.152344 361.171875 90.710938 355.003906 83.378906 C 350.539063 78.070313 345.136719 74.066406 338.335938 72.179688 C 327.183594 69.082031 317.183594 74.246094 313.597656 85.21875 C 312.589844 88.308594 312.304688 91.636719 311.9375 93.546875 M 144.066406 348.1875 C 144.378906 350.035156 144.816406 353.300781 145.539063 356.503906 C 145.855469 357.917969 146.53125 359.371094 147.417969 360.515625 C 149.558594 363.273438 152.644531 363.558594 155.265625 361.265625 C 156.441406 360.234375 157.320313 358.84375 158.265625 357.570313 C 161.296875 353.480469 164.027344 349.136719 167.363281 345.316406 C 177.226563 334.027344 189.308594 325.558594 202.546875 318.6875 C 208.21875 315.738281 214.035156 313.074219 219.699219 310.113281 C 230.519531 304.449219 241.046875 298.308594 250.375 290.328125 C 255.109375 286.273438 259.445313 281.847656 262.261719 276.1875 C 264.175781 272.351563 265.160156 268.339844 264.191406 264.007813 C 263.304688 260.054688 261.207031 256.835938 258.339844 254.082031 C 252.652344 248.621094 245.738281 245.355469 238.28125 243.128906 C 237.441406 242.878906 236.496094 242.882813 235.605469 242.910156 C 232.90625 242.992188 231.640625 244.597656 232.152344 247.269531 C 232.28125 247.949219 232.515625 248.617188 232.78125 249.261719 C 235.269531 255.285156 234.726563 261.203125 232.027344 266.972656 C 229.714844 271.925781 225.878906 275.53125 221.324219 278.433594 C 209.488281 285.972656 196.785156 291.8125 184.050781 297.601563 C 172.921875 302.660156 162.851563 309.242188 154.984375 318.792969 C 148.300781 326.90625 144.371094 336.113281 144.066406 348.1875 M 59.261719 676.429688 C 60.664063 676.429688 61.550781 676.429688 62.4375 676.429688 C 91.75 676.445313 121.0625 676.480469 150.378906 676.441406 C 153.566406 676.4375 156.789063 676.257813 159.929688 675.757813 C 169.09375 674.296875 177.011719 670.34375 183.359375 663.441406 C 190.179688 656.027344 193.546875 647.070313 195.054688 637.289063 C 197.539063 621.199219 199.972656 605.101563 202.472656 589.011719 C 204.972656 572.921875 207.527344 556.84375 210.046875 540.757813 C 210.472656 538.039063 210.824219 535.308594 211.25 532.296875 L 207.382813 532.296875 C 181.570313 532.296875 155.757813 532.292969 129.945313 532.296875 C 125.34375 532.296875 120.734375 532.148438 116.140625 532.363281 C 107.140625 532.785156 98.855469 535.414063 91.699219 541.074219 C 83.140625 547.847656 78.351563 556.902344 76.269531 567.417969 C 74.949219 574.078125 74.097656 580.828125 73.046875 587.535156 C 70.886719 601.351563 68.738281 615.171875 66.578125 628.984375 C 64.660156 641.222656 62.722656 653.457031 60.8125 665.695313 C 60.277344 669.136719 59.816406 672.585938 59.261719 676.429688 M 346.300781 532.320313 L 342.75 532.320313 C 313.4375 532.320313 284.121094 532.304688 254.808594 532.347656 C 251.820313 532.351563 248.796875 532.503906 245.847656 532.96875 C 235.128906 534.660156 226.238281 539.59375 219.625 548.332031 C 214.746094 554.773438 211.980469 562.109375 210.730469 570.03125 C 208.441406 584.539063 206.25 599.066406 203.988281 613.582031 C 201.078125 632.242188 198.136719 650.898438 195.222656 669.558594 C 194.878906 671.769531 194.640625 673.996094 194.320313 676.460938 L 197.972656 676.460938 C 225.484375 676.460938 252.996094 676.460938 280.511719 676.460938 C 283.609375 676.457031 286.722656 676.582031 289.8125 676.390625 C 300.921875 675.710938 310.628906 671.800781 318.320313 663.53125 C 323.84375 657.597656 327.445313 650.558594 328.929688 642.671875 C 331.019531 631.578125 332.621094 620.394531 334.382813 609.242188 C 336.53125 595.621094 338.632813 581.992188 340.742188 568.363281 C 342.578125 556.519531 344.398438 544.667969 346.300781 532.320313 M 255.816406 338.546875 C 255.789063 341.929688 256.269531 345.390625 257.636719 348.660156 C 262.574219 360.472656 271.003906 368.621094 283.167969 372.800781 C 283.917969 373.058594 284.703125 373.285156 285.488281 373.351563 C 289.992188 373.742188 292.851563 369.90625 291.199219 365.695313 C 290.761719 364.582031 290.117188 363.554688 289.671875 362.445313 C 285.734375 352.640625 286.789063 343.6875 294.230469 335.820313 C 301.535156 328.09375 309.65625 321.28125 317.921875 314.628906 C 328.121094 306.410156 338.421875 298.304688 348.539063 289.980469 C 355.1875 284.511719 361.421875 278.570313 366.644531 271.667969 C 369.128906 268.382813 371.300781 264.902344 372.589844 260.96875 C 375.289063 252.730469 373.546875 245.503906 367.097656 239.707031 C 364.597656 237.460938 361.683594 235.585938 358.726563 233.960938 C 351.941406 230.230469 344.59375 227.832031 337.078125 226.1875 C 324.199219 223.371094 311.222656 220.996094 298.328125 218.261719 C 292.867188 217.105469 287.402344 215.796875 282.113281 214.03125 C 276.164063 212.046875 275.730469 209.410156 280.484375 205.179688 C 283.3125 202.664063 286.410156 200.414063 289.582031 198.34375 C 296.363281 193.921875 303.296875 189.726563 310.117188 185.371094 C 315.601563 181.867188 320.972656 178.171875 325.589844 173.554688 C 327.835938 171.304688 329.988281 168.863281 331.695313 166.195313 C 335.847656 159.699219 335.699219 153.09375 330.980469 146.929688 C 328.871094 144.171875 326.476563 141.503906 323.761719 139.363281 C 319.300781 135.847656 314.636719 132.519531 309.765625 129.597656 C 296.875 121.855469 283.066406 116.023438 268.988281 110.832031 C 240.496094 100.328125 211.234375 92.78125 181.21875 88.210938 C 176.476563 87.488281 171.699219 86.90625 166.921875 86.5625 C 164.574219 86.394531 162.089844 86.609375 159.824219 87.222656 C 156.78125 88.046875 155.871094 90.613281 157.382813 93.371094 C 158.09375 94.667969 158.992188 95.96875 160.105469 96.914063 C 163.300781 99.625 166.484375 102.402344 169.96875 104.710938 C 180.839844 111.917969 192.503906 117.617188 204.804688 121.953125 C 208.554688 123.277344 212.445313 124.378906 216.363281 125.027344 C 222.964844 126.121094 229.644531 126.734375 236.28125 127.621094 C 252.035156 129.734375 267.703125 132.34375 283.136719 136.199219 C 291.664063 138.332031 300.148438 140.714844 307.96875 144.867188 C 310.59375 146.261719 313.164063 147.925781 315.371094 149.898438 C 319.765625 153.84375 320.136719 158.097656 316.84375 162.992188 C 315.898438 164.394531 314.847656 165.796875 313.585938 166.894531 C 310.347656 169.714844 307.152344 172.652344 303.59375 175.011719 C 297.515625 179.035156 291.261719 182.820313 284.914063 186.398438 C 275.429688 191.75 265.738281 196.742188 256.25 202.082031 C 251.816406 204.578125 247.535156 207.382813 243.402344 210.347656 C 241.074219 212.015625 238.941406 214.101563 237.15625 216.339844 C 234.054688 220.238281 234.53125 224.167969 238.257813 227.484375 C 239.507813 228.601563 240.964844 229.585938 242.484375 230.28125 C 244.652344 231.273438 246.925781 232.101563 249.226563 232.726563 C 257.375 234.929688 265.769531 235.476563 274.125 236.300781 C 284.269531 237.300781 294.433594 238.175781 304.550781 239.429688 C 311.09375 240.242188 317.523438 241.785156 323.515625 244.738281 C 326.523438 246.222656 329.128906 248.179688 331.128906 250.90625 C 334.933594 256.089844 335.34375 261.164063 331.8125 266.496094 C 329.898438 269.382813 327.628906 272.203125 324.976563 274.390625 C 319.664063 278.773438 314.136719 282.929688 308.417969 286.761719 C 300.035156 292.382813 291.363281 297.570313 282.894531 303.074219 C 276.355469 307.324219 269.949219 311.796875 264.398438 317.339844 C 258.589844 323.144531 255.707031 330.167969 255.816406 338.546875 M 481.242188 532.441406 C 480.253906 532.386719 479.664063 532.328125 479.078125 532.328125 C 448.464844 532.324219 417.851563 532.101563 387.242188 532.40625 C 368.511719 532.59375 354.273438 543.035156 348.28125 560.34375 C 346.664063 565.023438 345.800781 570.007813 344.992188 574.917969 C 342.5625 589.710938 340.332031 604.53125 338.027344 619.339844 C 335.691406 634.347656 333.355469 649.355469 331.03125 664.367188 C 330.421875 668.296875 329.863281 672.230469 329.265625 676.285156 C 330.074219 676.355469 330.660156 676.453125 331.246094 676.453125 C 361.859375 676.460938 392.46875 676.582031 423.078125 676.417969 C 442.257813 676.316406 457.226563 664.996094 462.839844 646.644531 C 464.085938 642.558594 464.777344 638.28125 465.460938 634.050781 C 467.855469 619.152344 470.140625 604.238281 472.464844 589.332031 C 474.605469 575.605469 476.746094 561.882813 478.871094 548.160156 C 479.664063 543.03125 480.421875 537.894531 481.242188 532.441406 M 402.464844 322.828125 L 402.207031 322.78125 C 396.34375 323.585938 390.753906 325.34375 385.484375 327.976563 C 378.59375 331.425781 372.503906 336.078125 366.773438 341.195313 C 365.832031 342.035156 365.132813 343.152344 364.320313 344.144531 C 363.964844 344.082031 363.605469 344.019531 363.25 343.953125 C 360.671875 342.90625 358.070313 341.90625 355.523438 340.785156 C 353.835938 340.039063 352.496094 340.316406 351.1875 341.589844 C 346.109375 346.519531 341.019531 351.4375 335.871094 356.289063 C 334.484375 357.59375 334.003906 359.03125 334.347656 360.839844 C 335.015625 364.359375 335.671875 367.882813 336.332031 371.402344 C 336.277344 371.796875 336.222656 372.195313 336.171875 372.589844 C 332.695313 375.230469 330.238281 378.722656 327.480469 382.476563 C 330.679688 385.789063 333.609375 389.003906 336.75 391.996094 C 338.375 393.546875 340.375 394.703125 342.203125 396.039063 C 342.878906 396.574219 343.515625 397.171875 344.238281 397.640625 C 346.546875 399.132813 348.878906 400.574219 351.203125 402.039063 C 352.222656 403.128906 353.113281 404.382813 354.285156 405.277344 C 361.074219 410.476563 368.941406 412.878906 377.339844 413.382813 C 385.355469 413.863281 393.199219 412.734375 400.832031 410.011719 C 412.78125 405.753906 422.652344 398.863281 429.269531 387.871094 C 435.320313 377.816406 437.625 367.03125 434.578125 355.476563 C 433.738281 352.296875 432.730469 349.074219 429.863281 346.144531 C 429.863281 349.421875 429.820313 352.09375 429.871094 354.761719 C 429.972656 360.128906 428.644531 365.234375 426.832031 370.191406 C 423.359375 379.683594 417.59375 387.515625 409.632813 393.824219 C 403.660156 398.554688 396.972656 401.710938 389.761719 403.894531 C 386.132813 404.992188 382.335938 405.207031 378.636719 405.847656 C 374.34375 406.59375 370.300781 405.640625 366.164063 405.441406 C 363.960938 405.335938 361.796875 404.402344 359.609375 403.839844 C 359.410156 402.316406 360.410156 401.460938 361.410156 400.605469 C 362.621094 399.570313 363.84375 398.554688 365.039063 397.507813 C 367.058594 395.734375 369.035156 393.910156 371.074219 392.160156 C 374.847656 388.921875 378.6875 385.765625 382.433594 382.496094 C 386.40625 379.027344 390.273438 375.433594 394.242188 371.957031 C 400.152344 366.78125 406.101563 361.648438 412.050781 356.515625 C 414.304688 354.566406 416.640625 352.707031 418.882813 350.742188 C 421.429688 348.507813 423.996094 346.289063 426.371094 343.882813 C 427.214844 343.035156 427.847656 341.6875 427.984375 340.5 C 428.304688 337.746094 427.125 335.242188 425.96875 332.816406 C 425.828125 332.523438 425.09375 332.519531 424.632813 332.382813 C 423.777344 329.984375 422.921875 327.585938 422.066406 325.1875 C 419.175781 317.503906 413.9375 311.800781 407.089844 307.472656 C 405.664063 306.570313 404.140625 306.484375 402.5 307.054688 C 400.261719 307.832031 399.914063 308.179688 400.292969 310.453125 C 400.980469 314.582031 401.734375 318.703125 402.464844 322.828125 "/>
<path style=" stroke:none;fill-rule:nonzero;fill:rgb(3.09906%,51.399231%,30.599976%);fill-opacity:1;" d="M 414.914063 646.707031 C 418.449219 625.523438 421.953125 604.5625 425.496094 583.363281 L 458.445313 583.363281 C 459.65625 576.054688 460.820313 569.007813 462.015625 561.773438 L 359.46875 561.773438 C 358.269531 568.949219 357.085938 576.070313 355.847656 583.488281 L 388.742188 583.488281 C 385.21875 604.695313 381.746094 625.613281 378.242188 646.707031 Z M 481.242188 532.441406 C 480.421875 537.894531 479.664063 543.03125 478.871094 548.15625 C 476.742188 561.886719 474.601563 575.605469 472.464844 589.332031 C 470.140625 604.238281 467.855469 619.152344 465.460938 634.050781 C 464.777344 638.28125 464.085938 642.558594 462.839844 646.644531 C 457.226563 664.996094 442.257813 676.316406 423.078125 676.417969 C 392.46875 676.582031 361.859375 676.464844 331.246094 676.453125 C 330.660156 676.453125 330.074219 676.355469 329.265625 676.285156 C 329.863281 672.230469 330.421875 668.296875 331.03125 664.363281 C 333.351563 649.355469 335.691406 634.347656 338.027344 619.34375 C 340.332031 604.53125 342.5625 589.710938 344.992188 574.921875 C 345.800781 570.007813 346.664063 565.023438 348.28125 560.34375 C 354.273438 543.035156 368.511719 532.59375 387.242188 532.40625 C 417.851563 532.101563 448.464844 532.320313 479.078125 532.324219 C 479.664063 532.324219 480.253906 532.386719 481.242188 532.441406 "/>
<path style=" stroke:none;fill-rule:nonzero;fill:rgb(3.09906%,50.999451%,21.598816%);fill-opacity:1;" d="M 255.816406 338.546875 C 255.707031 330.167969 258.589844 323.144531 264.398438 317.339844 C 269.949219 311.796875 276.355469 307.324219 282.898438 303.074219 C 291.363281 297.570313 300.035156 292.382813 308.417969 286.761719 C 314.136719 282.929688 319.664063 278.773438 324.976563 274.390625 C 327.628906 272.203125 329.898438 269.382813 331.8125 266.496094 C 335.34375 261.164063 334.933594 256.089844 331.128906 250.90625 C 329.128906 248.179688 326.523438 246.222656 323.515625 244.738281 C 317.523438 241.785156 311.09375 240.242188 304.550781 239.429688 C 294.433594 238.175781 284.269531 237.300781 274.125 236.300781 C 265.769531 235.476563 257.375 234.929688 249.226563 232.726563 C 246.925781 232.105469 244.652344 231.273438 242.484375 230.28125 C 240.960938 229.585938 239.507813 228.601563 238.257813 227.484375 C 234.53125 224.171875 234.054688 220.238281 237.15625 216.339844 C 238.941406 214.101563 241.074219 212.015625 243.402344 210.347656 C 247.535156 207.382813 251.816406 204.578125 256.25 202.082031 C 265.738281 196.742188 275.429688 191.75 284.914063 186.398438 C 291.261719 182.820313 297.515625 179.035156 303.59375 175.011719 C 307.152344 172.652344 310.347656 169.714844 313.585938 166.894531 C 314.847656 165.796875 315.898438 164.394531 316.84375 162.992188 C 320.140625 158.097656 319.765625 153.84375 315.367188 149.898438 C 313.164063 147.925781 310.59375 146.261719 307.96875 144.867188 C 300.148438 140.714844 291.664063 138.332031 283.136719 136.199219 C 267.703125 132.34375 252.035156 129.734375 236.28125 127.621094 C 229.644531 126.734375 222.964844 126.125 216.363281 125.027344 C 212.445313 124.378906 208.554688 123.277344 204.804688 121.953125 C 192.503906 117.617188 180.839844 111.921875 169.96875 104.710938 C 166.484375 102.402344 163.300781 99.625 160.105469 96.914063 C 158.992188 95.96875 158.09375 94.667969 157.382813 93.371094 C 155.871094 90.613281 156.78125 88.046875 159.824219 87.222656 C 162.089844 86.609375 164.574219 86.394531 166.917969 86.5625 C 171.699219 86.90625 176.476563 87.488281 181.21875 88.210938 C 211.234375 92.78125 240.496094 100.328125 268.988281 110.835938 C 283.066406 116.023438 296.875 121.855469 309.765625 129.597656 C 314.636719 132.519531 319.300781 135.847656 323.765625 139.363281 C 326.476563 141.503906 328.871094 144.171875 330.980469 146.929688 C 335.699219 153.09375 335.847656 159.699219 331.695313 166.195313 C 329.988281 168.863281 327.835938 171.304688 325.585938 173.554688 C 320.972656 178.171875 315.601563 181.867188 310.117188 185.371094 C 303.296875 189.730469 296.363281 193.921875 289.582031 198.34375 C 286.410156 200.414063 283.3125 202.664063 280.484375 205.179688 C 275.730469 209.410156 276.164063 212.046875 282.113281 214.03125 C 287.402344 215.796875 292.867188 217.105469 298.328125 218.261719 C 311.226563 220.996094 324.199219 223.371094 337.074219 226.1875 C 344.59375 227.832031 351.941406 230.230469 358.726563 233.960938 C 361.683594 235.589844 364.597656 237.460938 367.097656 239.707031 C 373.542969 245.503906 375.285156 252.730469 372.589844 260.96875 C 371.300781 264.902344 369.128906 268.382813 366.644531 271.667969 C 361.417969 278.570313 355.1875 284.511719 348.539063 289.984375 C 338.421875 298.304688 328.121094 306.410156 317.917969 314.628906 C 309.65625 321.28125 301.535156 328.09375 294.230469 335.820313 C 286.789063 343.6875 285.734375 352.640625 289.671875 362.445313 C 290.117188 363.554688 290.761719 364.585938 291.199219 365.695313 C 292.851563 369.90625 289.992188 373.742188 285.488281 373.351563 C 284.703125 373.285156 283.917969 373.058594 283.167969 372.800781 C 271.003906 368.625 262.574219 360.472656 257.636719 348.660156 C 256.269531 345.390625 255.789063 341.929688 255.816406 338.546875 "/>
<path style=" stroke:none;fill-rule:nonzero;fill:rgb(19.599915%,67.098999%,32.199097%);fill-opacity:1;" d="M 242.347656 646.675781 C 243.628906 638.8125 244.84375 631.222656 246.132813 623.640625 C 246.269531 622.820313 246.601563 621.800781 247.199219 621.339844 C 250.519531 618.804688 253.949219 616.410156 257.496094 613.863281 C 258.351563 614.929688 259.105469 615.835938 259.824219 616.773438 C 266.9375 626.066406 274.085938 635.332031 281.105469 644.695313 C 282.332031 646.335938 283.617188 646.886719 285.601563 646.871094 C 297.105469 646.789063 308.609375 646.832031 320.113281 646.832031 L 323.097656 646.832031 C 309.699219 629.820313 296.703125 613.328125 283.59375 596.691406 C 300.621094 585.039063 317.316406 573.617188 334.59375 561.800781 C 333.359375 561.710938 332.894531 561.644531 332.425781 561.644531 C 318.320313 561.640625 304.214844 561.664063 290.109375 561.609375 C 288.582031 561.601563 287.46875 562.148438 286.328125 563.039063 C 275.691406 571.351563 265.027344 579.640625 254.367188 587.925781 C 253.640625 588.492188 252.867188 589 251.601563 589.902344 C 253.203125 580.101563 254.6875 571.054688 256.203125 561.8125 L 220.347656 561.8125 C 215.722656 590.128906 211.125 618.304688 206.492188 646.675781 Z M 346.300781 532.320313 C 344.398438 544.667969 342.578125 556.519531 340.742188 568.363281 C 338.632813 581.992188 336.53125 595.621094 334.382813 609.242188 C 332.621094 620.394531 331.019531 631.578125 328.929688 642.671875 C 327.445313 650.558594 323.84375 657.597656 318.324219 663.53125 C 310.628906 671.800781 300.921875 675.710938 289.8125 676.390625 C 286.722656 676.582031 283.613281 676.457031 280.511719 676.460938 C 252.996094 676.460938 225.484375 676.460938 197.972656 676.460938 L 194.320313 676.460938 C 194.640625 673.996094 194.878906 671.769531 195.222656 669.558594 C 198.136719 650.898438 201.078125 632.242188 203.988281 613.578125 C 206.25 599.066406 208.441406 584.539063 210.730469 570.03125 C 211.980469 562.113281 214.746094 554.773438 219.625 548.332031 C 226.238281 539.597656 235.132813 534.660156 245.847656 532.972656 C 248.796875 532.503906 251.820313 532.351563 254.808594 532.347656 C 284.121094 532.304688 313.4375 532.320313 342.75 532.320313 "/>
<path style=" stroke:none;fill-rule:nonzero;fill:rgb(56.098938%,75.698853%,30.599976%);fill-opacity:1;" d="M 75.976563 646.8125 L 79.984375 646.8125 C 101.488281 646.8125 122.996094 646.863281 144.496094 646.785156 C 151.597656 646.761719 158.679688 646.210938 165.617188 644.546875 C 171.390625 643.164063 176.828125 641.046875 181.714844 637.535156 C 191.945313 630.183594 193.949219 612.734375 180.183594 604.835938 C 177.3125 603.1875 174.097656 602.136719 170.984375 600.789063 C 171.539063 600.597656 172.183594 600.386719 172.816406 600.15625 C 174.972656 599.375 177.199219 598.742188 179.269531 597.773438 C 189.632813 592.933594 191.015625 583.226563 187.613281 574.839844 C 185.644531 569.988281 181.722656 567.132813 177.019531 565.25 C 170.519531 562.652344 163.6875 561.738281 156.761719 561.710938 C 135.257813 561.613281 113.753906 561.636719 92.25 561.632813 C 91.582031 561.632813 90.910156 561.804688 90.140625 561.910156 C 85.425781 590.164063 80.734375 618.296875 75.976563 646.8125 M 59.261719 676.429688 C 59.8125 672.585938 60.277344 669.136719 60.8125 665.695313 C 62.722656 653.457031 64.660156 641.222656 66.578125 628.984375 C 68.738281 615.171875 70.886719 601.351563 73.046875 587.535156 C 74.097656 580.828125 74.949219 574.078125 76.269531 567.417969 C 78.351563 556.902344 83.140625 547.847656 91.699219 541.074219 C 98.855469 535.414063 107.140625 532.785156 116.140625 532.363281 C 120.734375 532.148438 125.34375 532.296875 129.945313 532.296875 C 155.757813 532.292969 181.570313 532.296875 207.382813 532.296875 L 211.25 532.296875 C 210.824219 535.308594 210.472656 538.039063 210.046875 540.757813 C 207.527344 556.84375 204.972656 572.921875 202.472656 589.011719 C 199.976563 605.101563 197.539063 621.199219 195.054688 637.289063 C 193.542969 647.070313 190.179688 656.027344 183.359375 663.441406 C 177.011719 670.34375 169.09375 674.296875 159.933594 675.757813 C 156.789063 676.257813 153.566406 676.4375 150.378906 676.441406 C 121.0625 676.480469 91.75 676.445313 62.4375 676.429688 C 61.550781 676.429688 60.660156 676.429688 59.261719 676.429688 "/>
<path style=" stroke:none;fill-rule:nonzero;fill:rgb(93.699646%,47.799683%,20.399475%);fill-opacity:1;" d="M 144.066406 348.1875 C 144.371094 336.113281 148.300781 326.90625 154.984375 318.792969 C 162.851563 309.242188 172.921875 302.664063 184.050781 297.601563 C 196.785156 291.8125 209.488281 285.972656 221.324219 278.433594 C 225.878906 275.53125 229.714844 271.925781 232.027344 266.972656 C 234.726563 261.203125 235.269531 255.285156 232.78125 249.261719 C 232.515625 248.621094 232.285156 247.949219 232.152344 247.269531 C 231.640625 244.597656 232.90625 242.992188 235.605469 242.910156 C 236.496094 242.882813 237.441406 242.878906 238.28125 243.128906 C 245.738281 245.355469 252.652344 248.621094 258.339844 254.082031 C 261.207031 256.835938 263.304688 260.054688 264.191406 264.007813 C 265.160156 268.339844 264.175781 272.347656 262.261719 276.1875 C 259.445313 281.847656 255.109375 286.273438 250.375 290.328125 C 241.046875 298.308594 230.519531 304.449219 219.699219 310.113281 C 214.035156 313.074219 208.21875 315.738281 202.546875 318.6875 C 189.308594 325.558594 177.226563 334.027344 167.363281 345.316406 C 164.027344 349.136719 161.296875 353.484375 158.265625 357.570313 C 157.320313 358.847656 156.441406 360.234375 155.265625 361.265625 C 152.648438 363.558594 149.558594 363.273438 147.417969 360.515625 C 146.53125 359.371094 145.855469 357.917969 145.535156 356.503906 C 144.816406 353.300781 144.378906 350.035156 144.066406 348.1875 "/>
<path style=" stroke:none;fill-rule:nonzero;fill:rgb(5.499268%,41.19873%,68.598938%);fill-opacity:1;" d="M 311.9375 93.546875 C 312.304688 91.636719 312.585938 88.308594 313.597656 85.21875 C 317.183594 74.25 327.183594 69.082031 338.335938 72.179688 C 345.136719 74.066406 350.539063 78.070313 355.003906 83.378906 C 361.171875 90.710938 364.730469 99.152344 365.292969 108.769531 C 365.523438 112.691406 365.085938 116.554688 363.792969 120.292969 C 360.125 130.902344 350.339844 136.109375 339.464844 133.285156 C 334.203125 131.921875 329.6875 129.238281 325.785156 125.53125 C 317.039063 117.222656 312.410156 107.03125 311.9375 93.546875 "/>
<path style=" stroke:none;fill-rule:nonzero;fill:rgb(2.69928%,51.399231%,22.399902%);fill-opacity:1;" d="M 164.628906 477.164063 L 178.671875 477.164063 C 178.796875 477.5 178.941406 477.765625 178.992188 478.050781 C 180.121094 484.074219 184.0625 487.09375 189.816406 488.121094 C 193.589844 488.796875 197.417969 488.941406 201.101563 487.816406 C 202.851563 487.28125 204.65625 486.320313 205.953125 485.054688 C 208.925781 482.148438 208.636719 477.492188 205.214844 475.160156 C 202.695313 473.445313 199.824219 472.089844 196.925781 471.121094 C 192.585938 469.667969 188.066406 468.734375 183.644531 467.5 C 181.054688 466.773438 178.464844 465.996094 175.949219 465.050781 C 170.171875 462.886719 167.132813 458.371094 165.820313 452.589844 C 165.039063 449.144531 165.074219 445.613281 165.839844 442.160156 C 167.152344 436.257813 170.445313 431.703125 175.96875 429.171875 C 178.835938 427.855469 181.972656 426.871094 185.085938 426.402344 C 191.542969 425.433594 198.0625 425.363281 204.398438 427.332031 C 213.492188 430.160156 218.261719 436.652344 219.652344 445.859375 C 219.769531 446.625 219.667969 447.425781 219.667969 448.316406 C 216.371094 448.316406 213.1875 448.4375 210.015625 448.277344 C 207.765625 448.160156 206.039063 446.816406 205.070313 444.820313 C 202.660156 439.867188 198.394531 438.148438 193.300781 438.03125 C 190.832031 437.976563 188.273438 438.117188 185.898438 438.734375 C 184.269531 439.15625 182.609375 440.289063 181.457031 441.554688 C 178.546875 444.753906 179.125 449.066406 182.78125 451.34375 C 184.78125 452.589844 187.066406 453.507813 189.339844 454.175781 C 194.890625 455.808594 200.539063 457.105469 206.089844 458.742188 C 208.753906 459.527344 211.425781 460.515625 213.84375 461.863281 C 218.480469 464.445313 221.1875 468.601563 222 473.824219 C 222.617188 477.804688 222.4375 481.804688 221.1875 485.691406 C 218.953125 492.640625 214.128906 496.964844 207.285156 499.015625 C 198.355469 501.695313 189.285156 501.832031 180.394531 499.0625 C 171.230469 496.214844 166.019531 489.699219 164.578125 480.207031 C 164.472656 479.515625 164.445313 478.8125 164.429688 478.113281 C 164.421875 477.839844 164.539063 477.5625 164.628906 477.164063 "/>
<path style=" stroke:none;fill-rule:nonzero;fill:rgb(2.69928%,51.399231%,22.399902%);fill-opacity:1;" d="M 358.882813 465.683594 C 358.921875 458.894531 355.109375 454.855469 348.792969 454.835938 C 342.464844 454.816406 338.34375 459.078125 338.410156 465.683594 Z M 373.980469 475.257813 L 338.214844 475.257813 C 338.230469 477.8125 338.617188 480.035156 339.617188 482.125 C 342.761719 488.710938 352.496094 490.164063 357.34375 484.65625 C 359.101563 482.660156 361.054688 481.824219 363.636719 481.902344 C 366.730469 482 369.824219 481.925781 373.273438 481.925781 C 372.09375 486.8125 369.871094 490.785156 366.261719 493.964844 C 362.300781 497.457031 357.601563 499.355469 352.398438 499.785156 C 349.429688 500.027344 346.355469 500.074219 343.429688 499.601563 C 333.757813 498.050781 327.65625 492.179688 324.941406 482.945313 C 322.699219 475.316406 322.710938 467.519531 324.800781 459.835938 C 327.679688 449.238281 335.734375 442.960938 346.679688 442.71875 C 349.460938 442.65625 352.300781 442.789063 355.027344 443.300781 C 363.898438 444.957031 369.585938 450.308594 372.359375 458.851563 C 374.054688 464.066406 374.339844 469.40625 373.980469 475.257813 "/>
<path style=" stroke:none;fill-rule:nonzero;fill:rgb(2.69928%,51.399231%,22.399902%);fill-opacity:1;" d="M 258.398438 465.683594 C 257.898438 458.003906 254.007813 454.359375 247.035156 454.878906 C 241.394531 455.296875 237.535156 459.832031 237.929688 465.683594 Z M 272.71875 481.925781 C 271.484375 486.914063 269.222656 490.898438 265.566406 494.074219 C 261.660156 497.472656 257.054688 499.351563 251.964844 499.761719 C 248.804688 500.015625 245.535156 499.996094 242.414063 499.488281 C 233.363281 498.007813 227.511719 492.480469 224.695313 483.945313 C 221.960938 475.671875 221.960938 467.203125 224.527344 458.859375 C 227.5625 448.996094 235.296875 443.089844 245.628906 442.746094 C 248.699219 442.644531 251.847656 442.824219 254.859375 443.40625 C 263.097656 444.988281 268.59375 449.949219 271.433594 457.820313 C 273.429688 463.347656 273.894531 469.054688 273.496094 475.144531 L 238.070313 475.144531 C 237.304688 480.132813 239.695313 485.023438 243.617188 486.894531 C 247.554688 488.765625 254.328125 488.121094 256.902344 484.59375 C 258.40625 482.53125 260.425781 481.839844 262.898438 481.90625 C 266.070313 481.992188 269.246094 481.925781 272.71875 481.925781 "/>
<path style=" stroke:none;fill-rule:nonzero;fill:rgb(95.298767%,97.299194%,97.999573%);fill-opacity:1;" d="M 351.203125 402.039063 C 348.878906 400.574219 346.542969 399.132813 344.238281 397.640625 C 343.515625 397.171875 342.878906 396.574219 342.203125 396.039063 C 344.273438 394.199219 346.394531 392.417969 348.390625 390.5 C 349.277344 389.644531 349.90625 388.519531 350.652344 387.519531 C 351.871094 387.890625 353.171875 388.097656 354.289063 388.664063 C 356.242188 389.660156 358.003906 389.632813 359.949219 388.585938 C 364.863281 385.949219 369.777344 383.296875 374.824219 380.9375 C 377.671875 379.605469 378.710938 377.640625 378.78125 374.644531 C 378.878906 370.367188 379.253906 366.09375 379.511719 361.816406 C 380.542969 361.253906 381.683594 360.832031 382.582031 360.105469 C 384.589844 358.480469 386.464844 356.691406 388.414063 354.992188 C 392.761719 351.207031 397.101563 347.414063 401.484375 343.671875 C 404.582031 341.03125 407.746094 338.472656 410.882813 335.878906 C 411.070313 335.9375 411.289063 335.960938 411.445313 336.070313 C 413.910156 337.78125 416.375 339.492188 418.820313 341.226563 C 420.273438 342.257813 421.976563 342.328125 422.429688 341.097656 C 423.464844 338.285156 425.386719 335.65625 424.632813 332.382813 C 425.09375 332.519531 425.828125 332.523438 425.96875 332.816406 C 427.125 335.242188 428.308594 337.746094 427.984375 340.5 C 427.847656 341.6875 427.214844 343.035156 426.371094 343.886719 C 423.996094 346.289063 421.429688 348.511719 418.882813 350.742188 C 416.640625 352.707031 414.308594 354.566406 412.050781 356.515625 C 406.101563 361.648438 400.152344 366.78125 394.242188 371.957031 C 390.273438 375.433594 386.40625 379.027344 382.433594 382.496094 C 378.6875 385.765625 374.847656 388.925781 371.074219 392.160156 C 369.035156 393.910156 367.058594 395.734375 365.039063 397.507813 C 363.84375 398.558594 362.617188 399.570313 361.410156 400.605469 C 360.410156 401.460938 359.410156 402.316406 359.609375 403.839844 C 357.417969 403.242188 355.230469 402.613281 353.023438 402.070313 C 352.449219 401.925781 351.8125 402.042969 351.203125 402.039063 "/>
<path style=" stroke:none;fill-rule:nonzero;fill:rgb(89.399719%,94.099426%,96.899414%);fill-opacity:1;" d="M 351.203125 402.039063 C 351.8125 402.042969 352.449219 401.925781 353.023438 402.070313 C 355.230469 402.613281 357.417969 403.242188 359.609375 403.839844 C 361.792969 404.402344 363.960938 405.339844 366.164063 405.441406 C 370.300781 405.640625 374.34375 406.59375 378.636719 405.847656 C 382.335938 405.207031 386.132813 404.992188 389.761719 403.894531 C 396.972656 401.714844 403.660156 398.554688 409.632813 393.824219 C 417.59375 387.515625 423.359375 379.683594 426.832031 370.195313 C 428.644531 365.234375 429.972656 360.132813 429.871094 354.765625 C 429.820313 352.09375 429.863281 349.425781 429.863281 346.144531 C 432.730469 349.074219 433.738281 352.296875 434.578125 355.476563 C 437.625 367.03125 435.320313 377.816406 429.269531 387.871094 C 422.652344 398.863281 412.78125 405.753906 400.832031 410.011719 C 393.199219 412.734375 385.355469 413.863281 377.339844 413.382813 C 368.941406 412.882813 361.074219 410.476563 354.285156 405.277344 C 353.113281 404.386719 352.222656 403.128906 351.203125 402.039063 "/>
<path style=" stroke:none;fill-rule:nonzero;fill:rgb(2.69928%,51.399231%,22.399902%);fill-opacity:1;" d="M 289.375 499 L 275.089844 499 C 275.007813 498.210938 274.867188 497.453125 274.867188 496.699219 C 274.851563 488.097656 274.859375 479.496094 274.855469 470.898438 C 274.855469 467.269531 275.367188 463.730469 276.605469 460.304688 C 279.0625 453.488281 283.65625 448.804688 290.476563 446.335938 C 295.328125 444.578125 300.335938 443.898438 305.695313 444.15625 L 305.695313 458.90625 C 304.410156 458.90625 303.152344 458.902344 301.898438 458.910156 C 301.097656 458.914063 300.296875 458.90625 299.496094 458.957031 C 293 459.355469 289.535156 462.921875 289.40625 469.582031 C 289.292969 475.28125 289.378906 480.984375 289.375 486.6875 C 289.375 490.679688 289.375 494.675781 289.375 499 "/>
<path style=" stroke:none;fill-rule:nonzero;fill:rgb(3.09906%,50.999451%,21.598816%);fill-opacity:1;" d="M 307.585938 444.070313 C 310.316406 444.070313 313.097656 443.910156 315.855469 444.117188 C 318.835938 444.339844 321.34375 447.046875 321.738281 450.058594 C 321.804688 450.550781 321.789063 451.054688 321.789063 451.554688 C 321.792969 466.855469 321.792969 482.15625 321.789063 497.457031 C 321.789063 497.851563 321.726563 498.246094 321.664063 499.023438 C 319.3125 499.058594 316.964844 499.109375 314.617188 499.128906 C 312.328125 499.144531 310.039063 499.132813 307.808594 499.132813 C 307.167969 496.859375 306.988281 448.425781 307.585938 444.070313 "/>
<path style=" stroke:none;fill-rule:nonzero;fill:rgb(77.999878%,12.199402%,17.298889%);fill-opacity:1;" d="M 363.25 343.953125 C 363.605469 344.019531 363.964844 344.082031 364.320313 344.144531 C 368.957031 345.980469 373.59375 347.816406 378.230469 349.65625 C 379.566406 350.566406 380.144531 351.757813 379.589844 353.363281 C 378.738281 353.875 377.800781 354.277344 377.054688 354.910156 C 371.230469 359.878906 365.441406 364.882813 359.652344 369.886719 C 355.214844 373.722656 350.761719 377.539063 346.402344 381.460938 C 345.761719 382.039063 345.597656 383.152344 345.210938 384.019531 C 343.503906 383.253906 341.808594 382.460938 340.085938 381.734375 C 338.453125 381.042969 337.652344 379.828125 337.363281 378.105469 C 337.054688 376.25 336.578125 374.425781 336.171875 372.589844 C 336.226563 372.195313 336.277344 371.796875 336.332031 371.402344 C 339.214844 368.378906 342.023438 365.28125 344.996094 362.351563 C 350.609375 356.820313 356.320313 351.398438 361.960938 345.898438 C 362.503906 345.367188 362.824219 344.609375 363.25 343.953125 "/>
<path style=" stroke:none;fill-rule:nonzero;fill:rgb(83.499146%,89.7995%,93.699646%);fill-opacity:1;" d="M 378.230469 349.65625 C 373.59375 347.820313 368.960938 345.980469 364.320313 344.144531 C 365.132813 343.15625 365.832031 342.035156 366.773438 341.195313 C 372.503906 336.078125 378.59375 331.425781 385.484375 327.980469 C 390.753906 325.34375 396.34375 323.585938 402.210938 322.78125 C 402.386719 324.585938 402.570313 326.390625 402.75 328.195313 C 401.886719 328.589844 400.875 328.808594 400.183594 329.402344 C 396.570313 332.496094 393.0625 335.710938 389.472656 338.828125 C 387.304688 340.710938 384.953125 342.382813 382.875 344.355469 C 381.179688 345.964844 379.769531 347.878906 378.230469 349.65625 "/>
<path style=" stroke:none;fill-rule:nonzero;fill:rgb(89.7995%,15.699768%,20.399475%);fill-opacity:1;" d="M 363.25 343.953125 C 362.824219 344.609375 362.503906 345.367188 361.960938 345.898438 C 356.320313 351.398438 350.609375 356.820313 344.996094 362.351563 C 342.023438 365.28125 339.214844 368.378906 336.332031 371.402344 C 335.671875 367.882813 335.015625 364.359375 334.347656 360.839844 C 334.003906 359.03125 334.484375 357.59375 335.871094 356.289063 C 341.019531 351.4375 346.109375 346.519531 351.1875 341.589844 C 352.496094 340.316406 353.835938 340.039063 355.523438 340.785156 C 358.070313 341.90625 360.671875 342.90625 363.25 343.953125 "/>
<path style=" stroke:none;fill-rule:nonzero;fill:rgb(5.499268%,41.19873%,68.598938%);fill-opacity:1;" d="M 386.40625 399.285156 C 388.707031 395.363281 390.921875 391.496094 393.253906 387.703125 C 393.695313 386.984375 394.570313 386.488281 395.328125 386.023438 C 401.539063 382.195313 407.769531 378.394531 414 374.597656 C 414.507813 374.285156 415.027344 373.957031 415.585938 373.761719 C 416.882813 373.304688 417.941406 373.871094 418.84375 374.742188 C 419.707031 375.574219 419.46875 376.550781 419.023438 377.511719 C 417.339844 381.117188 414.757813 384.03125 411.800781 386.605469 C 404.65625 392.824219 396.246094 396.671875 387.320313 399.527344 C 387.171875 399.574219 386.957031 399.4375 386.40625 399.285156 "/>
<path style=" stroke:none;fill-rule:nonzero;fill:rgb(85.499573%,45.098877%,19.198608%);fill-opacity:1;" d="M 402.75 328.195313 C 402.566406 326.390625 402.386719 324.585938 402.207031 322.78125 C 402.207031 322.78125 402.460938 322.828125 402.460938 322.828125 C 404.152344 322.8125 405.84375 322.828125 407.535156 322.769531 C 411.75 322.625 415.8125 323.285156 419.734375 324.871094 C 420.4375 325.15625 421.285156 325.089844 422.066406 325.1875 C 422.921875 327.585938 423.777344 329.984375 424.632813 332.382813 C 425.386719 335.65625 423.464844 338.285156 422.429688 341.097656 C 421.976563 342.328125 420.273438 342.257813 418.820313 341.226563 C 416.375 339.492188 413.910156 337.78125 411.445313 336.070313 C 411.289063 335.960938 411.070313 335.9375 410.882813 335.878906 C 409.324219 334.804688 407.8125 333.664063 406.203125 332.675781 C 404.460938 331.605469 403.148438 330.265625 402.75 328.195313 "/>
<path style=" stroke:none;fill-rule:nonzero;fill:rgb(93.699646%,47.799683%,20.399475%);fill-opacity:1;" d="M 422.066406 325.1875 C 421.285156 325.089844 420.4375 325.15625 419.734375 324.871094 C 415.8125 323.285156 411.75 322.625 407.535156 322.769531 C 405.84375 322.828125 404.152344 322.8125 402.464844 322.828125 C 401.734375 318.703125 400.980469 314.582031 400.292969 310.453125 C 399.914063 308.179688 400.261719 307.832031 402.5 307.054688 C 404.144531 306.484375 405.664063 306.570313 407.089844 307.472656 C 413.9375 311.800781 419.175781 317.503906 422.066406 325.1875 "/>
<path style=" stroke:none;fill-rule:nonzero;fill:rgb(88.999939%,93.299866%,96.099854%);fill-opacity:1;" d="M 336.171875 372.589844 C 336.578125 374.425781 337.054688 376.25 337.363281 378.105469 C 337.652344 379.828125 338.453125 381.042969 340.085938 381.734375 C 341.808594 382.460938 343.503906 383.253906 345.210938 384.019531 C 346.3125 384.613281 347.445313 385.15625 348.503906 385.820313 C 349.273438 386.304688 349.941406 386.945313 350.652344 387.519531 C 349.90625 388.519531 349.277344 389.644531 348.390625 390.5 C 346.394531 392.417969 344.273438 394.199219 342.203125 396.039063 C 340.375 394.703125 338.375 393.546875 336.75 392 C 333.609375 389.007813 330.679688 385.789063 327.480469 382.476563 C 330.238281 378.722656 332.695313 375.230469 336.171875 372.589844 "/>
<path style=" stroke:none;fill-rule:nonzero;fill:rgb(2.69928%,51.399231%,22.399902%);fill-opacity:1;" d="M 307.40625 439.144531 L 307.40625 427.941406 C 310.304688 427.941406 313.09375 427.75 315.84375 427.992188 C 318.972656 428.269531 321.507813 431.09375 321.753906 434.25 C 321.871094 435.820313 321.769531 437.40625 321.769531 439.144531 "/>
<path style=" stroke:none;fill-rule:nonzero;fill:rgb(99.598694%,99.598694%,99.598694%);fill-opacity:1;" d="M 414.914063 646.707031 L 378.242188 646.707031 C 381.746094 625.613281 385.21875 604.695313 388.742188 583.488281 L 355.847656 583.488281 C 357.085938 576.070313 358.269531 568.949219 359.46875 561.773438 L 462.015625 561.773438 C 460.820313 569.007813 459.65625 576.054688 458.445313 583.363281 L 425.496094 583.363281 C 421.953125 604.5625 418.449219 625.523438 414.914063 646.707031 "/>
<path style=" stroke:none;fill-rule:nonzero;fill:rgb(99.598694%,99.598694%,99.598694%);fill-opacity:1;" d="M 242.347656 646.675781 L 206.492188 646.675781 C 211.125 618.304688 215.722656 590.128906 220.347656 561.8125 L 256.203125 561.8125 C 254.6875 571.054688 253.203125 580.101563 251.601563 589.902344 C 252.867188 589 253.640625 588.492188 254.367188 587.925781 C 265.027344 579.640625 275.691406 571.351563 286.328125 563.039063 C 287.46875 562.148438 288.582031 561.601563 290.109375 561.609375 C 304.214844 561.664063 318.320313 561.640625 332.425781 561.644531 C 332.894531 561.644531 333.359375 561.710938 334.59375 561.800781 C 317.316406 573.617188 300.621094 585.039063 283.59375 596.691406 C 296.703125 613.328125 309.699219 629.820313 323.097656 646.832031 L 320.113281 646.832031 C 308.609375 646.832031 297.105469 646.789063 285.601563 646.871094 C 283.617188 646.886719 282.332031 646.335938 281.105469 644.695313 C 274.085938 635.332031 266.9375 626.066406 259.824219 616.773438 C 259.105469 615.835938 258.351563 614.929688 257.496094 613.863281 C 253.949219 616.410156 250.519531 618.804688 247.199219 621.339844 C 246.601563 621.800781 246.269531 622.820313 246.132813 623.640625 C 244.84375 631.222656 243.628906 638.8125 242.347656 646.675781 "/>
<path style=" stroke:none;fill-rule:nonzero;fill:rgb(100%,99.598694%,99.598694%);fill-opacity:1;" d="M 120.527344 594.417969 C 121.214844 594.585938 121.5 594.71875 121.78125 594.71875 C 128.78125 594.71875 135.78125 594.8125 142.773438 594.625 C 145.027344 594.566406 147.3125 593.929688 149.480469 593.238281 C 151.691406 592.53125 153.296875 591.0625 153.277344 588.4375 C 153.257813 585.9375 151.925781 583.875 149.339844 582.992188 C 147.761719 582.453125 146.035156 582.113281 144.367188 582.085938 C 137.671875 581.964844 130.972656 581.988281 124.273438 581.988281 C 123.710938 581.992188 123.144531 582.203125 122.515625 582.328125 C 121.851563 586.363281 121.207031 590.292969 120.527344 594.417969 M 115.242188 626.136719 C 115.863281 626.28125 116.238281 626.445313 116.609375 626.445313 C 124.496094 626.460938 132.386719 626.550781 140.269531 626.402344 C 143.550781 626.339844 146.851563 625.824219 149.757813 624.058594 C 153.503906 621.777344 154.316406 617.140625 151.320313 614.09375 C 150.1875 612.945313 148.558594 611.980469 146.996094 611.621094 C 144.203125 610.984375 141.292969 610.65625 138.421875 610.582031 C 132.636719 610.433594 126.84375 610.53125 121.050781 610.542969 C 120.078125 610.546875 119.101563 610.628906 117.90625 610.6875 C 117.003906 615.925781 116.132813 620.988281 115.242188 626.136719 M 75.976563 646.816406 C 80.734375 618.296875 85.425781 590.164063 90.140625 561.910156 C 90.910156 561.804688 91.582031 561.632813 92.25 561.632813 C 113.753906 561.640625 135.257813 561.613281 156.761719 561.707031 C 163.6875 561.738281 170.519531 562.652344 177.019531 565.25 C 181.722656 567.132813 185.644531 569.988281 187.613281 574.84375 C 191.015625 583.226563 189.632813 592.933594 179.269531 597.773438 C 177.199219 598.738281 174.972656 599.375 172.816406 600.15625 C 172.183594 600.390625 171.539063 600.597656 170.984375 600.785156 C 174.097656 602.140625 177.3125 603.1875 180.183594 604.832031 C 193.949219 612.734375 191.945313 630.183594 181.714844 637.535156 C 176.828125 641.046875 171.390625 643.164063 165.617188 644.550781 C 158.679688 646.210938 151.597656 646.761719 144.5 646.785156 C 122.996094 646.863281 101.488281 646.816406 79.984375 646.816406 "/>
<path style=" stroke:none;fill-rule:nonzero;fill:rgb(99.598694%,99.598694%,99.598694%);fill-opacity:1;" d="M 358.882813 465.683594 L 338.410156 465.683594 C 338.34375 459.078125 342.464844 454.816406 348.792969 454.835938 C 355.109375 454.855469 358.921875 458.894531 358.882813 465.683594 "/>
<path style=" stroke:none;fill-rule:nonzero;fill:rgb(99.598694%,99.598694%,99.598694%);fill-opacity:1;" d="M 258.398438 465.683594 L 237.929688 465.683594 C 237.535156 459.832031 241.394531 455.296875 247.035156 454.878906 C 254.007813 454.359375 257.898438 458.003906 258.398438 465.683594 "/>
<path style=" stroke:none;fill-rule:nonzero;fill:rgb(83.499146%,13.299561%,17.999268%);fill-opacity:1;" d="M 350.652344 387.519531 C 349.9375 386.945313 349.273438 386.304688 348.503906 385.820313 C 347.445313 385.15625 346.3125 384.613281 345.210938 384.019531 C 345.59375 383.152344 345.757813 382.039063 346.402344 381.460938 C 350.761719 377.539063 355.214844 373.722656 359.652344 369.886719 C 365.441406 364.882813 371.230469 359.878906 377.054688 354.910156 C 377.796875 354.277344 378.738281 353.875 379.589844 353.363281 C 379.5625 356.183594 379.539063 358.996094 379.511719 361.816406 C 379.253906 366.09375 378.878906 370.367188 378.78125 374.644531 C 378.710938 377.640625 377.671875 379.605469 374.828125 380.9375 C 369.777344 383.296875 364.863281 385.949219 359.949219 388.585938 C 358.003906 389.632813 356.242188 389.660156 354.289063 388.664063 C 353.171875 388.097656 351.871094 387.890625 350.652344 387.519531 "/>
<path style=" stroke:none;fill-rule:nonzero;fill:rgb(88.999939%,93.299866%,96.099854%);fill-opacity:1;" d="M 379.511719 361.816406 C 379.535156 358.996094 379.5625 356.179688 379.589844 353.363281 C 380.148438 351.757813 379.566406 350.570313 378.230469 349.65625 C 379.769531 347.875 381.179688 345.964844 382.875 344.351563 C 384.949219 342.382813 387.304688 340.707031 389.472656 338.828125 C 393.0625 335.710938 396.570313 332.496094 400.183594 329.402344 C 400.875 328.808594 401.886719 328.585938 402.75 328.195313 C 403.152344 330.265625 404.460938 331.605469 406.203125 332.675781 C 407.8125 333.664063 409.324219 334.804688 410.882813 335.878906 C 407.746094 338.472656 404.582031 341.03125 401.484375 343.671875 C 397.101563 347.410156 392.761719 351.207031 388.414063 354.992188 C 386.464844 356.691406 384.589844 358.480469 382.582031 360.105469 C 381.6875 360.832031 380.542969 361.253906 379.511719 361.816406 "/>
<path style=" stroke:none;fill-rule:nonzero;fill:rgb(56.898499%,76.098633%,32.199097%);fill-opacity:1;" d="M 115.242188 626.136719 C 116.128906 620.988281 117.003906 615.925781 117.90625 610.6875 C 119.101563 610.628906 120.074219 610.546875 121.050781 610.542969 C 126.84375 610.53125 132.636719 610.433594 138.421875 610.582031 C 141.292969 610.65625 144.203125 610.984375 146.996094 611.621094 C 148.558594 611.980469 150.1875 612.945313 151.316406 614.09375 C 154.316406 617.140625 153.503906 621.777344 149.757813 624.058594 C 146.851563 625.824219 143.550781 626.339844 140.269531 626.402344 C 132.386719 626.550781 124.496094 626.460938 116.609375 626.449219 C 116.238281 626.445313 115.863281 626.28125 115.242188 626.136719 "/>
<path style=" stroke:none;fill-rule:nonzero;fill:rgb(56.098938%,75.698853%,30.599976%);fill-opacity:1;" d="M 120.527344 594.417969 C 121.207031 590.292969 121.851563 586.363281 122.515625 582.328125 C 123.144531 582.203125 123.710938 581.992188 124.273438 581.988281 C 130.972656 581.988281 137.671875 581.964844 144.367188 582.085938 C 146.035156 582.113281 147.761719 582.453125 149.339844 582.992188 C 151.925781 583.875 153.257813 585.9375 153.277344 588.4375 C 153.296875 591.0625 151.691406 592.53125 149.480469 593.238281 C 147.3125 593.929688 145.027344 594.566406 142.773438 594.625 C 135.78125 594.8125 128.78125 594.71875 121.78125 594.71875 C 121.5 594.71875 121.214844 594.585938 120.527344 594.417969 "/>
<g clip-path="url(#clip1)" clip-rule="nonzero">
<path style="fill:none;stroke-width:60;stroke-linecap:butt;stroke-linejoin:miter;stroke:rgb(69.799805%,70.199585%,68.998718%);stroke-opacity:1;stroke-miterlimit:10;" d="M 2726.171875 30.685938 C 1833.59375 14.94375 701.71875 274.00625 415.585938 403.85 C 45.546875 571.779688 30 832.873438 30 1026.740625 L 30 6798.420313 C 30 6992.2875 45.546875 7253.38125 415.585938 7421.310938 C 701.71875 7551.154688 1833.59375 7810.217188 2726.171875 7794.475 C 3618.789063 7810.217188 4750.625 7551.154688 5036.757813 7421.310938 C 5406.796875 7253.38125 5422.34375 6992.2875 5422.34375 6798.420313 L 5422.34375 1026.740625 C 5422.34375 832.873438 5406.796875 571.779688 5036.757813 403.85 C 4750.625 274.00625 3618.789063 14.94375 2726.171875 30.685938 Z M 2726.171875 30.685938 " transform="matrix(0.1,0,0,-0.1,0,782.51)"/>
<path style="fill:none;stroke-width:70;stroke-linecap:butt;stroke-linejoin:miter;stroke:rgb(3.09906%,51.399231%,30.599976%);stroke-opacity:1;stroke-miterlimit:10;" d="M 2726.171875 439.7875 C 1892.65625 445.373438 1270.15625 539.670313 578.164063 809.592188 C 317.96875 911.076563 245.078125 935.060938 245.078125 1224.865625 L 245.078125 6897.717188 C 245.078125 7187.482813 309.492188 7171.81875 565.078125 7284.357813 C 913.75 7437.9125 1892.65625 7592.092188 2726.171875 7597.717188 C 3559.726563 7592.092188 4516.875 7437.9125 4865.546875 7284.357813 C 5121.132813 7171.81875 5185.546875 7187.482813 5185.546875 6897.717188 L 5185.546875 1224.865625 C 5185.546875 935.060938 5112.65625 911.076563 4852.460938 809.592188 C 4160.46875 539.670313 3559.726563 445.373438 2726.171875 439.7875 Z M 2726.171875 439.7875 " transform="matrix(0.1,0,0,-0.1,0,782.51)"/>
</g>
</g>
</svg>
